if (_typeface_js && _typeface_js.loadFace) _typeface_js.loadFace({"glyphs":{"⋠":{"x_min":151,"x_max":954,"ha":1104,"o":"m 704 466 l 708 463 q 954 168 892 350 l 879 168 q 704 382 835 281 l 704 67 l 954 67 l 954 0 l 704 0 l 704 -201 l 637 -201 l 637 0 l 151 0 l 151 67 l 637 67 l 637 426 q 159 536 447 536 l 151 536 l 151 603 l 159 603 q 637 711 447 603 l 637 1038 l 704 1038 l 704 756 q 879 971 835 857 l 954 971 q 708 675 892 788 l 704 672 l 704 466 m 637 502 l 637 636 l 632 634 q 414 569 524 581 q 632 504 524 557 l 637 502 "},"ҷ":{"x_min":54,"x_max":728,"ha":778,"o":"m 460 0 l 460 309 q 282 255 379 255 q 102 331 163 255 q 54 570 54 392 l 54 737 l 188 737 l 188 543 q 213 399 188 433 q 311 355 247 355 q 460 414 392 355 l 460 737 l 594 737 l 594 117 l 728 117 l 728 -167 l 594 -167 l 594 0 l 460 0 "},"⊉":{"x_min":151,"x_max":954,"ha":1104,"o":"m 336 67 l 392 234 l 151 234 l 151 301 l 415 301 l 559 736 l 151 736 l 151 803 l 582 803 l 632 954 l 703 954 l 652 803 l 669 803 q 870 719 787 803 q 954 518 954 636 q 870 317 954 400 q 669 234 787 234 l 463 234 l 407 67 l 954 67 l 954 0 l 385 0 l 334 -151 l 265 -151 l 315 0 l 151 0 l 151 67 l 336 67 m 485 301 l 669 301 q 823 364 759 301 q 887 518 887 428 q 823 672 887 608 q 669 736 759 736 l 630 736 l 485 301 "},"Ѣ":{"x_min":0,"x_max":862,"ha":912,"o":"m 393 104 l 443 104 q 647 146 590 104 q 720 296 720 199 q 659 428 720 387 q 463 469 598 469 l 393 469 l 393 104 m 251 0 l 251 766 l 0 766 l 0 870 l 251 870 l 251 1004 l 393 1004 l 393 870 l 661 870 l 661 766 l 393 766 l 393 573 l 469 573 q 643 563 589 573 q 746 522 697 553 q 862 305 862 448 q 731 56 862 138 q 433 0 641 0 l 251 0 "},"Ӈ":{"x_min":130,"x_max":892,"ha":1021,"o":"m 130 0 l 130 1004 l 272 1004 l 272 581 l 750 581 l 750 1004 l 892 1004 l 892 -12 q 842 -219 892 -155 q 683 -284 792 -284 q 553 -266 613 -284 l 553 -157 q 650 -179 601 -179 q 730 -147 711 -179 q 750 -18 750 -116 l 750 475 l 272 475 l 272 0 l 130 0 "},"Ҿ":{"x_min":33,"x_max":1100.359375,"ha":1192,"o":"m 1099 494 l 448 494 q 544 206 448 320 q 786 92 640 92 q 1092 167 937 92 l 1092 39 q 790 -25 948 -25 q 436 114 566 -25 q 306 494 306 253 l 297 494 q 33 708 33 494 q 47 808 33 753 l 158 808 q 137 708 137 761 q 173 622 137 647 q 300 598 210 598 l 312 598 q 451 914 338 799 q 734 1029 563 1029 q 1100 548 1100 1029 l 1099 494 m 457 598 l 947 598 l 947 610 q 727 925 947 925 q 549 836 622 925 q 457 598 476 748 m 763 0 l 837 0 q 750 -121 750 -52 q 826 -187 750 -187 q 889 -176 865 -187 l 889 -231 q 795 -251 848 -251 q 695 -221 733 -251 q 657 -143 657 -191 q 763 0 657 -58 "},"₢":{"x_min":75,"x_max":833,"ha":954,"o":"m 833 31 q 520 -25 681 -25 q 247 60 346 -25 q 122 250 169 127 q 75 508 75 372 q 201 894 75 744 q 546 1029 316 1029 q 833 985 703 1029 l 833 868 q 528 929 661 929 q 298 820 379 929 q 217 513 217 711 q 281 222 217 339 q 456 80 346 105 l 456 670 l 590 670 l 590 549 q 689 650 640 621 q 816 682 738 678 l 833 683 l 833 554 q 797 557 807 557 q 590 431 678 557 l 590 80 q 833 156 733 101 l 833 31 "},"⋪":{"x_min":151,"x_max":954,"ha":1104,"o":"m 557 198 l 446 -134 l 376 -134 l 496 228 l 151 401 l 634 643 l 732 937 l 803 937 l 719 686 l 954 803 l 954 0 l 557 198 m 578 262 l 887 108 l 887 695 l 689 596 l 578 262 m 518 292 l 604 554 l 301 401 l 518 292 "},"⊦":{"x_min":201,"x_max":603,"ha":803,"o":"m 201 0 l 201 803 l 268 803 l 268 435 l 603 435 l 603 368 l 268 368 l 268 0 l 201 0 "},"≘":{"x_min":151,"x_max":954,"ha":1104,"o":"m 151 0 l 151 67 l 954 67 l 954 0 l 151 0 m 151 251 l 151 318 l 954 318 l 954 251 l 151 251 m 193 519 l 151 519 q 552 737 300 737 q 954 519 804 737 l 912 519 q 552 654 788 654 q 193 519 315 654 "},"≊":{"x_min":151,"x_max":954,"ha":1104,"o":"m 151 25 l 151 92 l 954 92 l 954 25 l 151 25 m 193 275 l 151 275 q 327 492 161 492 q 554 421 397 492 l 613 394 q 797 330 757 330 q 912 476 895 330 l 954 476 q 774 260 940 260 q 593 316 719 260 l 553 334 l 492 361 q 307 423 357 423 q 225 380 258 423 q 193 275 193 338 m 193 576 l 151 576 q 327 793 161 793 q 554 722 397 793 l 613 696 q 798 631 757 631 q 912 777 895 631 l 954 777 q 774 562 940 562 q 593 617 719 562 l 553 635 l 492 663 q 308 724 358 724 q 225 681 258 724 q 193 576 193 639 "},"Ҧ":{"x_min":130,"x_max":1373,"ha":1423,"o":"m 130 0 l 130 1004 l 825 1004 l 825 897 l 825 542 q 1054 619 937 619 q 1285 516 1198 619 q 1373 243 1373 413 q 1268 -74 1373 52 q 1005 -201 1163 -201 q 943 -190 975 -201 l 943 -82 q 1009 -97 977 -97 q 1162 -11 1103 -97 q 1222 212 1222 74 q 1171 425 1222 348 q 1030 502 1120 502 q 825 413 934 502 l 825 0 l 683 0 l 683 898 l 272 898 l 272 0 l 130 0 "},"⋢":{"x_min":151,"x_max":954,"ha":1104,"o":"m 418 67 l 474 234 l 151 234 l 151 803 l 664 803 l 714 954 l 785 954 l 734 803 l 954 803 l 954 736 l 712 736 l 567 301 l 954 301 l 954 234 l 544 234 l 489 67 l 954 67 l 954 0 l 466 0 l 416 -151 l 346 -151 l 396 0 l 151 0 l 151 67 l 418 67 m 641 736 l 218 736 l 218 301 l 496 301 l 641 736 "},"≆":{"x_min":151,"x_max":954,"ha":1104,"o":"m 151 50 l 151 117 l 954 117 l 954 50 l 151 50 m 151 301 l 151 368 l 954 368 l 954 301 l 151 301 m 193 551 l 151 551 q 327 768 161 768 q 554 697 398 768 l 613 670 q 798 606 756 606 q 912 752 895 606 l 954 752 q 774 536 940 536 q 593 592 719 536 l 553 610 l 492 638 q 308 699 358 699 q 225 656 258 699 q 193 551 193 614 m 431 -50 l 603 468 l 674 468 l 501 -50 l 431 -50 "},"е":{"x_min":75,"x_max":676.671875,"ha":774,"o":"m 673 24 q 443 -17 538 -17 q 177 91 279 -17 q 75 371 75 199 q 165 645 75 538 q 397 753 256 753 q 603 657 530 753 q 676 387 676 562 l 676 347 l 211 347 q 468 85 240 85 q 673 130 551 85 l 673 24 m 217 447 l 542 447 q 388 653 542 653 q 217 447 234 653 "},"⋁":{"x_min":151,"x_max":954,"ha":1104,"o":"m 151 803 l 299 803 l 552 300 l 804 803 l 954 803 l 552 0 l 151 803 "},"⊂":{"x_min":151,"x_max":954,"ha":1104,"o":"m 954 0 l 552 0 q 268 117 385 0 q 151 401 151 234 q 268 685 151 568 q 552 803 386 803 l 954 803 l 954 736 l 552 736 q 316 638 414 736 q 218 401 218 540 q 316 164 218 262 q 552 67 414 67 l 954 67 l 954 0 "},"e":{"x_min":75,"x_max":676.671875,"ha":774,"o":"m 673 24 q 443 -17 538 -17 q 177 91 279 -17 q 75 371 75 199 q 165 645 75 538 q 397 753 256 753 q 603 657 530 753 q 676 387 676 562 l 676 347 l 211 347 q 468 85 240 85 q 673 130 551 85 l 673 24 m 217 447 l 542 447 q 388 653 542 653 q 217 447 234 653 "},"⊏":{"x_min":151,"x_max":954,"ha":1104,"o":"m 151 0 l 151 803 l 954 803 l 954 736 l 218 736 l 218 67 l 954 67 l 954 0 l 151 0 "},"≓":{"x_min":151,"x_max":954,"ha":1104,"o":"m 151 -26 l 151 108 l 285 108 l 285 -26 l 151 -26 m 151 242 l 151 309 l 954 309 l 954 242 l 151 242 m 151 494 l 151 561 l 954 561 l 954 494 l 151 494 m 820 694 l 820 828 l 954 828 l 954 694 l 820 694 "},"∆":{"x_min":151,"x_max":1088,"ha":1238,"o":"m 151 0 l 151 91 l 611 1013 l 656 1013 l 1088 91 l 1088 0 l 151 0 m 205 96 l 956 96 l 593 870 l 205 96 "},"₨":{"x_min":130,"x_max":1292,"ha":1409,"o":"m 130 0 l 130 1004 l 433 1004 q 655 940 578 1004 q 732 755 732 876 q 678 585 732 659 q 529 470 625 510 l 811 0 l 634 0 l 403 425 l 271 425 l 271 0 l 130 0 m 271 531 l 317 531 q 517 584 448 531 q 586 741 586 638 q 360 898 586 898 l 271 898 l 271 531 m 797 26 l 797 149 q 1024 83 927 83 q 1120 114 1082 83 q 1158 192 1158 145 q 1051 305 1158 261 l 973 339 q 802 546 802 411 q 870 697 802 642 q 1055 753 938 753 q 1208 736 1117 753 l 1236 731 l 1236 620 q 1058 653 1125 653 q 965 627 999 653 q 931 559 931 602 q 1028 457 931 498 l 1092 430 q 1246 332 1201 383 q 1292 204 1292 281 q 1215 45 1292 107 q 1020 -17 1139 -17 q 797 26 927 -17 "},"⊼":{"x_min":151,"x_max":954,"ha":1104,"o":"m 151 736 l 151 803 l 954 803 l 954 736 l 151 736 m 251 0 l 552 602 l 854 0 l 779 0 l 552 451 l 326 0 l 251 0 "},"₪":{"x_min":151,"x_max":1322,"ha":1473,"o":"m 151 0 l 151 1004 l 598 1004 q 909 924 838 1004 q 958 818 945 885 q 971 600 971 750 l 971 334 l 854 334 l 854 567 q 845 752 854 704 q 805 829 836 800 q 598 870 763 870 l 268 870 l 268 0 l 151 0 m 502 0 l 502 669 l 619 669 l 619 134 l 949 134 q 1156 174 1113 134 q 1195 252 1186 203 q 1205 437 1205 300 l 1205 1004 l 1322 1004 l 1322 404 q 1309 186 1322 255 q 1261 79 1296 118 q 949 0 1189 0 l 502 0 "},"∭":{"x_min":150,"x_max":1423,"ha":1573,"o":"m 247 -142 q 274 -151 260 -151 q 351 6 351 -151 l 349 107 l 343 334 l 343 561 q 391 971 343 846 q 552 1096 440 1096 q 653 1004 653 1096 q 591 933 653 933 q 533 990 533 933 q 554 1037 533 1018 q 528 1046 538 1046 q 450 910 450 1046 l 453 790 l 457 648 l 460 560 l 460 334 q 250 -201 460 -201 q 150 -109 150 -201 q 213 -38 150 -38 q 269 -97 269 -38 q 247 -142 269 -120 m 633 -142 q 659 -151 646 -151 q 736 6 736 -151 l 734 107 l 728 334 l 728 561 q 776 971 728 846 q 937 1096 825 1096 q 1038 1004 1038 1096 q 975 933 1038 933 q 918 990 918 933 q 939 1037 918 1018 q 912 1046 923 1046 q 834 910 834 1046 l 837 790 l 842 648 l 845 560 l 845 334 q 635 -201 845 -201 q 535 -109 535 -201 q 597 -38 535 -38 q 654 -97 654 -38 q 633 -142 654 -120 m 1017 -142 q 1044 -151 1030 -151 q 1121 6 1121 -151 l 1119 107 l 1113 334 l 1113 561 q 1161 971 1113 846 q 1322 1096 1210 1096 q 1423 1004 1423 1096 q 1360 933 1423 933 q 1302 990 1302 933 q 1323 1037 1302 1018 q 1297 1046 1307 1046 q 1219 910 1219 1046 l 1222 790 l 1227 648 l 1230 560 l 1230 334 q 1020 -201 1230 -201 q 920 -109 920 -201 q 982 -38 920 -38 q 1039 -97 1039 -38 q 1017 -142 1039 -120 "},"Ѓ":{"x_min":130,"x_max":692,"ha":707,"o":"m 130 0 l 130 1004 l 692 1004 l 692 898 l 272 898 l 272 0 l 130 0 m 271 1088 l 434 1306 l 589 1306 l 371 1088 l 271 1088 "},"⊲":{"x_min":151,"x_max":954,"ha":1104,"o":"m 151 0 l 151 803 l 954 401 l 151 0 m 218 108 l 805 401 l 218 695 l 218 108 "},"∷":{"x_min":151,"x_max":954,"ha":1104,"o":"m 151 0 l 151 134 l 285 134 l 285 0 l 151 0 m 820 0 l 820 134 l 954 134 l 954 0 l 820 0 m 151 669 l 151 803 l 285 803 l 285 669 l 151 669 m 820 669 l 820 803 l 954 803 l 954 669 l 820 669 "},"ў":{"x_min":8,"x_max":717,"ha":730,"o":"m 310 45 l 8 737 l 136 737 l 372 203 l 582 737 l 717 737 l 434 17 q 297 -217 361 -166 q 70 -268 233 -268 l 55 -268 l 55 -151 l 73 -151 q 216 -120 176 -151 q 302 23 256 -89 l 310 45 m 136 1072 l 219 1072 q 362 971 240 971 q 505 1072 483 971 l 588 1072 q 516 926 577 981 q 362 871 454 871 q 208 925 269 871 q 136 1072 146 980 "},"^":{"x_min":71,"x_max":808,"ha":878,"o":"m 439 780 l 183 268 l 71 268 l 439 1004 l 808 268 l 695 268 l 439 780 "},"∙":{"x_min":151,"x_max":628,"ha":779,"o":"m 151 401 q 220 570 151 500 q 389 640 290 640 q 558 570 488 640 q 628 401 628 500 q 558 232 628 302 q 389 163 488 163 q 220 232 290 163 q 151 401 151 302 "},"к":{"x_min":134,"x_max":680,"ha":746,"o":"m 268 315 l 268 0 l 134 0 l 134 737 l 268 737 l 268 415 l 280 415 q 350 433 329 418 q 397 497 372 449 l 420 542 l 435 573 q 523 706 484 676 q 645 737 561 737 l 645 637 q 585 618 605 637 q 533 531 565 599 l 520 504 l 503 467 q 406 371 473 405 q 490 320 461 352 q 568 197 519 289 l 595 145 q 680 0 640 58 l 532 0 q 489 80 510 41 l 452 145 q 335 315 382 272 l 268 315 "},"ң":{"x_min":134,"x_max":867,"ha":917,"o":"m 134 0 l 134 737 l 268 737 l 268 438 l 599 438 l 599 737 l 733 737 l 733 117 l 867 117 l 867 -168 l 733 -168 l 733 0 l 599 0 l 599 338 l 268 338 l 268 0 l 134 0 "},"⊗":{"x_min":134,"x_max":971,"ha":1104,"o":"m 134 399 q 256 697 134 574 q 552 820 378 820 q 848 697 726 820 q 971 401 971 575 q 848 105 971 227 q 550 -17 725 -17 q 256 105 379 -17 q 134 399 134 228 m 552 354 l 328 130 q 552 50 426 50 q 776 130 678 50 l 552 354 m 552 448 l 776 672 q 551 753 679 753 q 329 672 427 753 l 552 448 m 599 401 l 823 178 q 904 401 904 275 q 823 624 904 526 l 599 401 m 505 401 l 281 624 q 201 401 201 526 q 281 177 201 275 l 505 401 "},"⊞":{"x_min":151,"x_max":954,"ha":1104,"o":"m 151 0 l 151 803 l 954 803 l 954 0 l 151 0 m 887 368 l 586 368 l 586 67 l 887 67 l 887 368 m 519 67 l 519 368 l 218 368 l 218 67 l 519 67 m 218 435 l 519 435 l 519 736 l 218 736 l 218 435 m 586 435 l 887 435 l 887 736 l 586 736 l 586 435 "},"Ҫ":{"x_min":71,"x_max":884,"ha":961,"o":"m 884 52 q 559 -25 735 -25 q 198 112 325 -25 q 71 501 71 249 q 200 890 71 752 q 567 1029 330 1029 q 883 985 701 1029 l 883 851 q 564 923 676 923 q 311 812 401 923 q 222 500 222 701 q 317 196 222 307 q 579 86 413 86 q 884 174 721 86 l 884 52 m 526 0 l 592 0 l 550 -73 q 642 -105 602 -73 q 682 -180 682 -137 q 642 -260 682 -227 q 545 -293 602 -293 q 447 -278 497 -293 l 447 -223 q 518 -234 478 -234 q 588 -183 588 -234 q 461 -118 588 -118 l 526 0 "},"қ":{"x_min":134,"x_max":745,"ha":787,"o":"m 268 314 l 268 0 l 134 0 l 134 737 l 268 737 l 268 414 l 280 414 q 350 431 329 416 q 398 497 370 445 l 421 541 l 438 576 q 521 702 480 668 q 628 737 562 737 l 645 737 l 645 637 q 583 614 606 637 q 532 531 559 592 l 521 505 q 473 418 494 443 q 407 370 452 392 q 493 318 470 343 q 569 194 515 294 l 611 117 l 745 117 l 745 -168 l 611 -168 l 611 0 l 533 0 q 493 72 517 29 q 453 145 468 115 q 335 314 388 262 l 268 314 "},"≁":{"x_min":151,"x_max":954,"ha":1104,"o":"m 510 380 l 493 387 q 308 449 359 449 q 225 406 258 449 q 193 301 193 364 l 151 301 q 328 518 161 518 q 531 458 397 518 l 536 456 l 610 678 l 680 678 l 597 428 l 614 420 q 797 356 756 356 q 912 502 895 356 l 954 502 q 774 286 940 286 q 571 352 715 286 l 496 126 l 426 126 l 510 380 "},"⊿":{"x_min":151,"x_max":954,"ha":1104,"o":"m 151 0 l 954 803 l 954 0 l 151 0 m 344 117 l 837 117 l 837 609 l 344 117 "},"-":{"x_min":100,"x_max":703,"ha":804,"o":"m 100 368 l 100 451 l 703 451 l 703 368 l 100 368 "},"ѕ":{"x_min":106,"x_max":601,"ha":708,"o":"m 106 26 l 106 149 q 333 83 236 83 q 429 114 391 83 q 467 192 467 145 q 360 305 467 261 l 282 339 q 110 546 110 411 q 178 697 110 642 q 364 753 246 753 q 517 736 426 753 l 545 731 l 545 620 q 366 653 433 653 q 273 627 308 653 q 239 559 239 602 q 336 457 239 498 l 401 430 q 555 332 510 383 q 601 204 601 281 q 524 45 601 107 q 328 -17 447 -17 q 106 26 236 -17 "},"Q":{"x_min":71,"x_max":1112,"ha":1079,"o":"m 1021 -201 q 624 -18 784 -124 q 526 -25 560 -25 q 197 121 324 -25 q 71 502 71 268 q 198 885 71 742 q 540 1029 326 1029 q 882 885 754 1029 q 1010 499 1010 741 q 752 21 1010 154 q 1112 -87 925 -54 l 1021 -201 m 540 81 q 774 192 690 81 q 859 502 859 303 q 774 811 859 700 q 540 923 690 923 q 306 811 390 923 q 222 503 222 700 q 306 192 222 304 q 540 81 390 81 "},"≎":{"x_min":151,"x_max":954,"ha":1104,"o":"m 435 494 l 151 494 l 151 561 l 368 561 q 552 745 389 745 q 737 561 715 745 l 954 561 l 954 494 l 670 494 l 670 561 q 635 643 670 609 q 552 678 601 678 q 469 643 504 678 q 435 561 435 609 l 435 494 m 670 309 l 954 309 l 954 243 l 737 243 q 552 58 715 58 q 368 243 389 58 l 151 243 l 151 309 l 435 309 l 435 242 q 469 159 435 193 q 552 125 504 125 q 635 159 601 125 q 670 242 670 193 l 670 309 "},"∡":{"x_min":151,"x_max":954,"ha":1104,"o":"m 749 67 l 954 67 l 954 0 l 753 0 q 707 -230 753 -110 l 644 -204 q 686 0 686 -98 l 151 0 l 529 378 q 356 494 451 451 l 381 556 q 576 425 490 507 l 954 803 l 954 708 l 622 375 q 749 67 728 237 m 681 67 q 581 318 661 207 l 574 327 l 313 67 l 681 67 "},"Ш":{"x_min":130,"x_max":1192,"ha":1322,"o":"m 130 0 l 130 1004 l 272 1004 l 272 125 l 590 125 l 590 1004 l 732 1004 l 732 125 l 1050 125 l 1050 1004 l 1192 1004 l 1192 0 l 130 0 "},"M":{"x_min":130,"x_max":1068,"ha":1196,"o":"m 130 0 l 130 1004 l 327 1004 l 605 227 l 889 1004 l 1068 1004 l 1068 0 l 934 0 l 934 817 l 658 67 l 520 67 l 252 819 l 252 0 l 130 0 "},"∽":{"x_min":151,"x_max":954,"ha":1104,"o":"m 912 301 q 879 406 912 363 q 798 449 846 449 q 611 387 746 449 l 550 360 l 511 342 q 329 286 386 286 q 151 502 164 286 l 193 502 q 306 356 209 356 q 491 420 347 356 l 550 447 q 774 518 707 518 q 954 301 942 518 l 912 301 "},"ј":{"x_min":-104,"x_max":289,"ha":423,"o":"m -104 -250 l -104 -144 q 38 -184 -10 -184 q 124 -154 93 -184 q 149 -107 144 -133 q 155 0 155 -82 l 155 737 l 289 737 l 289 0 q 49 -284 289 -284 q -104 -250 -22 -284 m 155 870 l 155 1004 l 289 1004 l 289 870 l 155 870 "},"ҩ":{"x_min":75,"x_max":844,"ha":862,"o":"m 561 110 q 657 356 657 194 q 585 485 657 485 q 501 312 501 485 q 561 110 501 203 m 714 554 q 782 374 782 493 q 735 181 782 273 q 613 41 688 90 q 844 -76 722 -76 l 844 -176 q 518 -3 647 -156 q 417 -17 466 -17 q 168 88 262 -17 q 75 368 75 193 q 168 648 75 544 q 420 753 262 753 q 605 698 525 753 q 714 554 685 644 m 580 585 q 430 653 527 653 q 217 368 217 653 q 427 83 217 83 q 459 84 436 83 q 384 346 384 222 q 436 515 384 446 q 565 585 489 585 l 580 585 "},"{":{"x_min":17,"x_max":360,"ha":452,"o":"m 17 485 l 50 485 q 153 594 153 485 q 142 689 153 640 l 129 748 q 117 862 117 806 q 181 1008 117 952 q 360 1071 246 1064 l 360 971 l 341 971 q 264 946 294 971 q 234 886 234 922 q 242 822 234 870 l 254 752 q 262 646 262 708 q 162 435 262 519 q 262 222 262 350 q 254 116 262 161 l 242 47 q 234 -17 234 0 q 264 -76 234 -52 q 341 -101 295 -101 l 360 -101 l 360 -201 q 181 -138 245 -194 q 117 7 117 -82 q 129 121 117 63 l 142 180 q 153 276 153 229 q 50 385 153 385 l 17 385 l 17 485 "},"ҿ":{"x_min":17,"x_max":901.671875,"ha":1000,"o":"m 901 347 l 437 347 q 693 85 466 85 q 898 130 776 85 l 898 24 q 668 -17 763 -17 q 411 81 511 -17 q 301 347 312 179 l 276 347 q 17 551 17 347 q 30 659 17 602 l 132 659 q 113 563 113 614 q 148 471 113 496 q 279 447 184 447 l 307 447 q 414 672 331 591 q 622 753 497 753 q 828 657 755 753 q 901 387 901 562 l 901 347 m 444 447 l 768 447 q 615 653 768 653 q 444 447 461 653 m 625 0 l 697 0 q 610 -121 610 -52 q 687 -187 610 -187 q 749 -176 725 -187 l 749 -231 q 655 -251 708 -251 q 555 -221 593 -251 q 517 -143 517 -191 q 625 0 517 -58 "},"#":{"x_min":10,"x_max":868,"ha":878,"o":"m 138 0 l 213 301 l 10 301 l 27 385 l 234 385 l 293 619 l 73 619 l 90 702 l 313 702 l 389 1004 l 476 1004 l 400 702 l 578 702 l 654 1004 l 741 1004 l 665 702 l 868 702 l 851 619 l 644 619 l 585 385 l 805 385 l 788 301 l 565 301 l 489 0 l 403 0 l 478 301 l 300 301 l 224 0 l 138 0 m 321 385 l 499 385 l 558 619 l 379 619 l 321 385 "},"≷":{"x_min":151,"x_max":954,"ha":1104,"o":"m 954 538 l 954 466 l 333 216 l 954 -32 l 954 -104 l 151 216 l 954 538 m 151 1004 l 954 682 l 151 361 l 151 432 l 773 682 l 151 931 l 151 1004 "},"≲":{"x_min":151,"x_max":954,"ha":1104,"o":"m 954 903 l 954 831 l 333 582 l 954 333 l 954 261 l 151 582 l 954 903 m 193 0 l 151 0 q 328 216 161 216 q 554 145 398 216 l 614 118 q 798 54 758 54 q 912 200 896 54 l 954 200 q 774 -16 940 -16 q 593 40 718 -16 l 553 58 l 492 85 q 307 146 357 146 q 225 103 258 146 q 193 0 193 61 "},"≙":{"x_min":151,"x_max":954,"ha":1104,"o":"m 151 0 l 151 67 l 954 67 l 954 0 l 151 0 m 151 251 l 151 318 l 954 318 l 954 251 l 151 251 m 302 502 l 552 1004 l 803 502 l 728 502 l 551 853 l 377 502 l 302 502 "},"Ӄ":{"x_min":130,"x_max":766,"ha":833,"o":"m 130 0 l 130 1004 l 272 1004 l 272 571 l 278 571 q 363 598 335 571 q 462 745 392 625 l 505 819 l 540 881 q 621 977 580 949 q 723 1004 662 1004 l 741 1004 l 741 900 q 730 900 733 900 q 620 798 677 900 l 593 750 l 572 713 q 443 538 501 585 q 669 433 573 538 q 766 186 766 328 q 672 -88 766 23 q 442 -201 578 -201 q 385 -194 418 -201 l 385 -88 q 430 -97 407 -97 q 565 -22 516 -97 q 615 181 615 51 q 532 389 615 314 q 306 465 450 465 l 272 465 l 272 0 l 130 0 "},"⊣":{"x_min":151,"x_max":954,"ha":1104,"o":"m 954 0 l 887 0 l 887 368 l 151 368 l 151 435 l 887 435 l 887 803 l 954 803 l 954 0 "},"Џ":{"x_min":130,"x_max":892,"ha":1021,"o":"m 130 0 l 130 1004 l 272 1004 l 272 106 l 750 106 l 750 1004 l 892 1004 l 892 0 l 578 0 l 578 -218 l 444 -218 l 444 0 l 130 0 "},")":{"x_min":50,"x_max":368,"ha":452,"o":"m 50 979 l 50 1071 q 282 799 196 971 q 368 435 368 628 q 282 70 368 241 q 50 -201 196 -101 l 50 -109 q 191 124 149 0 q 234 435 234 249 q 191 745 234 620 q 50 979 149 871 "},"⊷":{"x_min":151,"x_max":1155,"ha":1305,"o":"m 807 368 l 500 368 q 438 265 486 305 q 326 226 390 226 q 202 277 254 226 q 151 401 151 329 q 202 525 151 474 q 326 577 254 577 q 500 435 469 577 l 807 435 q 979 577 837 577 q 1103 525 1052 577 q 1155 401 1155 474 q 1103 277 1155 329 q 979 226 1052 226 q 868 265 916 226 q 807 368 820 304 m 1088 401 q 1056 478 1088 446 q 979 510 1024 510 q 902 478 934 510 q 871 401 871 446 q 902 324 871 356 q 979 293 934 293 q 1056 324 1024 293 q 1088 401 1088 356 "},"⊍":{"x_min":151,"x_max":954,"ha":1104,"o":"m 485 402 l 485 536 l 619 536 l 619 402 l 485 402 m 954 803 l 954 401 q 836 117 954 235 q 552 0 719 0 q 268 117 385 0 q 151 401 151 234 l 151 803 l 218 803 l 218 401 q 315 165 218 263 q 552 67 413 67 q 789 165 691 67 q 887 401 887 263 l 887 803 l 954 803 "},"э":{"x_min":58,"x_max":631,"ha":707,"o":"m 58 19 l 58 139 q 269 92 154 92 q 492 326 455 92 l 233 326 l 233 426 l 492 426 q 434 592 492 531 q 277 653 377 653 q 83 600 190 653 l 83 714 q 294 753 182 753 q 542 655 453 753 q 631 382 631 557 q 531 92 631 201 q 266 -17 431 -17 q 58 19 166 -17 "},"⋚":{"x_min":151,"x_max":954,"ha":1104,"o":"m 151 350 l 954 28 l 151 -293 l 151 -221 l 773 28 l 151 277 l 151 350 m 954 1192 l 954 1120 l 333 871 l 954 622 l 954 550 l 151 871 l 954 1192 m 151 416 l 151 483 l 954 483 l 954 416 l 151 416 "},"⊓":{"x_min":151,"x_max":954,"ha":1104,"o":"m 151 0 l 151 803 l 954 803 l 954 0 l 887 0 l 887 736 l 218 736 l 218 0 l 151 0 "},"ш":{"x_min":134,"x_max":1037,"ha":1171,"o":"m 134 0 l 134 737 l 268 737 l 268 117 l 519 117 l 519 737 l 653 737 l 653 117 l 903 117 l 903 737 l 1037 737 l 1037 0 l 134 0 "},"Я":{"x_min":17,"x_max":732,"ha":861,"o":"m 590 427 l 499 427 q 269 109 404 331 q 219 28 251 79 l 202 0 l 17 0 q 128 152 74 67 l 158 198 l 176 226 l 216 287 q 371 453 294 405 q 200 550 266 474 q 134 725 134 626 q 230 940 134 856 q 331 990 272 977 q 504 1004 389 1004 l 732 1004 l 732 0 l 590 0 l 590 427 m 590 900 l 505 900 q 346 859 394 900 q 285 722 285 806 q 349 579 285 627 q 541 531 414 531 l 590 531 l 590 900 "},"∱":{"x_min":150,"x_max":785,"ha":853,"o":"m 155 393 q 150 447 150 425 q 211 621 150 546 q 372 718 273 697 q 577 1096 393 1096 q 678 1004 678 1096 q 616 933 678 933 q 558 991 558 933 q 579 1037 558 1018 q 553 1046 563 1046 q 475 912 475 1046 l 478 790 l 478 749 l 480 718 q 695 515 650 682 l 785 515 l 668 312 l 551 515 l 643 515 q 482 666 606 628 l 482 648 l 485 560 l 485 334 q 275 -201 485 -201 q 175 -109 175 -201 q 238 -38 175 -38 q 294 -97 294 -38 q 272 -142 294 -120 q 299 -151 285 -151 q 376 6 376 -151 l 374 107 l 368 334 l 368 561 l 369 655 l 369 666 q 200 445 200 614 q 204 403 200 428 l 155 393 "},"∛":{"x_min":120,"x_max":1138,"ha":1121,"o":"m 138 341 l 120 378 l 299 469 l 567 -67 l 1093 1247 l 1138 1247 l 585 -134 l 526 -134 l 259 400 l 138 341 m 382 635 l 382 718 q 522 683 469 683 q 648 793 648 683 q 472 917 648 917 l 438 917 l 438 980 l 467 980 q 632 1092 632 980 q 525 1179 632 1179 q 390 1145 463 1179 l 390 1222 q 543 1247 464 1247 q 734 1105 734 1247 q 604 954 734 998 q 754 793 754 921 q 695 662 754 710 q 534 615 636 615 q 382 635 462 615 "},"a":{"x_min":70,"x_max":734,"ha":767,"o":"m 513 93 q 282 -17 393 -17 q 130 40 190 -17 q 70 185 70 97 q 171 371 70 306 q 462 436 272 436 l 494 436 l 494 524 q 360 653 494 653 q 134 587 256 653 l 134 698 q 388 753 269 753 q 569 697 511 753 q 628 524 628 641 l 628 190 q 698 76 628 76 q 724 78 707 76 l 734 4 q 633 -17 688 -17 q 513 93 539 -17 m 494 166 l 494 357 l 451 359 q 272 317 340 359 q 204 207 204 275 q 237 125 204 158 q 320 92 271 92 q 494 166 403 92 "},"⊬":{"x_min":151,"x_max":954,"ha":1104,"o":"m 513 435 l 652 853 l 723 853 l 583 435 l 954 435 l 954 368 l 561 368 l 422 -50 l 352 -50 l 491 368 l 218 368 l 218 0 l 151 0 l 151 803 l 218 803 l 218 435 l 513 435 "},"=":{"x_min":151,"x_max":954,"ha":1104,"o":"m 151 243 l 151 309 l 954 309 l 954 243 l 151 243 m 151 494 l 151 562 l 954 562 l 954 494 l 151 494 "},"Ћ":{"x_min":13,"x_max":1004,"ha":1059,"o":"m 757 1004 l 757 898 l 456 898 l 456 566 q 715 661 567 661 q 930 579 850 661 q 988 484 973 536 q 1004 332 1004 432 l 1004 0 l 862 0 l 862 328 q 821 494 862 445 q 686 544 781 544 q 456 439 555 544 l 456 0 l 314 0 l 314 898 l 13 898 l 13 1004 l 757 1004 "},"⋦":{"x_min":151,"x_max":954,"ha":1104,"o":"m 535 154 l 586 308 l 657 308 l 596 126 l 614 118 q 797 54 757 54 q 912 200 895 54 l 954 200 q 774 -16 940 -16 q 593 40 717 -16 l 582 45 l 571 50 l 518 -108 l 448 -108 l 509 78 l 493 85 q 307 146 357 146 q 225 103 258 146 q 193 0 193 61 l 151 0 q 328 216 161 216 q 527 156 396 216 l 535 154 m 954 903 l 954 831 l 333 582 l 954 333 l 954 261 l 151 582 l 954 903 "},"д":{"x_min":50,"x_max":874,"ha":933,"o":"m 50 -168 l 50 117 l 118 117 q 230 345 196 215 q 264 678 264 476 l 264 737 l 740 737 l 740 117 l 874 117 l 874 -168 l 740 -168 l 740 0 l 184 0 l 184 -168 l 50 -168 m 606 117 l 606 637 l 398 637 l 398 620 q 369 343 398 462 q 277 117 341 223 l 606 117 "},"⊯":{"x_min":151,"x_max":954,"ha":1104,"o":"m 546 234 l 419 234 l 419 0 l 352 0 l 352 803 l 419 803 l 419 569 l 658 569 l 753 853 l 824 853 l 729 569 l 954 569 l 954 502 l 706 502 l 639 301 l 954 301 l 954 234 l 617 234 l 522 -50 l 452 -50 l 546 234 m 569 301 l 636 502 l 419 502 l 419 301 l 569 301 m 151 0 l 151 803 l 218 803 l 218 0 l 151 0 "},"⊐":{"x_min":151,"x_max":954,"ha":1104,"o":"m 954 0 l 151 0 l 151 67 l 887 67 l 887 736 l 151 736 l 151 803 l 954 803 l 954 0 "},"Z":{"x_min":64,"x_max":774,"ha":840,"o":"m 64 0 l 64 114 l 602 898 l 97 898 l 97 1004 l 774 1004 l 774 898 l 235 114 l 774 114 l 774 0 l 64 0 "},"u":{"x_min":125,"x_max":727,"ha":862,"o":"m 593 0 l 593 138 q 334 -17 486 -17 q 181 43 238 -17 q 125 207 125 104 l 125 737 l 259 737 l 259 250 q 283 132 259 167 q 363 98 307 98 q 593 258 484 98 l 593 737 l 727 737 l 727 0 l 593 0 "},"k":{"x_min":134,"x_max":784.828125,"ha":812,"o":"m 134 0 l 134 1071 l 268 1071 l 268 379 l 579 737 l 722 737 l 425 393 l 784 0 l 614 0 l 268 378 l 268 0 l 134 0 "},"∳":{"x_min":150,"x_max":784,"ha":853,"o":"m 370 229 l 369 253 l 368 334 l 368 560 l 369 655 l 370 666 q 200 447 200 614 q 370 229 200 281 m 483 229 q 638 370 603 266 l 641 380 l 550 380 l 636 529 l 634 534 q 481 666 599 629 l 482 648 l 485 560 l 485 334 l 483 229 m 693 380 q 479 177 649 213 l 478 160 q 275 -201 451 -201 q 175 -109 175 -201 q 237 -38 175 -38 q 294 -97 294 -38 q 272 -142 294 -120 q 299 -151 285 -151 q 376 6 376 -151 l 374 106 l 372 160 l 372 177 q 211 273 272 198 q 150 447 150 347 q 211 622 150 546 q 372 718 273 697 q 577 1096 393 1096 q 678 1004 678 1096 q 615 933 678 933 q 557 991 557 933 q 578 1037 557 1018 q 552 1046 562 1046 q 474 912 474 1046 l 477 790 l 478 749 l 479 718 q 666 582 604 691 l 784 380 l 693 380 "},"≏":{"x_min":151,"x_max":954,"ha":1104,"o":"m 954 310 l 954 243 l 151 243 l 151 310 l 954 310 m 435 494 l 151 494 l 151 561 l 368 561 q 552 745 389 745 q 737 561 715 745 l 954 561 l 954 494 l 670 494 l 670 561 q 635 643 670 609 q 552 678 601 678 q 469 643 504 678 q 435 561 435 609 l 435 494 "},"З":{"x_min":44,"x_max":693,"ha":751,"o":"m 44 17 l 44 142 q 316 84 201 84 q 480 135 419 84 q 542 272 542 186 q 461 430 542 376 q 225 484 380 484 l 205 484 l 205 584 l 224 584 q 440 634 363 584 q 517 777 517 685 q 310 924 517 924 q 61 872 202 924 l 61 987 q 317 1029 190 1029 q 572 966 482 1029 q 663 788 663 903 q 444 545 663 609 q 627 457 562 526 q 693 285 693 388 q 585 64 693 153 q 319 -25 478 -25 q 44 17 176 -25 "},"≵":{"x_min":151,"x_max":954,"ha":1104,"o":"m 554 741 l 642 1004 l 713 1004 l 617 717 l 954 582 l 512 405 l 442 192 l 446 190 q 554 145 490 174 l 614 118 q 797 54 757 54 q 912 200 895 54 l 954 200 q 775 -16 940 -16 q 594 40 718 -16 l 554 58 l 493 85 q 417 116 479 91 l 355 -67 l 285 -67 l 353 139 q 307 146 328 146 q 225 103 258 146 q 193 0 193 61 l 151 0 q 331 216 161 216 q 377 211 352 216 l 431 372 l 151 261 l 151 332 l 459 456 l 533 678 l 151 831 l 151 903 l 554 741 m 540 488 l 772 582 l 595 653 l 540 488 "},"∍":{"x_min":151,"x_max":773,"ha":923,"o":"m 244 714 q 482 753 381 753 q 696 672 619 753 q 773 448 773 592 q 640 119 773 256 q 319 -17 507 -17 q 151 6 244 -17 l 166 84 q 336 56 242 56 q 609 326 533 56 l 256 326 l 266 376 l 620 376 q 626 457 626 423 q 452 671 626 671 q 221 627 348 671 l 244 714 "},"⊅":{"x_min":151,"x_max":954,"ha":1104,"o":"m 306 67 l 530 736 l 151 736 l 151 803 l 553 803 l 603 954 l 673 954 l 620 797 q 860 660 766 771 q 954 401 954 548 q 836 117 954 234 q 551 0 718 0 l 353 0 l 303 -151 l 234 -151 l 284 0 l 151 0 l 151 67 l 306 67 m 376 67 l 551 67 q 788 164 690 67 q 887 401 887 262 q 806 619 887 526 q 599 732 726 712 l 376 67 "},"≚":{"x_min":151,"x_max":954,"ha":1104,"o":"m 151 251 l 151 318 l 954 318 l 954 251 l 151 251 m 151 0 l 151 67 l 954 67 l 954 0 l 151 0 m 854 1004 l 552 401 l 251 1004 l 326 1004 l 553 552 l 779 1004 l 854 1004 "},"Ҷ":{"x_min":54,"x_max":878,"ha":920,"o":"m 602 0 l 602 437 q 342 343 491 343 q 127 424 207 343 q 69 519 84 467 q 54 671 54 571 l 54 1004 l 196 1004 l 196 675 q 236 509 196 558 q 371 460 276 460 q 602 563 502 460 l 602 1004 l 744 1004 l 744 104 l 878 104 l 878 -218 l 744 -218 l 744 0 l 602 0 "},"B":{"x_min":130,"x_max":742,"ha":799,"o":"m 130 0 l 130 1004 l 390 1004 q 621 947 541 1004 q 702 782 702 890 q 648 628 702 696 q 495 523 594 560 q 742 251 742 447 q 687 94 742 162 q 587 21 646 42 q 425 0 529 0 l 130 0 m 271 106 l 300 106 q 502 125 456 106 q 591 264 591 163 q 511 413 591 354 q 311 473 431 473 l 271 473 l 271 106 m 271 563 l 316 563 q 493 611 431 563 q 556 751 556 660 q 326 898 556 898 l 271 898 l 271 563 "},"∝":{"x_min":151,"x_max":1155,"ha":1306,"o":"m 640 335 q 381 116 527 116 q 218 194 286 116 q 151 384 151 273 q 222 597 151 508 q 394 686 293 686 q 530 636 470 686 q 671 459 590 587 q 924 686 799 686 l 1155 686 l 1155 627 l 924 627 q 807 582 856 627 q 700 423 759 538 q 924 216 845 216 l 1155 216 l 1155 116 l 924 116 q 787 158 842 116 q 640 335 732 200 m 611 371 q 376 583 473 583 q 270 520 315 583 q 225 370 225 457 q 271 235 225 289 q 388 182 318 182 q 611 371 513 182 "},"В":{"x_min":130,"x_max":742,"ha":799,"o":"m 130 0 l 130 1004 l 390 1004 q 621 947 541 1004 q 702 782 702 890 q 648 628 702 696 q 495 523 594 560 q 742 251 742 447 q 687 94 742 162 q 587 21 646 42 q 425 0 529 0 l 130 0 m 271 106 l 300 106 q 502 125 456 106 q 591 264 591 163 q 511 413 591 354 q 311 473 431 473 l 271 473 l 271 106 m 271 563 l 316 563 q 493 611 431 563 q 556 751 556 660 q 326 898 556 898 l 271 898 l 271 563 "},"І":{"x_min":129,"x_max":271,"ha":400,"o":"m 129 0 l 129 1004 l 271 1004 l 271 0 l 129 0 "},"H":{"x_min":130,"x_max":892,"ha":1021,"o":"m 130 0 l 130 1004 l 272 1004 l 272 581 l 750 581 l 750 1004 l 892 1004 l 892 0 l 750 0 l 750 475 l 272 475 l 272 0 l 130 0 "},"⊛":{"x_min":134,"x_max":971,"ha":1104,"o":"m 552 -17 q 256 105 378 -17 q 134 401 134 227 q 256 697 134 575 q 552 820 378 820 q 848 697 726 820 q 971 401 971 575 q 848 105 971 227 q 552 -17 726 -17 m 552 50 q 801 153 698 50 q 904 401 904 256 q 801 650 904 547 q 552 753 698 753 q 303 650 406 753 q 201 401 201 547 q 304 153 201 256 q 552 50 407 50 m 519 200 l 535 372 l 395 271 l 362 329 l 519 400 l 362 472 l 395 530 l 535 430 l 519 602 l 586 602 l 569 430 l 709 530 l 743 472 l 586 400 l 743 329 l 709 271 l 569 372 l 586 200 l 519 200 "},"⋏":{"x_min":151,"x_max":954,"ha":1104,"o":"m 552 539 q 419 204 532 357 q 151 0 305 52 l 151 75 q 419 334 320 140 q 519 794 519 528 l 519 803 l 586 803 l 586 794 q 685 333 586 528 q 954 75 784 139 l 954 0 q 686 203 800 50 q 552 539 572 356 "},"⋂":{"x_min":151,"x_max":954,"ha":1104,"o":"m 954 0 l 820 0 l 820 401 q 741 590 820 512 q 552 669 663 669 q 363 590 442 669 q 285 401 285 512 l 285 0 l 151 0 l 151 401 q 268 685 151 568 q 552 803 386 803 q 836 685 719 803 q 954 401 954 568 l 954 0 "},"−":{"x_min":151,"x_max":954,"ha":1104,"o":"m 151 368 l 151 436 l 954 436 l 954 368 l 151 368 "},"⋥":{"x_min":151,"x_max":954,"ha":1104,"o":"m 954 0 l 151 0 l 151 67 l 954 67 l 954 0 m 954 234 l 151 234 l 151 301 l 887 301 l 887 736 l 151 736 l 151 803 l 954 803 l 954 234 m 448 -151 l 553 168 l 624 168 l 518 -151 l 448 -151 "},"≻":{"x_min":151,"x_max":954,"ha":1104,"o":"m 690 401 q 355 535 507 421 q 151 803 203 648 l 226 803 q 485 534 291 633 q 945 435 679 435 l 954 435 l 954 368 l 945 368 q 485 269 679 368 q 226 0 291 170 l 151 0 q 355 267 203 154 q 690 401 508 380 "},"≠":{"x_min":151,"x_max":954,"ha":1104,"o":"m 394 33 l 463 243 l 151 243 l 151 309 l 485 309 l 548 494 l 151 494 l 151 562 l 570 562 l 639 770 l 711 770 l 641 562 l 954 562 l 954 494 l 619 494 l 557 309 l 954 309 l 954 243 l 535 243 l 465 33 l 394 33 "},"Ғ":{"x_min":17,"x_max":729,"ha":783,"o":"m 168 0 l 168 456 l 17 456 l 17 560 l 168 560 l 168 1004 l 729 1004 l 729 898 l 310 898 l 310 560 l 561 560 l 561 456 l 310 456 l 310 0 l 168 0 "},"U":{"x_min":121,"x_max":841,"ha":962,"o":"m 121 1004 l 263 1004 l 263 370 q 318 149 263 218 q 496 81 374 81 q 666 145 616 81 q 716 365 716 210 l 716 1004 l 841 1004 l 841 367 q 815 165 841 236 q 722 41 789 95 q 491 -25 638 -25 q 210 71 300 -25 q 121 371 121 167 l 121 1004 "},"⋕":{"x_min":151,"x_max":954,"ha":1104,"o":"m 151 494 l 151 561 l 394 561 l 394 803 l 461 803 l 461 561 l 645 561 l 645 803 l 712 803 l 712 561 l 954 561 l 954 494 l 712 494 l 712 309 l 954 309 l 954 242 l 712 242 l 712 0 l 645 0 l 645 242 l 461 242 l 461 0 l 394 0 l 394 242 l 151 242 l 151 309 l 394 309 l 394 494 l 151 494 m 461 309 l 645 309 l 645 494 l 461 494 l 461 309 "},"₠":{"x_min":67,"x_max":833,"ha":966,"o":"m 465 0 l 465 293 l 445 293 q 153 402 245 293 q 67 665 67 506 q 162 933 67 837 q 429 1029 257 1029 q 598 1007 517 1029 l 598 895 q 410 929 509 929 q 255 859 310 929 q 201 662 201 790 q 251 469 201 544 q 448 393 304 393 l 465 393 l 465 677 l 833 677 l 833 577 l 599 577 l 599 393 l 833 393 l 833 293 l 599 293 l 599 100 l 833 100 l 833 0 l 465 0 "},"F":{"x_min":130,"x_max":691,"ha":745,"o":"m 130 0 l 130 1004 l 691 1004 l 691 898 l 272 898 l 272 561 l 623 561 l 623 456 l 272 456 l 272 0 l 130 0 "},"ҵ":{"x_min":8,"x_max":912,"ha":962,"o":"m 176 0 l 176 637 l 8 637 l 8 737 l 478 737 l 478 637 l 310 637 l 310 117 l 644 117 l 644 737 l 778 737 l 778 117 l 912 117 l 912 -168 l 778 -168 l 778 0 l 176 0 "},"∸":{"x_min":151,"x_max":954,"ha":1104,"o":"m 151 369 l 151 436 l 954 436 l 954 369 l 151 369 m 485 619 l 485 753 l 619 753 l 619 619 l 485 619 "},"*":{"x_min":75,"x_max":595,"ha":669,"o":"m 564 875 l 595 779 l 389 734 l 391 744 q 371 790 391 772 l 564 875 m 527 568 l 445 510 l 339 691 q 386 725 373 695 l 527 568 m 224 510 l 143 568 l 282 725 q 330 691 296 695 l 224 510 m 75 779 l 106 875 l 298 790 q 278 744 278 773 l 280 734 l 75 779 m 285 1004 l 385 1004 l 364 795 q 335 803 351 803 q 305 795 318 803 l 285 1004 "},"Ќ":{"x_min":130,"x_max":781,"ha":823,"o":"m 272 465 l 272 0 l 130 0 l 130 1004 l 272 1004 l 272 571 l 278 571 q 363 598 334 571 q 462 745 391 625 l 504 819 l 540 881 q 620 977 580 949 q 722 1004 661 1004 l 740 1004 l 740 900 q 729 900 732 900 q 619 798 676 900 l 593 750 l 572 713 q 492 586 520 621 q 422 525 465 551 q 536 455 495 501 q 638 284 577 409 l 673 214 q 711 135 679 201 q 781 0 747 58 l 630 0 l 619 21 l 575 109 l 518 226 q 341 465 431 404 l 272 465 m 323 1088 l 486 1306 l 641 1306 l 423 1088 l 323 1088 "},"⋩":{"x_min":151,"x_max":954,"ha":1104,"o":"m 535 154 l 586 308 l 657 308 l 596 126 l 614 118 q 797 54 757 54 q 912 200 895 54 l 954 200 q 774 -16 940 -16 q 593 40 717 -16 l 582 45 l 571 50 l 518 -108 l 448 -108 l 509 78 l 493 85 q 307 146 357 146 q 225 103 258 146 q 193 0 193 61 l 151 0 q 328 216 161 216 q 527 156 396 216 l 535 154 m 690 662 q 355 796 508 682 q 151 1064 203 910 l 226 1064 q 485 795 291 894 q 945 696 679 696 l 954 696 l 954 629 l 945 629 q 485 529 679 629 q 226 261 291 430 l 151 261 q 355 528 203 414 q 690 662 507 642 "},"∕":{"x_min":151,"x_max":578,"ha":728,"o":"m 151 -201 l 507 1004 l 578 1004 l 221 -201 l 151 -201 "},"∺":{"x_min":151,"x_max":954,"ha":1104,"o":"m 820 51 l 820 185 l 954 185 l 954 51 l 820 51 m 151 51 l 151 185 l 285 185 l 285 51 l 151 51 m 151 369 l 151 436 l 954 436 l 954 369 l 151 369 m 820 619 l 820 753 l 954 753 l 954 619 l 820 619 m 151 619 l 151 753 l 285 753 l 285 619 l 151 619 "},"0":{"x_min":88,"x_max":791,"ha":878,"o":"m 439 -25 q 184 119 281 -25 q 88 502 88 264 q 184 884 88 739 q 439 1029 281 1029 q 694 884 598 1029 q 791 502 791 740 q 694 119 791 264 q 439 -25 598 -25 m 439 75 q 649 502 649 75 q 439 929 649 929 q 230 502 230 929 q 439 75 230 75 "},"]":{"x_min":50,"x_max":318,"ha":452,"o":"m 318 1071 l 318 -201 l 50 -201 l 50 -101 l 201 -101 l 201 971 l 50 971 l 50 1071 l 318 1071 "},"А":{"x_min":12,"x_max":943,"ha":958,"o":"m 12 0 l 410 1004 l 551 1004 l 943 0 l 790 0 l 681 278 l 254 278 l 144 0 l 12 0 m 296 384 l 639 384 l 468 817 l 296 384 "},"⋋":{"x_min":151,"x_max":954,"ha":1104,"o":"m 151 47 l 505 401 l 151 756 l 198 803 l 954 47 l 907 0 l 552 354 l 198 0 l 151 47 "},"₥":{"x_min":134,"x_max":1172,"ha":1297,"o":"m 134 0 l 134 737 l 268 737 l 268 598 q 518 753 365 753 q 706 635 655 753 l 891 1004 l 985 1004 l 842 720 q 967 753 899 753 q 1118 696 1064 753 q 1172 535 1172 639 l 1172 0 l 1038 0 l 1038 514 q 938 641 1038 641 q 745 525 841 641 l 720 474 l 720 0 l 586 0 l 586 207 l 414 -134 l 321 -134 l 586 395 l 586 515 q 484 642 586 642 q 268 494 383 642 l 268 0 l 134 0 "},"Ы":{"x_min":130,"x_max":988,"ha":1117,"o":"m 130 0 l 130 1004 l 272 1004 l 272 573 l 348 573 q 522 563 468 573 q 625 522 576 553 q 741 305 741 448 q 610 56 741 138 q 312 0 520 0 l 130 0 m 272 104 l 322 104 q 526 146 469 104 q 599 296 599 199 q 538 428 599 387 q 342 469 477 469 l 272 469 l 272 104 m 846 0 l 846 1004 l 988 1004 l 988 0 l 846 0 "},"≢":{"x_min":151,"x_max":954,"ha":1104,"o":"m 151 117 l 151 184 l 445 184 l 506 368 l 151 368 l 151 435 l 528 435 l 589 619 l 151 619 l 151 686 l 611 686 l 667 854 l 738 854 l 682 686 l 954 686 l 954 619 l 660 619 l 598 435 l 954 435 l 954 368 l 576 368 l 515 184 l 954 184 l 954 117 l 493 117 l 437 -51 l 367 -51 l 422 117 l 151 117 "},"Ҙ":{"x_min":44,"x_max":693,"ha":751,"o":"m 44 17 l 44 142 q 316 84 201 84 q 480 135 419 84 q 542 272 542 186 q 461 430 542 376 q 225 484 380 484 l 205 484 l 205 584 l 224 584 q 440 634 363 584 q 517 777 517 685 q 310 924 517 924 q 61 872 202 924 l 61 987 q 317 1029 190 1029 q 572 966 482 1029 q 663 788 663 903 q 444 545 663 609 q 627 457 562 526 q 693 285 693 388 q 585 64 693 153 q 319 -25 478 -25 q 44 17 176 -25 m 290 0 l 356 0 l 314 -73 q 406 -105 366 -73 q 446 -180 446 -137 q 406 -260 446 -227 q 309 -293 366 -293 q 211 -278 261 -293 l 211 -223 q 282 -234 242 -234 q 352 -183 352 -234 q 225 -118 352 -118 l 290 0 "},"8":{"x_min":120,"x_max":791,"ha":878,"o":"m 319 546 q 204 653 236 604 q 172 772 172 702 q 255 957 172 886 q 473 1029 338 1029 q 674 968 597 1029 q 751 812 751 908 q 563 546 751 666 q 791 259 791 435 q 696 54 791 134 q 452 -25 601 -25 q 211 49 303 -25 q 120 246 120 124 q 319 546 120 427 m 489 588 q 630 794 630 680 q 582 891 630 854 q 459 929 535 929 q 339 892 385 929 q 293 798 293 856 q 334 697 293 742 q 489 588 376 652 m 391 492 q 282 383 311 429 q 254 267 254 336 q 309 128 254 181 q 455 75 364 75 q 597 120 542 75 q 653 238 653 165 q 618 337 653 296 q 486 435 584 377 l 391 492 "},"⊔":{"x_min":151,"x_max":954,"ha":1104,"o":"m 954 803 l 954 0 l 151 0 l 151 803 l 218 803 l 218 67 l 887 67 l 887 803 l 954 803 "},"≭":{"x_min":151,"x_max":954,"ha":1104,"o":"m 519 233 q 193 100 300 216 l 151 100 q 519 316 290 303 l 519 486 l 514 486 q 151 702 289 500 l 193 702 q 519 569 300 584 l 519 870 l 586 870 l 586 569 q 912 702 806 586 l 954 702 q 590 486 815 500 l 586 486 l 586 316 q 954 100 814 303 l 912 100 q 586 233 804 216 l 586 -67 l 519 -67 l 519 233 "},"R":{"x_min":130,"x_max":864,"ha":878,"o":"m 130 0 l 130 1004 l 433 1004 q 655 940 578 1004 q 732 755 732 876 q 678 585 732 659 q 529 470 625 510 l 864 0 l 689 0 l 404 425 l 271 425 l 271 0 l 130 0 m 271 531 l 317 531 q 517 584 448 531 q 586 741 586 638 q 360 898 586 898 l 271 898 l 271 531 "},"⊁":{"x_min":151,"x_max":954,"ha":1104,"o":"m 414 224 l 409 221 q 226 0 270 116 l 151 0 q 414 305 214 189 l 414 497 q 151 803 215 611 l 226 803 q 409 581 272 682 l 414 578 l 414 870 l 481 870 l 481 536 l 485 534 q 945 435 667 435 l 954 435 l 954 368 l 945 368 q 485 268 667 368 l 481 266 l 481 -67 l 414 -67 l 414 224 m 481 462 l 481 340 l 485 342 l 493 346 q 690 401 585 389 q 481 462 579 413 "},"o":{"x_min":75,"x_max":778,"ha":853,"o":"m 426 -17 q 169 86 264 -17 q 75 368 75 190 q 169 649 75 546 q 426 753 264 753 q 683 649 588 753 q 778 368 778 546 q 683 86 778 190 q 426 -17 588 -17 m 426 83 q 580 157 525 83 q 636 368 636 232 q 580 578 636 504 q 426 653 525 653 q 271 578 326 653 q 217 368 217 504 q 271 157 217 232 q 426 83 326 83 "},"5":{"x_min":169,"x_max":714,"ha":878,"o":"m 169 -4 l 169 115 q 359 75 268 75 q 515 133 458 75 q 572 294 572 191 q 491 462 572 404 q 260 521 411 521 q 186 516 224 521 l 186 1004 l 694 1004 l 694 887 l 303 887 l 303 623 q 605 534 496 623 q 714 287 714 445 q 615 58 714 141 q 342 -25 516 -25 q 169 -4 265 -25 "},"≝":{"x_min":151,"x_max":954,"ha":1104,"o":"m 151 0 l 151 67 l 954 67 l 954 0 l 151 0 m 151 251 l 151 318 l 954 318 l 954 251 l 151 251 m 376 469 l 376 525 q 274 462 342 462 q 158 610 158 462 q 193 731 158 685 q 287 778 228 778 q 376 736 340 778 l 376 908 l 431 908 l 431 469 l 376 469 m 376 698 q 294 736 333 736 q 216 615 216 736 q 286 510 216 510 q 376 559 332 510 l 376 698 m 727 478 q 632 462 672 462 q 524 506 566 462 q 482 621 482 550 q 518 733 482 689 q 613 778 555 778 q 728 627 728 778 l 728 611 l 537 611 q 642 504 549 504 q 727 521 677 504 l 727 478 m 540 652 l 673 652 q 609 736 673 736 q 540 652 547 736 m 794 469 l 794 729 l 751 729 l 751 771 l 794 771 l 794 807 q 891 915 794 915 q 954 906 919 915 l 954 862 q 895 873 917 873 q 849 812 849 873 l 849 771 l 924 771 l 924 729 l 849 729 l 849 469 l 794 469 "},"Ң":{"x_min":130,"x_max":1026,"ha":1068,"o":"m 130 0 l 130 1004 l 272 1004 l 272 581 l 750 581 l 750 1004 l 892 1004 l 892 104 l 1026 104 l 1026 -218 l 892 -218 l 892 0 l 750 0 l 750 475 l 272 475 l 272 0 l 130 0 "},"≶":{"x_min":151,"x_max":954,"ha":1104,"o":"m 151 538 l 954 216 l 151 -104 l 151 -32 l 773 216 l 151 465 l 151 538 m 954 1004 l 954 931 l 333 682 l 954 433 l 954 361 l 151 682 l 954 1004 "},"₩":{"x_min":34,"x_max":1420,"ha":1453,"o":"m 476 214 l 549 519 l 397 519 l 476 214 m 913 519 l 981 221 l 1066 519 l 913 519 m 758 602 l 727 737 l 709 737 l 677 602 l 758 602 m 894 602 l 1088 602 l 1127 737 l 863 737 l 894 602 m 570 602 l 601 737 l 341 737 l 376 602 l 570 602 m 533 0 l 392 0 l 258 519 l 34 519 l 34 602 l 238 602 l 203 737 l 34 737 l 34 820 l 181 820 l 134 1004 l 272 1004 l 319 820 l 621 820 l 665 1004 l 802 1004 l 844 820 l 1150 820 l 1202 1004 l 1319 1004 l 1267 820 l 1420 820 l 1420 737 l 1244 737 l 1206 602 l 1420 602 l 1420 519 l 1183 519 l 1038 0 l 896 0 l 777 519 l 657 519 l 533 0 "},"Ѕ":{"x_min":68,"x_max":679,"ha":748,"o":"m 68 19 l 68 160 q 347 81 237 81 q 481 125 430 81 q 533 241 533 170 q 499 341 533 300 q 375 434 465 383 l 306 474 q 125 612 178 547 q 73 762 73 676 q 157 954 73 879 q 371 1029 241 1029 q 617 990 487 1029 l 617 860 q 379 923 457 923 q 257 883 305 923 q 209 784 209 844 q 244 695 209 734 q 373 603 279 656 l 445 562 q 627 422 575 488 q 679 264 679 356 q 582 54 679 133 q 327 -25 486 -25 q 68 19 225 -25 "},"≇":{"x_min":151,"x_max":954,"ha":1104,"o":"m 428 117 l 489 301 l 151 301 l 151 368 l 512 368 l 587 595 l 553 610 l 492 638 q 308 699 358 699 q 225 656 258 699 q 193 551 193 614 l 151 551 q 328 768 161 768 q 554 697 399 768 l 613 671 l 679 870 l 750 870 l 674 644 l 679 641 q 798 606 762 606 q 912 752 895 606 l 954 752 q 775 536 940 536 q 653 566 726 536 l 649 568 l 582 368 l 954 368 l 954 301 l 560 301 l 499 117 l 954 117 l 954 50 l 476 50 l 426 -101 l 356 -101 l 406 50 l 151 50 l 151 117 l 428 117 "},"ҭ":{"x_min":8,"x_max":678,"ha":686,"o":"m 276 0 l 276 620 l 8 620 l 8 737 l 678 737 l 678 620 l 410 620 l 410 117 l 544 117 l 544 -168 l 410 -168 l 410 0 l 276 0 "},",":{"x_min":136,"x_max":304,"ha":439,"o":"m 136 -218 l 136 -168 q 202 -13 202 -149 l 202 0 l 136 0 l 136 168 l 304 168 l 304 22 q 136 -218 304 -201 "},"d":{"x_min":75,"x_max":740,"ha":874,"o":"m 606 0 l 606 138 q 360 -17 524 -17 q 151 80 227 -17 q 75 345 75 177 q 161 641 75 529 q 388 753 247 753 q 606 652 519 753 l 606 1071 l 740 1071 l 740 0 l 606 0 m 606 561 q 409 653 502 653 q 267 576 317 653 q 217 358 217 499 q 388 100 217 100 q 606 221 499 100 l 606 561 "},"ғ":{"x_min":34,"x_max":670,"ha":686,"o":"m 134 0 l 134 311 l 34 311 l 34 394 l 134 394 l 134 737 l 670 737 l 670 620 l 268 620 l 268 394 l 502 394 l 502 311 l 268 311 l 268 0 l 134 0 "},"ѣ":{"x_min":17,"x_max":704,"ha":766,"o":"m 335 100 l 388 100 q 562 222 562 100 q 390 335 562 335 l 335 335 l 335 100 m 201 0 l 201 653 l 17 653 l 17 737 l 201 737 l 201 1071 l 335 1071 l 335 737 l 552 737 l 552 653 l 335 653 l 335 440 l 399 440 q 704 225 704 440 q 379 0 704 0 l 201 0 "},"⋗":{"x_min":151,"x_max":954,"ha":1104,"o":"m 151 0 l 151 74 l 803 401 l 151 728 l 151 803 l 954 401 l 151 0 m 352 335 l 218 335 l 218 469 l 352 469 l 352 335 "},"⋌":{"x_min":151,"x_max":954,"ha":1104,"o":"m 151 47 l 907 803 l 954 756 l 599 401 l 954 47 l 907 0 l 552 354 l 198 0 l 151 47 "},"∘":{"x_min":151,"x_max":628,"ha":779,"o":"m 151 401 q 220 570 151 500 q 389 640 290 640 q 558 570 488 640 q 628 401 628 500 q 558 232 628 302 q 389 163 488 163 q 220 232 290 163 q 151 401 151 302 m 218 401 q 268 280 218 330 q 389 230 318 230 q 510 280 460 230 q 561 401 561 330 q 510 522 561 472 q 389 573 460 573 q 268 522 318 573 q 218 401 218 472 "},"\"":{"x_min":75,"x_max":443,"ha":519,"o":"m 92 737 l 75 1071 l 209 1071 l 193 737 l 92 737 m 326 737 l 309 1071 l 443 1071 l 426 737 l 326 737 "},"⊃":{"x_min":151,"x_max":954,"ha":1104,"o":"m 151 0 l 151 67 l 552 67 q 789 164 691 67 q 887 401 887 262 q 789 638 887 540 q 552 736 691 736 l 151 736 l 151 803 l 552 803 q 836 685 719 803 q 954 401 954 568 q 836 117 954 234 q 552 0 719 0 l 151 0 "},"ч":{"x_min":54,"x_max":594,"ha":728,"o":"m 460 0 l 460 288 q 299 255 380 255 q 107 323 161 255 q 54 570 54 392 l 54 737 l 188 737 l 188 544 q 217 393 188 433 q 325 353 246 353 q 460 386 400 353 l 460 737 l 594 737 l 594 0 l 460 0 "},"⊳":{"x_min":151,"x_max":954,"ha":1104,"o":"m 954 0 l 151 401 l 954 803 l 954 0 m 887 108 l 887 695 l 301 401 l 887 108 "},"∼":{"x_min":151,"x_max":954,"ha":1104,"o":"m 193 301 l 151 301 q 327 518 161 518 q 554 447 397 518 l 613 420 q 797 356 757 356 q 912 502 895 356 l 954 502 q 774 286 940 286 q 593 342 719 286 l 553 360 l 492 387 q 308 449 357 449 q 225 406 258 449 q 193 301 193 364 "},"ҫ":{"x_min":75,"x_max":645,"ha":711,"o":"m 645 22 q 421 -17 515 -17 q 173 93 271 -17 q 75 372 75 204 q 172 652 75 552 q 444 753 269 753 q 637 729 530 753 l 637 617 q 452 651 523 651 q 287 573 349 651 q 226 368 226 496 q 289 167 226 244 q 456 91 353 91 q 645 137 548 91 l 645 22 m 405 0 l 471 0 l 429 -73 q 521 -105 481 -73 q 561 -180 561 -137 q 521 -260 561 -227 q 424 -293 481 -293 q 326 -278 376 -293 l 326 -223 q 397 -234 357 -234 q 467 -183 467 -234 q 340 -118 467 -118 l 405 0 "},"ҙ":{"x_min":58,"x_max":591,"ha":667,"o":"m 58 15 l 58 128 q 275 87 163 87 q 402 122 353 87 q 451 215 451 158 q 236 350 451 350 l 219 350 l 219 438 l 241 438 q 432 544 432 438 q 261 651 432 651 q 71 614 175 651 l 71 722 q 284 753 167 753 q 493 705 418 753 q 568 573 568 658 q 433 395 568 467 q 591 214 591 347 q 499 48 591 114 q 270 -17 408 -17 q 58 15 181 -17 m 254 0 l 320 0 l 279 -73 q 371 -105 331 -73 q 410 -180 410 -137 q 371 -260 410 -227 q 274 -293 331 -293 q 175 -278 225 -293 l 175 -223 q 246 -234 206 -234 q 316 -183 316 -234 q 189 -118 316 -118 l 254 0 "},"⋖":{"x_min":151,"x_max":954,"ha":1104,"o":"m 954 0 l 151 401 l 954 803 l 954 728 l 302 401 l 954 74 l 954 0 m 754 335 l 754 469 l 888 469 l 888 335 l 754 335 "},"⋄":{"x_min":151,"x_max":954,"ha":1104,"o":"m 552 0 l 151 401 l 552 803 l 954 401 l 552 0 m 552 94 l 859 401 l 552 708 l 245 401 l 552 94 "},"⊩":{"x_min":151,"x_max":954,"ha":1104,"o":"m 151 0 l 151 803 l 218 803 l 218 0 l 151 0 m 352 0 l 352 803 l 419 803 l 419 435 l 954 435 l 954 368 l 419 368 l 419 0 l 352 0 "},"≱":{"x_min":151,"x_max":954,"ha":1104,"o":"m 431 111 l 355 -116 l 285 -116 l 350 79 l 151 0 l 151 71 l 378 162 l 440 350 l 151 235 l 151 306 l 468 433 l 539 649 l 151 805 l 151 877 l 561 712 l 642 955 l 713 955 l 623 688 l 954 555 l 522 382 l 459 195 l 954 393 l 954 321 l 431 111 m 549 465 l 772 555 l 602 624 l 549 465 "},"≞":{"x_min":151,"x_max":954,"ha":1104,"o":"m 151 0 l 151 67 l 954 67 l 954 0 l 151 0 m 151 251 l 151 318 l 954 318 l 954 251 l 151 251 m 293 469 l 293 824 l 360 824 l 360 755 q 485 833 408 833 q 586 755 558 833 q 709 833 632 833 q 812 723 812 833 l 812 469 l 745 469 l 745 713 q 694 777 745 777 q 586 703 642 777 l 586 469 l 519 469 l 519 713 q 468 777 519 777 q 360 703 417 777 l 360 469 l 293 469 "},"⊽":{"x_min":151,"x_max":954,"ha":1104,"o":"m 151 736 l 151 803 l 954 803 l 954 736 l 151 736 m 854 602 l 552 0 l 251 602 l 326 602 l 552 151 l 779 602 l 854 602 "},"И":{"x_min":130,"x_max":900,"ha":1029,"o":"m 130 0 l 130 1004 l 272 1004 l 272 203 l 757 1004 l 900 1004 l 900 0 l 758 0 l 758 800 l 272 0 l 130 0 "},"≉":{"x_min":151,"x_max":954,"ha":1104,"o":"m 465 248 l 461 249 q 308 297 346 297 q 225 254 258 297 q 193 150 193 212 l 151 150 q 327 367 161 367 q 486 325 387 367 l 491 323 l 553 510 l 492 538 q 308 599 358 599 q 225 556 258 599 q 193 451 193 514 l 151 451 q 328 668 161 668 q 554 597 397 668 l 579 586 l 640 770 l 711 770 l 640 558 l 648 555 q 798 506 759 506 q 912 652 895 506 l 954 652 q 775 436 940 436 q 619 481 720 436 l 615 482 l 554 296 l 614 269 q 798 205 757 205 q 912 351 895 205 l 954 351 q 775 135 940 135 q 593 191 718 135 l 553 209 l 527 221 l 464 33 l 394 33 l 465 248 "},"Љ":{"x_min":21,"x_max":1314,"ha":1364,"o":"m 845 104 l 895 104 q 1099 146 1042 104 q 1172 296 1172 199 q 1111 428 1172 387 q 915 469 1050 469 l 845 469 l 845 104 m 21 0 l 21 125 q 212 280 166 145 q 260 940 260 420 l 260 1004 l 845 1004 l 845 573 l 922 573 q 1095 563 1041 573 q 1199 522 1149 553 q 1314 305 1314 449 q 1183 56 1314 138 q 885 0 1094 0 l 703 0 l 703 900 l 402 900 l 402 877 q 350 255 402 420 q 235 72 311 131 q 21 0 160 13 "},"⊎":{"x_min":151,"x_max":954,"ha":1104,"o":"m 519 234 l 519 402 l 351 402 l 351 469 l 519 469 l 519 637 l 586 637 l 586 469 l 753 469 l 753 402 l 586 402 l 586 234 l 519 234 m 954 803 l 954 401 q 836 117 954 235 q 552 0 719 0 q 268 117 385 0 q 151 401 151 234 l 151 803 l 218 803 l 218 401 q 315 165 218 263 q 552 67 413 67 q 789 165 691 67 q 887 401 887 263 l 887 803 l 954 803 "},"р":{"x_min":134,"x_max":799,"ha":874,"o":"m 134 -268 l 134 737 l 268 737 l 268 598 q 513 753 349 753 q 722 655 646 753 q 799 390 799 558 q 712 95 799 207 q 485 -17 626 -17 q 268 83 354 -17 l 268 -268 l 134 -268 m 268 175 q 464 83 371 83 q 606 160 556 83 q 657 376 657 237 q 486 636 657 636 q 268 514 374 636 l 268 175 "},"т":{"x_min":8,"x_max":678,"ha":686,"o":"m 276 0 l 276 620 l 8 620 l 8 737 l 678 737 l 678 620 l 410 620 l 410 0 l 276 0 "},"П":{"x_min":130,"x_max":892,"ha":1021,"o":"m 130 0 l 130 1004 l 892 1004 l 892 0 l 750 0 l 750 898 l 272 898 l 272 0 l 130 0 "},"z":{"x_min":83,"x_max":712,"ha":796,"o":"m 83 0 l 83 100 l 537 637 l 104 637 l 104 737 l 703 737 l 703 637 l 248 100 l 712 100 l 712 0 l 83 0 "},"⊡":{"x_min":151,"x_max":954,"ha":1104,"o":"m 151 0 l 151 803 l 954 803 l 954 0 l 151 0 m 218 67 l 887 67 l 887 736 l 218 736 l 218 67 m 485 335 l 485 469 l 619 469 l 619 335 l 485 335 "},"⊒":{"x_min":151,"x_max":954,"ha":1104,"o":"m 954 0 l 151 0 l 151 67 l 954 67 l 954 0 m 954 234 l 151 234 l 151 301 l 887 301 l 887 736 l 151 736 l 151 803 l 954 803 l 954 234 "},"Ҵ":{"x_min":8,"x_max":1172,"ha":1214,"o":"m 276 0 l 276 898 l 8 898 l 8 1004 l 651 1004 l 651 898 l 418 898 l 418 125 l 896 125 l 896 1004 l 1038 1004 l 1038 125 l 1172 125 l 1172 -218 l 1038 -218 l 1038 0 l 276 0 "},"ұ":{"x_min":8,"x_max":665,"ha":674,"o":"m 264 0 l 264 155 l 71 155 l 71 239 l 264 239 l 264 309 l 8 737 l 159 737 l 348 420 l 547 737 l 665 737 l 398 309 l 398 239 l 590 239 l 590 155 l 398 155 l 398 0 l 264 0 "},"и":{"x_min":134,"x_max":736,"ha":870,"o":"m 134 0 l 134 737 l 259 737 l 259 179 l 602 737 l 736 737 l 736 0 l 611 0 l 611 557 l 268 0 l 134 0 "},"~":{"x_min":71,"x_max":808,"ha":878,"o":"m 71 301 q 123 461 71 399 q 258 524 175 524 q 404 475 312 524 l 477 437 l 564 390 q 625 376 594 376 q 684 409 661 376 q 708 496 708 443 l 708 501 l 808 501 q 627 276 793 276 q 460 330 566 276 l 384 369 l 304 411 q 255 424 279 424 q 194 389 218 424 q 171 301 171 355 l 71 301 "},"≅":{"x_min":151,"x_max":954,"ha":1104,"o":"m 151 50 l 151 117 l 954 117 l 954 50 l 151 50 m 151 301 l 151 368 l 954 368 l 954 301 l 151 301 m 193 551 l 151 551 q 327 768 161 768 q 554 697 398 768 l 613 670 q 798 606 756 606 q 912 752 895 606 l 954 752 q 774 536 940 536 q 593 592 719 536 l 553 610 l 492 638 q 308 699 358 699 q 225 656 258 699 q 193 551 193 614 "},"[":{"x_min":134,"x_max":402,"ha":452,"o":"m 134 -201 l 134 1071 l 402 1071 l 402 971 l 251 971 l 251 -101 l 402 -101 l 402 -201 l 134 -201 "},"Ҝ":{"x_min":130,"x_max":949,"ha":1007,"o":"m 272 465 l 272 0 l 130 0 l 130 1004 l 272 1004 l 272 571 l 373 571 l 373 772 l 456 772 l 456 571 l 461 571 q 534 601 504 571 q 630 745 563 631 l 673 819 l 708 881 q 788 977 748 949 q 891 1004 829 1004 l 908 1004 l 908 900 q 897 900 901 900 q 787 798 844 900 l 761 750 l 740 713 q 661 586 688 621 q 590 525 633 551 q 704 455 663 501 q 807 284 745 409 l 841 214 q 879 135 847 201 q 949 0 915 58 l 798 0 l 787 21 l 743 109 l 686 226 q 508 465 599 404 l 456 465 l 456 263 l 373 263 l 373 465 l 272 465 "},"⊌":{"x_min":151,"x_max":954,"ha":1104,"o":"m 151 803 l 218 803 l 218 401 q 315 165 218 263 q 552 67 413 67 q 743 126 657 67 q 865 285 828 186 q 882 353 875 310 q 887 402 890 395 l 637 402 l 637 302 l 502 435 l 637 569 l 637 469 l 887 469 l 887 803 l 954 803 l 954 401 q 836 117 954 235 q 552 0 719 0 q 268 117 385 0 q 151 401 151 234 l 151 803 "},"К":{"x_min":130,"x_max":781,"ha":823,"o":"m 272 465 l 272 0 l 130 0 l 130 1004 l 272 1004 l 272 571 l 278 571 q 363 598 334 571 q 462 745 391 625 l 504 819 l 540 881 q 620 977 580 949 q 722 1004 661 1004 l 740 1004 l 740 900 q 729 900 732 900 q 619 798 676 900 l 593 750 l 572 713 q 492 586 520 621 q 422 525 465 551 q 536 455 495 501 q 638 284 577 409 l 673 214 q 711 135 679 201 q 781 0 747 58 l 630 0 l 619 21 l 575 109 l 518 226 q 341 465 431 404 l 272 465 "},"∮":{"x_min":150,"x_max":703,"ha":853,"o":"m 480 177 l 479 160 q 275 -201 452 -201 q 175 -109 175 -201 q 238 -38 175 -38 q 294 -97 294 -38 q 272 -142 294 -120 q 299 -151 285 -151 q 376 5 376 -151 l 374 106 l 372 160 l 372 177 q 211 273 272 199 q 150 447 150 347 q 211 622 150 547 q 372 718 273 697 l 374 749 q 577 1096 394 1096 q 678 1004 678 1096 q 616 933 678 933 q 558 991 558 933 q 579 1037 558 1018 q 553 1046 563 1046 q 475 895 475 1046 l 478 790 l 479 749 l 480 718 q 641 622 579 696 q 703 447 703 547 q 641 273 703 347 q 480 177 580 198 m 370 229 l 369 253 l 368 334 l 368 560 l 369 655 l 369 666 q 200 447 200 615 q 370 229 200 281 m 482 666 l 482 648 l 485 560 l 485 334 l 483 229 q 653 447 653 281 q 482 666 653 614 "},"%":{"x_min":8,"x_max":920,"ha":928,"o":"m 16 -25 l 806 1029 l 911 1029 l 121 -25 l 16 -25 m 221 502 q 65 569 123 502 q 8 753 8 637 q 65 936 8 869 q 221 1004 123 1004 q 377 936 319 1004 q 435 753 435 869 q 377 569 435 637 q 221 502 319 502 m 221 570 q 304 619 273 570 q 335 753 335 669 q 304 888 335 838 q 221 938 273 938 q 138 888 169 938 q 108 753 108 838 q 138 619 108 669 q 221 570 169 570 m 706 0 q 550 67 607 0 q 493 251 493 135 q 550 434 493 366 q 706 502 607 502 q 862 434 804 502 q 920 251 920 366 q 862 67 920 135 q 706 0 804 0 m 706 68 q 789 117 758 68 q 820 251 820 166 q 789 386 820 336 q 706 436 758 436 q 623 386 654 436 q 593 251 593 336 q 623 117 593 166 q 706 68 654 68 "},"P":{"x_min":130,"x_max":744,"ha":768,"o":"m 130 0 l 130 1004 l 403 1004 q 585 984 521 1004 q 690 916 649 965 q 744 740 744 852 q 635 489 744 580 q 334 399 526 399 l 271 399 l 271 0 l 130 0 m 271 507 l 328 507 q 524 565 455 507 q 594 731 594 623 q 539 859 594 820 q 358 898 484 898 l 271 898 l 271 507 "},"∿":{"x_min":117,"x_max":987,"ha":1105,"o":"m 184 401 l 117 401 q 218 712 165 621 q 350 803 271 803 q 466 740 419 803 q 552 529 512 677 l 590 385 q 673 134 639 201 q 751 67 707 67 q 873 242 821 67 l 913 378 q 920 401 914 382 l 987 401 q 878 77 923 155 q 754 0 833 0 q 552 269 621 0 l 512 423 l 491 494 l 462 592 q 351 736 420 736 q 270 667 304 736 q 184 401 236 599 "},"∏":{"x_min":151,"x_max":1138,"ha":1289,"o":"m 393 949 l 393 175 q 404 72 393 95 q 459 46 416 48 l 505 42 l 518 42 l 518 0 l 151 0 l 151 42 l 163 42 l 209 46 q 263 72 251 48 q 276 175 276 95 l 276 827 q 263 931 276 907 q 209 957 251 954 l 163 961 l 151 962 l 151 1004 l 1138 1004 l 1138 962 l 1125 961 l 1079 957 q 1030 944 1040 955 q 1017 894 1019 933 l 1013 827 l 1013 175 l 1017 108 q 1030 59 1019 69 q 1079 46 1040 48 l 1125 42 l 1138 42 l 1138 0 l 771 0 l 771 42 l 783 42 l 829 46 q 878 59 868 48 q 891 108 889 69 l 896 175 l 896 949 l 393 949 "},"_":{"x_min":58,"x_max":636,"ha":695,"o":"m 58 -100 l 58 0 l 636 0 l 636 -100 l 58 -100 "},"₣":{"x_min":55,"x_max":758,"ha":878,"o":"m 197 0 l 197 201 l 55 201 l 55 284 l 197 284 l 197 1004 l 758 1004 l 758 898 l 339 898 l 339 561 l 690 561 l 690 456 l 339 456 l 339 284 l 481 284 l 481 201 l 339 201 l 339 0 l 197 0 "},"ѓ":{"x_min":134,"x_max":670,"ha":686,"o":"m 134 0 l 134 737 l 670 737 l 670 620 l 268 620 l 268 0 l 134 0 m 268 871 l 431 1089 l 586 1089 l 368 871 l 268 871 "},"ы":{"x_min":134,"x_max":870,"ha":1004,"o":"m 134 0 l 134 737 l 268 737 l 268 440 l 332 440 q 637 225 637 440 q 312 0 637 0 l 134 0 m 736 0 l 736 737 l 870 737 l 870 0 l 736 0 m 268 100 l 321 100 q 495 224 495 100 q 455 313 495 287 q 323 340 416 340 l 268 340 l 268 100 "},"Ӏ":{"x_min":129,"x_max":271,"ha":400,"o":"m 129 0 l 129 1004 l 271 1004 l 271 0 l 129 0 "},"⋡":{"x_min":151,"x_max":954,"ha":1104,"o":"m 414 665 q 151 971 214 781 l 226 971 q 409 750 272 849 l 414 747 l 414 1038 l 481 1038 l 481 704 l 485 702 q 945 603 667 603 l 954 603 l 954 536 l 945 536 q 485 436 667 536 l 481 434 l 481 67 l 954 67 l 954 0 l 481 0 l 481 -201 l 414 -201 l 414 0 l 151 0 l 151 67 l 414 67 l 414 391 l 409 388 q 226 168 272 288 l 151 168 q 414 473 213 355 l 414 665 m 481 630 l 481 508 l 493 514 q 690 569 585 557 q 493 624 585 581 l 485 628 l 481 630 "},"⊚":{"x_min":134,"x_max":971,"ha":1104,"o":"m 552 -17 q 256 105 378 -17 q 134 401 134 227 q 256 697 134 575 q 552 820 378 820 q 848 697 726 820 q 971 401 971 575 q 848 105 971 227 q 552 -17 726 -17 m 552 50 q 801 153 698 50 q 904 401 904 256 q 801 650 904 547 q 552 753 698 753 q 303 650 406 753 q 201 401 201 547 q 304 153 201 256 q 552 50 407 50 m 552 243 q 440 289 486 243 q 394 401 394 335 q 440 514 394 467 q 552 561 486 561 q 665 514 618 561 q 712 401 712 467 q 665 289 712 335 q 552 243 618 243 m 553 310 q 617 337 590 310 q 645 402 645 364 q 617 466 645 439 q 553 494 590 494 q 488 466 515 494 q 461 402 461 439 q 488 337 461 364 q 553 310 515 310 "},"⋃":{"x_min":151,"x_max":954,"ha":1104,"o":"m 151 803 l 285 803 l 285 401 q 363 212 285 291 q 552 134 442 134 q 741 212 663 134 q 820 401 820 291 l 820 803 l 954 803 l 954 401 q 836 117 954 235 q 552 0 719 0 q 268 117 385 0 q 151 401 151 234 l 151 803 "},"ї":{"x_min":9,"x_max":394,"ha":402,"o":"m 134 0 l 134 737 l 268 737 l 268 0 l 134 0 m 9 871 l 9 988 l 126 988 l 126 871 l 9 871 m 277 871 l 277 988 l 394 988 l 394 871 l 277 871 "},"≨":{"x_min":151,"x_max":954,"ha":1104,"o":"m 512 318 l 562 469 l 633 469 l 582 318 l 954 318 l 954 251 l 560 251 l 499 67 l 954 67 l 954 0 l 476 0 l 426 -151 l 356 -151 l 406 0 l 151 0 l 151 67 l 428 67 l 489 251 l 151 251 l 151 318 l 512 318 m 954 1055 l 954 982 l 333 733 l 954 484 l 954 412 l 151 733 l 954 1055 "},"T":{"x_min":12,"x_max":866,"ha":878,"o":"m 368 0 l 368 898 l 12 898 l 12 1004 l 866 1004 l 866 898 l 510 898 l 510 0 l 368 0 "},"Њ":{"x_min":130,"x_max":1294,"ha":1344,"o":"m 130 0 l 130 1004 l 272 1004 l 272 581 l 683 581 l 683 1004 l 825 1004 l 825 574 l 901 574 q 1075 564 1021 574 q 1178 523 1129 554 q 1294 306 1294 449 q 1163 56 1294 138 q 865 0 1073 0 l 683 0 l 683 475 l 272 475 l 272 0 l 130 0 m 825 104 l 875 104 q 1079 146 1022 104 q 1152 296 1152 199 q 1091 429 1152 388 q 895 470 1030 470 l 825 470 l 825 104 "},"є":{"x_min":75,"x_max":648,"ha":707,"o":"m 648 128 l 648 24 q 431 -17 536 -17 q 171 87 268 -17 q 75 369 75 192 q 171 652 75 552 q 444 753 267 753 q 640 728 538 753 l 640 619 q 433 653 517 653 q 281 595 338 653 q 216 435 224 538 l 472 435 l 472 335 l 216 335 q 282 143 224 204 q 454 83 339 83 q 648 128 546 83 "},"≼":{"x_min":151,"x_max":954,"ha":1104,"o":"m 414 401 q 749 268 597 381 q 954 0 902 154 l 879 0 q 619 269 813 170 q 159 368 425 368 l 151 368 l 151 435 l 159 435 q 619 534 425 435 q 879 803 813 633 l 954 803 q 749 535 902 648 q 414 401 597 421 m 808 -100 l 733 -100 q 541 119 688 39 q 183 199 394 199 l 151 201 l 151 268 q 589 171 417 268 q 808 -100 761 75 "},"j":{"x_min":-104,"x_max":289,"ha":423,"o":"m -104 -250 l -104 -144 q 38 -184 -10 -184 q 124 -154 93 -184 q 149 -107 144 -133 q 155 0 155 -82 l 155 737 l 289 737 l 289 0 q 49 -284 289 -284 q -104 -250 -22 -284 m 155 870 l 155 1004 l 289 1004 l 289 870 l 155 870 "},"⋱":{"x_min":151,"x_max":954,"ha":1104,"o":"m 151 669 l 151 803 l 285 803 l 285 669 l 151 669 m 486 334 l 486 468 l 620 468 l 620 334 l 486 334 m 820 0 l 820 134 l 954 134 l 954 0 l 820 0 "},"1":{"x_min":205,"x_max":498,"ha":878,"o":"m 364 0 l 364 904 l 205 904 l 205 988 l 498 1013 l 498 0 l 364 0 "},"ћ":{"x_min":0,"x_max":736,"ha":862,"o":"m 268 481 q 526 636 373 636 q 679 575 622 636 q 736 412 736 514 l 736 0 l 602 0 l 602 368 q 578 486 602 451 q 498 521 554 521 q 268 360 376 521 l 268 0 l 134 0 l 134 770 l 0 770 l 0 854 l 134 854 l 134 1054 l 268 1054 l 268 854 l 521 854 l 521 770 l 268 770 l 268 481 "},"≍":{"x_min":151,"x_max":954,"ha":1104,"o":"m 193 100 l 151 100 q 552 318 300 318 q 954 100 804 318 l 912 100 q 552 235 787 235 q 193 100 316 235 m 912 702 l 954 702 q 553 485 805 485 q 151 702 300 485 l 193 702 q 552 568 316 568 q 912 702 788 568 "},"∻":{"x_min":151,"x_max":954,"ha":1104,"o":"m 485 51 l 485 185 l 619 185 l 619 51 l 485 51 m 485 619 l 485 753 l 619 753 l 619 619 l 485 619 m 193 301 l 151 301 q 327 518 161 518 q 554 447 397 518 l 613 420 q 797 356 757 356 q 912 502 895 356 l 954 502 q 774 286 940 286 q 593 342 719 286 l 553 360 l 492 387 q 308 449 357 449 q 225 406 258 449 q 193 301 193 364 "},"⊭":{"x_min":151,"x_max":954,"ha":1104,"o":"m 557 569 l 652 853 l 723 853 l 628 569 l 954 569 l 954 502 l 606 502 l 539 301 l 954 301 l 954 234 l 517 234 l 422 -50 l 352 -50 l 446 234 l 218 234 l 218 0 l 151 0 l 151 803 l 218 803 l 218 569 l 557 569 m 536 502 l 218 502 l 218 301 l 468 301 l 536 502 "},"<":{"x_min":151,"x_max":954,"ha":1104,"o":"m 954 0 l 151 401 l 954 803 l 954 728 l 302 401 l 954 74 l 954 0 "},"Ц":{"x_min":130,"x_max":1026,"ha":1068,"o":"m 130 0 l 130 1004 l 272 1004 l 272 125 l 750 125 l 750 1004 l 892 1004 l 892 125 l 1026 125 l 1026 -218 l 892 -218 l 892 0 l 130 0 "},"t":{"x_min":46.765625,"x_max":465,"ha":520,"o":"m 462 0 q 354 -17 400 -17 q 196 41 253 -17 q 139 203 139 99 l 139 637 l 46 637 l 46 737 l 139 737 l 139 871 l 273 884 l 273 737 l 465 737 l 465 637 l 273 637 l 273 227 q 397 83 273 83 q 462 91 424 83 l 462 0 "},"⊰":{"x_min":151,"x_max":954,"ha":1104,"o":"m 351 501 q 781 345 608 450 q 954 135 954 240 q 914 39 954 78 q 816 0 874 0 q 718 26 775 0 l 749 87 q 812 67 783 67 q 887 134 887 67 q 631 342 887 234 q 167 469 333 469 l 151 469 l 151 536 l 167 536 q 631 662 333 536 q 887 865 887 771 q 812 938 887 938 q 749 917 783 938 l 718 978 q 817 1005 774 1005 q 914 965 874 1005 q 954 868 954 925 q 780 659 954 764 q 351 501 606 554 "},"Ү":{"x_min":12,"x_max":848,"ha":865,"o":"m 347 0 l 347 419 l 12 1004 l 174 1004 l 434 551 l 715 1004 l 848 1004 l 489 421 l 489 0 l 347 0 "},"∧":{"x_min":151,"x_max":954,"ha":1104,"o":"m 151 0 l 552 803 l 954 0 l 879 0 l 551 652 l 226 0 l 151 0 "},"Ф":{"x_min":42,"x_max":920,"ha":962,"o":"m 414 0 l 414 151 l 401 151 q 148 254 255 151 q 42 498 42 357 q 148 751 42 649 q 414 853 255 853 l 414 1004 l 548 1004 l 548 853 q 813 751 706 853 q 920 498 920 649 q 813 254 920 357 q 559 151 706 151 l 548 151 l 548 0 l 414 0 m 414 749 q 244 675 304 741 q 184 495 184 609 q 248 322 184 390 q 414 255 312 255 l 414 749 m 548 749 l 548 255 q 713 322 648 255 q 778 495 778 390 q 718 675 778 609 q 548 749 658 741 "},"⋝":{"x_min":151,"x_max":954,"ha":1104,"o":"m 151 643 l 954 321 l 151 0 l 151 71 l 773 321 l 151 570 l 151 643 m 151 786 l 151 858 l 954 537 l 954 465 l 151 786 "},"∹":{"x_min":151,"x_max":954,"ha":1104,"o":"m 820 51 l 820 185 l 954 185 l 954 51 l 820 51 m 151 369 l 151 436 l 753 436 l 753 369 l 151 369 m 820 619 l 820 753 l 954 753 l 954 619 l 820 619 "},"∐":{"x_min":151,"x_max":1138,"ha":1289,"o":"m 896 42 l 896 826 q 883 932 896 908 q 829 958 871 956 l 783 962 l 771 963 l 771 1005 l 1138 1005 l 1138 963 l 1125 962 l 1079 958 q 1030 945 1040 956 q 1017 895 1019 934 l 1013 828 l 1013 175 l 1017 108 q 1030 59 1019 69 q 1079 46 1040 48 l 1125 42 l 1138 42 l 1138 0 l 151 0 l 151 42 l 163 42 l 209 46 q 263 72 251 48 q 276 175 276 95 l 276 828 q 263 932 276 908 q 209 958 251 955 l 163 962 l 151 963 l 151 1005 l 518 1005 l 518 963 l 505 962 l 459 958 q 404 931 416 955 q 393 826 393 907 l 393 42 l 896 42 "},"О":{"x_min":71,"x_max":1010,"ha":1079,"o":"m 540 -25 q 198 118 326 -25 q 71 502 71 261 q 198 885 71 742 q 540 1029 326 1029 q 882 885 754 1029 q 1010 502 1010 742 q 882 118 1010 261 q 540 -25 754 -25 m 540 81 q 774 192 690 81 q 859 503 859 304 q 774 811 859 700 q 540 923 690 923 q 306 811 390 923 q 222 503 222 700 q 306 192 222 304 q 540 81 390 81 "},"⊢":{"x_min":151,"x_max":954,"ha":1104,"o":"m 151 0 l 151 803 l 218 803 l 218 435 l 954 435 l 954 368 l 218 368 l 218 0 l 151 0 "},"&":{"x_min":50,"x_max":909,"ha":969,"o":"m 719 0 l 669 59 q 410 -25 558 -25 q 151 66 252 -25 q 50 298 50 157 q 294 613 50 530 q 227 817 227 736 q 297 967 227 906 q 469 1029 367 1029 q 630 971 567 1029 q 694 826 694 914 q 473 564 694 675 q 708 230 574 385 q 769 485 769 320 l 769 534 l 903 534 q 769 149 903 311 q 909 0 831 72 l 719 0 m 611 137 q 340 533 469 312 q 184 330 184 471 q 256 149 184 224 q 431 75 328 75 q 611 137 526 75 m 424 649 q 569 824 569 715 q 540 900 569 871 q 464 929 511 929 q 389 900 417 929 q 361 823 361 871 q 424 649 361 754 "},"⊺":{"x_min":151,"x_max":720,"ha":870,"o":"m 151 452 l 720 452 l 720 352 l 486 352 l 486 -293 l 385 -293 l 385 352 l 151 352 l 151 452 "},"Ҩ":{"x_min":75,"x_max":1049,"ha":1075,"o":"m 715 131 q 866 490 866 248 q 832 651 866 592 q 742 711 799 711 q 643 643 682 711 q 605 470 605 576 q 636 283 605 380 q 715 131 668 187 m 919 745 q 1008 487 1008 641 q 945 243 1008 366 q 784 45 883 120 q 1049 -59 892 -48 l 1049 -165 q 845 -123 922 -158 q 688 -3 768 -89 q 545 -25 612 -25 q 202 118 330 -25 q 75 502 75 261 q 202 885 75 741 q 541 1029 329 1029 q 919 745 814 1029 m 756 817 q 554 923 688 923 q 311 814 396 923 q 226 503 226 705 q 310 192 226 304 q 543 81 394 81 q 611 91 579 81 q 517 268 555 157 q 480 475 480 378 q 556 722 480 628 q 756 817 632 817 "},"I":{"x_min":129,"x_max":271,"ha":400,"o":"m 129 0 l 129 1004 l 271 1004 l 271 0 l 129 0 "},"G":{"x_min":71,"x_max":884,"ha":1004,"o":"m 884 27 q 565 -25 701 -25 q 198 110 326 -25 q 71 502 71 246 q 200 890 71 752 q 566 1029 330 1029 q 883 984 717 1029 l 883 852 q 564 923 675 923 q 311 812 401 923 q 222 501 222 702 q 318 191 222 302 q 588 81 414 81 q 742 106 659 81 l 742 433 l 884 433 l 884 27 "},"≄":{"x_min":151,"x_max":954,"ha":1104,"o":"m 472 243 l 553 485 l 492 513 q 308 574 358 574 q 225 531 258 574 q 193 426 193 489 l 151 426 q 328 643 161 643 q 554 572 399 643 l 579 561 l 640 745 l 711 745 l 640 533 l 644 532 q 798 481 759 481 q 912 627 895 481 l 954 627 q 775 411 940 411 q 623 454 723 411 l 615 457 l 543 243 l 954 243 l 954 176 l 520 176 l 464 8 l 394 8 l 450 176 l 151 176 l 151 243 l 472 243 "},"∤":{"x_min":150,"x_max":553,"ha":703,"o":"m 318 356 l 150 189 l 150 283 l 318 450 l 318 1071 l 385 1071 l 385 518 l 553 685 l 553 591 l 385 424 l 385 -201 l 318 -201 l 318 356 "},"`":{"x_min":268,"x_max":586,"ha":853,"o":"m 586 870 l 486 870 l 268 1088 l 422 1088 l 586 870 "},"≔":{"x_min":151,"x_max":954,"ha":1104,"o":"m 285 590 l 285 456 l 151 456 l 151 590 l 285 590 m 954 557 l 954 490 l 418 490 l 418 557 l 954 557 m 285 356 l 285 222 l 151 222 l 151 356 l 285 356 m 954 322 l 954 255 l 418 255 l 418 322 l 954 322 "},"Һ":{"x_min":130,"x_max":820,"ha":874,"o":"m 272 1004 l 272 566 q 531 661 383 661 q 746 579 666 661 q 804 484 788 536 q 820 332 820 432 l 820 0 l 678 0 l 678 328 q 637 494 678 444 q 502 544 597 544 q 272 439 371 544 l 272 0 l 130 0 l 130 1004 l 272 1004 "},"ҡ":{"x_min":8,"x_max":754,"ha":821,"o":"m 343 314 l 343 0 l 209 0 l 209 637 l 8 637 l 8 737 l 343 737 l 343 414 l 355 414 q 425 433 404 418 q 472 497 447 448 l 495 542 l 510 573 q 597 706 559 676 q 719 737 636 737 l 719 638 q 655 614 680 638 q 606 531 631 591 l 594 504 q 481 370 554 408 q 565 320 536 351 q 642 196 593 289 l 669 145 q 754 0 716 54 l 606 0 q 563 80 587 38 l 527 145 q 409 314 462 261 l 343 314 "},"∀":{"x_min":151,"x_max":1081,"ha":1231,"o":"m 972 1004 l 1081 1004 l 678 0 l 552 0 l 151 1004 l 258 1004 l 365 736 l 864 736 l 972 1004 m 400 652 l 617 116 l 832 652 l 400 652 "},"⋒":{"x_min":151,"x_max":954,"ha":1104,"o":"m 954 803 l 954 401 q 836 117 954 234 q 552 0 718 0 q 268 117 386 0 q 151 401 151 234 l 151 803 l 218 803 l 218 401 q 315 165 218 263 q 552 67 413 67 q 789 165 691 67 q 887 401 887 263 l 887 803 l 954 803 m 753 803 l 753 401 q 694 259 753 318 q 552 201 635 201 q 410 259 469 201 q 352 401 352 318 l 352 803 l 419 803 l 419 401 q 458 306 419 345 q 552 268 497 268 q 646 306 607 268 q 686 401 686 345 l 686 803 l 753 803 "},"⋨":{"x_min":151,"x_max":954.28125,"ha":1104,"o":"m 535 154 l 586 308 l 657 308 l 596 126 l 614 118 q 797 54 757 54 q 912 200 895 54 l 954 200 q 774 -16 940 -16 q 593 40 717 -16 l 582 45 l 571 50 l 518 -108 l 448 -108 l 509 78 l 493 85 q 307 146 357 146 q 225 103 258 146 q 193 0 193 61 l 151 0 q 328 216 161 216 q 527 156 396 216 l 535 154 m 414 662 q 749 528 597 642 q 954 261 902 414 l 879 261 q 619 529 813 430 q 159 629 425 629 l 151 629 l 151 696 l 159 696 q 619 795 425 696 q 879 1064 813 894 l 954 1064 q 750 796 902 910 q 414 662 597 682 "},"Ђ":{"x_min":8,"x_max":1054,"ha":1104,"o":"m 501 559 q 748 649 619 649 q 967 560 880 649 q 1054 338 1054 472 q 962 91 1054 190 q 734 -8 871 -8 q 660 0 693 -8 l 660 102 q 706 96 680 96 q 845 161 788 96 q 903 323 903 227 q 850 469 903 411 q 716 528 797 528 q 501 430 610 528 l 501 0 l 359 0 l 359 898 l 8 898 l 8 1004 l 852 1004 l 852 898 l 501 898 l 501 559 "},"∞":{"x_min":151,"x_max":1155,"ha":1306,"o":"m 640 335 q 381 116 527 116 q 218 194 286 116 q 151 384 151 273 q 222 597 151 508 q 394 686 293 686 q 530 636 470 686 q 671 459 590 587 q 923 686 796 686 q 1087 605 1020 686 q 1155 410 1155 524 q 1084 200 1155 285 q 911 116 1013 116 q 777 162 835 116 q 640 335 719 209 m 611 371 q 376 583 473 583 q 270 520 315 583 q 225 370 225 457 q 271 235 225 289 q 388 182 318 182 q 611 371 513 182 m 699 424 q 930 214 838 214 q 1035 277 989 214 q 1082 420 1082 340 q 1034 558 1082 502 q 914 614 986 614 q 699 424 799 614 "},"∇":{"x_min":151,"x_max":1088,"ha":1238,"o":"m 1088 1004 l 1088 912 l 627 -8 l 581 -8 l 151 912 l 151 1004 l 1088 1004 m 1033 908 l 281 908 l 645 133 l 1033 908 "},"∌":{"x_min":151,"x_max":954,"ha":1105,"o":"m 885 435 q 796 633 876 548 q 599 736 716 717 l 499 435 l 885 435 m 478 368 l 377 67 l 477 67 q 806 183 706 64 q 885 368 877 267 l 478 368 m 234 -151 l 284 0 l 151 0 l 151 67 l 306 67 l 407 368 l 151 368 l 151 435 l 430 435 l 530 736 l 151 736 l 151 803 l 552 803 l 602 954 l 673 954 l 620 803 q 859 663 765 776 q 954 401 954 550 q 836 117 954 234 q 552 0 719 0 l 355 0 l 304 -151 l 234 -151 "},"⊘":{"x_min":134,"x_max":971,"ha":1104,"o":"m 552 -17 q 256 105 378 -17 q 134 401 134 227 q 256 697 134 575 q 552 820 378 820 q 848 697 726 820 q 971 401 971 575 q 848 105 971 227 q 552 -17 726 -17 m 776 672 q 551 753 678 753 q 303 650 406 753 q 201 401 201 547 q 281 178 201 276 l 776 672 m 328 130 q 553 50 426 50 q 801 153 698 50 q 904 400 904 256 q 823 625 904 527 l 328 130 "},"я":{"x_min":25,"x_max":575,"ha":709,"o":"m 441 298 l 364 298 q 265 161 317 251 l 223 87 q 175 0 195 37 l 25 0 q 110 144 72 72 l 128 177 q 253 334 192 299 q 142 413 183 359 q 102 534 102 467 q 215 708 102 654 q 427 737 272 737 l 575 737 l 575 0 l 441 0 l 441 298 m 441 637 l 403 637 q 244 520 244 637 q 411 398 244 398 l 441 398 l 441 637 "},"Ё":{"x_min":130,"x_max":720,"ha":753,"o":"m 130 0 l 130 1004 l 690 1004 l 690 898 l 272 898 l 272 575 l 623 575 l 623 470 l 272 470 l 272 106 l 720 106 l 720 0 l 130 0 m 231 1088 l 231 1205 l 348 1205 l 348 1088 l 231 1088 m 499 1088 l 499 1205 l 616 1205 l 616 1088 l 499 1088 "},";":{"x_min":153,"x_max":287,"ha":439,"o":"m 153 -218 l 153 -168 q 202 -15 202 -142 l 202 0 l 153 0 l 153 134 l 287 134 l 287 21 q 153 -218 287 -184 m 153 603 l 153 737 l 287 737 l 287 603 l 153 603 "},"Г":{"x_min":130,"x_max":692,"ha":707,"o":"m 130 0 l 130 1004 l 692 1004 l 692 898 l 272 898 l 272 0 l 130 0 "},"6":{"x_min":93,"x_max":779,"ha":878,"o":"m 239 519 q 479 644 334 644 q 695 556 611 644 q 779 333 779 469 q 685 75 779 176 q 445 -25 591 -25 q 186 108 280 -25 q 93 479 93 242 q 256 946 93 797 q 501 1029 345 1029 q 727 991 592 1029 l 727 874 q 493 929 585 929 q 239 519 239 929 m 645 307 q 593 483 645 418 q 451 548 541 548 q 305 490 366 548 q 244 353 244 433 q 302 151 244 227 q 456 75 360 75 q 594 137 543 75 q 645 307 645 199 "},"⋭":{"x_min":151,"x_max":954,"ha":1104,"o":"m 277 67 l 350 240 l 151 161 l 151 803 l 522 654 l 641 937 l 712 937 l 583 630 l 954 482 l 434 274 l 348 67 l 954 67 l 954 0 l 319 0 l 256 -151 l 186 -151 l 249 0 l 151 0 l 151 67 l 277 67 m 497 592 l 218 704 l 218 260 l 386 327 l 497 592 m 558 568 l 471 361 l 774 482 l 558 568 "},"Ь":{"x_min":130,"x_max":741,"ha":791,"o":"m 130 0 l 130 1004 l 272 1004 l 272 573 l 348 573 q 522 563 468 573 q 625 522 576 553 q 741 305 741 448 q 610 56 741 138 q 312 0 520 0 l 130 0 m 272 104 l 322 104 q 526 146 469 104 q 599 296 599 199 q 538 428 599 387 q 342 469 477 469 l 272 469 l 272 104 "},"n":{"x_min":134,"x_max":736,"ha":862,"o":"m 134 0 l 134 737 l 268 737 l 268 598 q 526 753 373 753 q 679 692 622 753 q 736 529 736 631 l 736 0 l 602 0 l 602 485 q 578 603 602 568 q 498 638 554 638 q 268 477 376 638 l 268 0 l 134 0 "},"﻿":{"x_min":0,"x_max":0,"ha":0},"⋀":{"x_min":151,"x_max":954,"ha":1104,"o":"m 954 0 l 805 0 l 552 503 l 300 0 l 151 0 l 552 803 l 954 0 "},"∴":{"x_min":151,"x_max":954,"ha":1104,"o":"m 151 0 l 151 134 l 285 134 l 285 0 l 151 0 m 820 0 l 820 134 l 954 134 l 954 0 l 820 0 m 485 669 l 485 803 l 619 803 l 619 669 l 485 669 "},"≪":{"x_min":151,"x_max":1403,"ha":1553,"o":"m 954 0 l 151 401 l 954 803 l 954 728 l 302 401 l 954 74 l 954 0 m 1403 0 l 600 401 l 1403 803 l 1403 728 l 751 401 l 1403 74 l 1403 0 "},"∂":{"x_min":151,"x_max":760,"ha":910,"o":"m 184 877 q 466 1088 286 1088 q 682 964 605 1088 q 760 619 760 841 q 644 164 760 345 q 355 -17 529 -17 q 206 47 262 -17 q 151 218 151 112 q 268 538 151 390 q 521 686 385 686 q 718 569 633 686 q 422 971 718 971 q 184 877 297 971 m 714 509 q 531 647 639 647 q 352 535 429 647 q 276 279 276 424 q 312 127 276 186 q 407 69 348 69 q 605 196 516 69 q 714 509 693 323 "},"p":{"x_min":134,"x_max":799,"ha":874,"o":"m 134 -268 l 134 737 l 268 737 l 268 598 q 513 753 349 753 q 722 655 646 753 q 799 390 799 558 q 712 95 799 207 q 485 -17 626 -17 q 268 83 354 -17 l 268 -268 l 134 -268 m 268 175 q 464 83 371 83 q 606 160 556 83 q 657 376 657 237 q 486 636 657 636 q 268 514 374 636 l 268 175 "},"⋮":{"x_min":486,"x_max":620,"ha":1104,"o":"m 486 0 l 486 134 l 620 134 l 620 0 l 486 0 m 486 334 l 486 468 l 620 468 l 620 334 l 486 334 m 486 669 l 486 803 l 620 803 l 620 669 l 486 669 "},"⊆":{"x_min":151,"x_max":954,"ha":1104,"o":"m 954 67 l 954 0 l 151 0 l 151 67 l 954 67 m 954 301 l 954 234 l 435 234 q 234 317 317 234 q 151 518 151 400 q 234 719 151 636 q 435 803 317 803 l 954 803 l 954 736 l 435 736 q 281 672 344 736 q 218 518 218 608 q 281 364 218 428 q 435 301 344 301 l 954 301 "},"∔":{"x_min":151,"x_max":954,"ha":1104,"o":"m 485 737 l 485 871 l 619 871 l 619 737 l 485 737 m 586 603 l 586 335 l 954 335 l 954 268 l 586 268 l 586 0 l 519 0 l 519 268 l 151 268 l 151 335 l 519 335 l 519 603 l 586 603 "},"∣":{"x_min":226,"x_max":293,"ha":519,"o":"m 226 -201 l 226 1071 l 293 1071 l 293 -201 l 226 -201 "},"⋇":{"x_min":151,"x_max":954,"ha":1104,"o":"m 485 67 l 485 201 l 619 201 l 619 67 l 485 67 m 151 368 l 151 435 l 471 435 l 151 756 l 198 803 l 552 448 l 907 803 l 954 756 l 633 435 l 954 435 l 954 368 l 633 368 l 954 47 l 907 0 l 552 354 l 198 0 l 151 47 l 471 368 l 151 368 m 485 602 l 485 736 l 619 736 l 619 602 l 485 602 "},"√":{"x_min":120,"x_max":1138,"ha":1121,"o":"m 138 341 l 120 378 l 299 469 l 567 -67 l 1093 1247 l 1138 1247 l 585 -134 l 526 -134 l 259 400 l 138 341 "},"Ѫ":{"x_min":38,"x_max":1080,"ha":1118,"o":"m 588 548 l 886 900 l 232 900 l 529 548 l 588 548 m 626 473 l 626 0 l 492 0 l 492 473 l 441 473 q 344 377 379 441 q 223 100 295 289 q 184 0 194 25 l 38 0 l 52 33 q 126 206 93 125 l 158 282 q 264 470 214 419 q 403 535 315 522 l 95 900 l 95 1004 l 1024 1004 l 1024 900 l 714 535 q 853 470 803 522 q 960 282 903 419 l 991 206 q 1065 33 1024 125 l 1080 0 l 934 0 q 894 100 922 25 q 773 377 822 287 q 676 473 738 441 l 626 473 "},"Ю":{"x_min":130,"x_max":1266,"ha":1341,"o":"m 130 0 l 130 1004 l 272 1004 l 272 556 l 431 556 q 555 905 446 781 q 847 1029 664 1029 q 1153 887 1041 1029 q 1266 502 1266 746 q 1153 116 1266 257 q 847 -25 1041 -25 q 554 101 665 -25 q 431 450 443 228 l 272 450 l 272 0 l 130 0 m 847 79 q 1044 191 973 79 q 1115 502 1115 303 q 1044 812 1115 700 q 847 925 973 925 q 650 812 721 925 q 580 502 580 700 q 650 191 580 303 q 847 79 721 79 "},"S":{"x_min":68,"x_max":679,"ha":748,"o":"m 68 19 l 68 160 q 347 81 237 81 q 481 125 430 81 q 533 241 533 170 q 499 341 533 300 q 375 434 465 383 l 306 474 q 125 612 178 547 q 73 762 73 676 q 157 954 73 879 q 371 1029 241 1029 q 617 990 487 1029 l 617 860 q 379 923 457 923 q 257 883 305 923 q 209 784 209 844 q 244 695 209 734 q 373 603 279 656 l 445 562 q 627 422 575 488 q 679 264 679 356 q 582 54 679 133 q 327 -25 486 -25 q 68 19 225 -25 "},"/":{"x_min":151,"x_max":578,"ha":728,"o":"m 151 -201 l 507 1004 l 578 1004 l 221 -201 l 151 -201 "},"⊕":{"x_min":134,"x_max":971,"ha":1104,"o":"m 552 -17 q 256 105 379 -17 q 134 401 134 228 q 256 696 134 573 q 552 820 379 820 q 848 696 725 820 q 971 401 971 573 q 848 105 971 228 q 552 -17 725 -17 m 585 368 l 586 52 q 800 153 712 64 q 902 368 889 241 l 585 368 m 519 435 l 519 751 q 304 650 392 738 q 203 435 215 561 l 519 435 m 585 435 l 902 435 q 800 650 889 561 q 586 751 712 738 l 585 435 m 519 368 l 203 368 q 304 153 215 241 q 519 52 392 64 l 519 368 "},"≫":{"x_min":151,"x_max":1403,"ha":1553,"o":"m 600 0 l 600 74 l 1252 401 l 600 728 l 600 803 l 1403 401 l 600 0 m 151 0 l 151 74 l 803 401 l 151 728 l 151 803 l 954 401 l 151 0 "},"ӈ":{"x_min":134,"x_max":733,"ha":867,"o":"m 134 0 l 134 737 l 268 737 l 268 438 l 599 438 l 599 737 l 733 737 l 733 -62 q 675 -225 733 -166 q 515 -284 617 -284 q 415 -270 465 -284 l 415 -165 q 499 -184 457 -184 q 576 -150 553 -184 q 599 -36 599 -116 l 599 338 l 268 338 l 268 0 l 134 0 "},"y":{"x_min":11,"x_max":718,"ha":726,"o":"m 176 -268 l 296 0 l 11 737 l 154 737 l 366 180 l 591 737 l 718 737 l 315 -268 l 176 -268 "},"ђ":{"x_min":0,"x_max":736,"ha":862,"o":"m 134 0 l 134 770 l 0 770 l 0 854 l 134 854 l 134 1071 l 268 1071 l 268 854 l 521 854 l 521 770 l 268 770 l 268 481 q 526 636 373 636 q 679 575 622 636 q 736 411 736 514 l 736 -61 q 678 -225 736 -166 q 518 -284 621 -284 q 418 -270 468 -284 l 418 -166 q 503 -184 460 -184 q 579 -150 556 -184 q 602 -36 602 -116 l 602 368 q 578 486 602 451 q 498 521 554 521 q 268 360 376 521 l 268 0 l 134 0 "},"≈":{"x_min":151,"x_max":954,"ha":1104,"o":"m 193 150 l 151 150 q 328 367 161 367 q 554 296 397 367 l 614 269 q 799 205 758 205 q 913 351 896 205 l 954 351 q 774 135 940 135 q 593 191 717 135 l 553 209 l 492 236 q 308 297 358 297 q 225 254 258 297 q 193 150 193 212 m 193 451 l 151 451 q 328 668 161 668 q 554 597 398 668 l 614 571 q 799 506 758 506 q 913 652 896 506 l 954 652 q 774 436 940 436 q 593 492 718 436 l 553 510 l 492 538 q 308 599 358 599 q 225 556 258 599 q 193 451 193 514 "},"≴":{"x_min":151,"x_max":954,"ha":1104,"o":"m 666 717 l 588 479 l 954 333 l 954 261 l 567 416 l 488 173 q 554 145 511 165 l 614 118 q 797 54 757 54 q 912 200 895 54 l 954 200 q 775 -16 940 -16 q 594 40 718 -16 l 554 58 l 493 85 q 465 97 490 87 l 461 99 l 405 -67 l 335 -67 l 398 123 l 394 125 q 307 146 336 146 q 225 103 258 146 q 193 0 193 61 l 151 0 q 328 216 161 216 q 423 198 372 216 l 504 441 l 151 582 l 613 767 l 692 1004 l 763 1004 l 694 799 l 954 903 l 954 831 l 666 717 m 585 684 l 332 582 l 525 504 l 585 684 "},"g":{"x_min":75,"x_max":740,"ha":866,"o":"m 136 -245 l 151 -130 q 380 -184 267 -184 q 606 55 606 -184 l 606 171 q 507 57 571 98 q 364 17 443 17 q 152 112 230 17 q 75 373 75 208 q 163 647 75 541 q 393 753 252 753 q 606 652 517 753 l 606 737 l 740 737 l 740 201 q 722 -55 740 28 q 654 -191 704 -138 q 381 -284 567 -284 q 136 -245 253 -284 m 606 255 l 606 561 q 413 653 517 653 q 269 579 321 653 q 217 374 217 505 q 387 134 217 134 q 606 255 503 134 "},"⋍":{"x_min":151,"x_max":954,"ha":1104,"o":"m 954 176 l 151 176 l 151 243 l 954 243 l 954 176 m 912 426 q 879 531 912 488 q 798 574 846 574 q 611 513 745 574 l 550 485 l 511 467 q 329 411 386 411 q 151 627 164 411 l 193 627 q 306 481 209 481 q 491 545 348 481 l 550 572 q 774 643 705 643 q 954 426 942 643 l 912 426 "},"≧":{"x_min":151,"x_max":954,"ha":1104,"o":"m 954 251 l 151 251 l 151 318 l 954 318 l 954 251 m 151 1055 l 954 733 l 151 412 l 151 483 l 773 733 l 151 982 l 151 1055 m 954 0 l 151 0 l 151 67 l 954 67 l 954 0 "},"∵":{"x_min":151,"x_max":954,"ha":1104,"o":"m 954 803 l 954 669 l 820 669 l 820 803 l 954 803 m 285 803 l 285 669 l 151 669 l 151 803 l 285 803 m 619 134 l 619 0 l 485 0 l 485 134 l 619 134 "},"б":{"x_min":75,"x_max":758,"ha":828,"o":"m 208 574 q 477 737 311 737 q 681 637 604 737 q 758 374 758 538 q 663 90 758 198 q 413 -17 568 -17 q 75 478 75 -17 q 168 930 75 789 q 470 1071 262 1071 l 498 1071 q 678 1107 598 1071 l 678 999 q 514 971 614 971 l 498 971 q 287 885 350 971 q 208 574 224 799 m 210 482 l 209 458 q 421 83 209 83 q 563 159 510 83 q 616 366 616 236 q 441 616 616 616 q 210 482 318 616 "},"⊴":{"x_min":151,"x_max":954,"ha":1104,"o":"m 151 0 l 151 67 l 954 67 l 954 0 l 151 0 m 954 161 l 151 482 l 954 803 l 954 161 m 887 260 l 887 704 l 331 482 l 887 260 "},"≌":{"x_min":151,"x_max":954,"ha":1104,"o":"m 151 0 l 151 67 l 954 67 l 954 0 l 151 0 m 151 251 l 151 318 l 954 318 l 954 251 l 151 251 m 396 810 q 349 821 368 821 q 257 781 296 821 q 218 687 218 741 q 257 592 218 631 q 350 553 296 553 q 491 650 426 553 l 555 747 q 751 888 647 888 q 894 829 835 888 q 954 687 954 770 q 894 544 954 602 q 749 486 835 486 q 690 496 723 486 l 709 559 q 742 553 729 553 q 846 590 805 553 q 887 687 887 628 q 847 781 887 742 q 752 821 808 821 q 620 725 683 821 l 554 625 l 528 585 q 351 486 461 486 q 209 544 268 486 q 151 686 151 603 q 207 826 151 765 q 338 888 264 888 q 416 872 367 888 l 396 810 "},"J":{"x_min":-125,"x_max":307,"ha":432,"o":"m -125 -187 l -125 -62 q 20 -87 -43 -87 q 132 -40 100 -87 q 165 121 165 6 l 165 1004 l 307 1004 l 307 126 q -2 -201 307 -201 q -125 -187 -50 -201 "},"у":{"x_min":8,"x_max":717,"ha":730,"o":"m 310 45 l 8 737 l 136 737 l 372 203 l 582 737 l 717 737 l 434 17 q 297 -217 361 -166 q 70 -268 233 -268 l 55 -268 l 55 -151 l 73 -151 q 216 -120 176 -151 q 302 23 256 -89 l 310 45 "},"Ј":{"x_min":-125,"x_max":307,"ha":432,"o":"m -125 -187 l -125 -62 q 20 -87 -43 -87 q 132 -40 100 -87 q 165 121 165 6 l 165 1004 l 307 1004 l 307 126 q -2 -201 307 -201 q -125 -187 -50 -201 "},"ӌ":{"x_min":54,"x_max":594,"ha":728,"o":"m 326 -168 l 326 117 l 460 117 l 460 309 q 282 255 379 255 q 102 331 163 255 q 54 570 54 392 l 54 737 l 188 737 l 188 543 q 213 399 188 433 q 311 355 247 355 q 460 414 392 355 l 460 737 l 594 737 l 594 0 l 460 0 l 460 -168 l 326 -168 "},"∈":{"x_min":151,"x_max":954,"ha":1104,"o":"m 954 67 l 954 0 l 552 0 q 268 117 385 0 q 151 401 151 234 q 268 685 151 568 q 552 803 386 803 l 954 803 l 954 736 l 552 736 q 327 647 424 736 q 220 435 230 559 l 954 435 l 954 368 l 220 368 q 326 154 229 242 q 552 67 424 67 l 954 67 "},"Ұ":{"x_min":12,"x_max":848,"ha":865,"o":"m 347 0 l 347 214 l 96 214 l 96 314 l 347 314 l 347 419 l 12 1004 l 174 1004 l 434 551 l 715 1004 l 848 1004 l 489 421 l 489 314 l 740 314 l 740 214 l 489 214 l 489 0 l 347 0 "},"⊝":{"x_min":151,"x_max":954,"ha":1104,"o":"m 552 0 q 268 117 385 0 q 151 401 151 234 q 268 685 151 568 q 552 803 385 803 q 836 685 719 803 q 954 401 954 568 q 836 117 954 234 q 552 0 719 0 m 552 67 q 789 164 691 67 q 887 401 887 262 q 789 638 887 540 q 552 736 691 736 q 315 638 413 736 q 218 401 218 540 q 315 164 218 262 q 552 67 413 67 m 318 368 l 318 435 l 787 435 l 787 368 l 318 368 "},"≜":{"x_min":151,"x_max":954,"ha":1104,"o":"m 151 0 l 151 67 l 954 67 l 954 0 l 151 0 m 151 251 l 151 318 l 954 318 l 954 251 l 151 251 m 842 502 l 263 502 l 552 1004 l 842 502 m 726 569 l 552 871 l 378 569 l 726 569 "},"ҧ":{"x_min":134,"x_max":1159,"ha":1226,"o":"m 134 0 l 134 737 l 736 737 l 736 402 q 907 457 826 457 q 1088 368 1018 457 q 1159 140 1159 280 q 1078 -105 1159 -10 q 869 -201 997 -201 q 828 -198 852 -201 l 828 -99 l 841 -100 q 858 -101 851 -101 q 972 -34 927 -101 q 1017 135 1017 32 q 978 280 1017 225 q 879 336 940 336 q 736 284 814 336 l 736 0 l 602 0 l 602 620 l 268 620 l 268 0 l 134 0 "},"≥":{"x_min":151,"x_max":954,"ha":1104,"o":"m 954 0 l 151 0 l 151 68 l 954 68 l 954 0 m 151 803 l 954 482 l 151 161 l 151 232 l 773 482 l 151 731 l 151 803 "},"D":{"x_min":130,"x_max":970,"ha":1040,"o":"m 130 0 l 130 1004 l 463 1004 q 704 970 612 1004 q 863 858 796 937 q 970 525 970 731 q 845 148 970 293 q 688 34 777 69 q 465 0 599 0 l 130 0 m 272 106 l 454 106 q 731 211 650 106 q 819 512 819 323 q 732 790 819 689 q 607 875 680 852 q 389 898 535 898 l 272 898 l 272 106 "},"ґ":{"x_min":134,"x_max":670,"ha":686,"o":"m 134 0 l 134 737 l 536 737 l 536 904 l 670 904 l 670 620 l 268 620 l 268 0 l 134 0 "},"ц":{"x_min":134,"x_max":870,"ha":928,"o":"m 134 0 l 134 737 l 268 737 l 268 117 l 602 117 l 602 737 l 736 737 l 736 117 l 870 117 l 870 -168 l 736 -168 l 736 0 l 134 0 "},"⋔":{"x_min":151,"x_max":954,"ha":1104,"o":"m 519 1071 l 586 1071 l 586 802 q 850 671 746 784 q 954 401 954 559 l 954 0 l 887 0 l 887 401 q 798 627 887 530 q 586 735 710 724 l 586 0 l 519 0 l 519 735 q 305 628 393 725 q 218 401 218 530 l 218 0 l 151 0 l 151 401 q 254 672 151 559 q 519 802 357 785 l 519 1071 "},"Л":{"x_min":21,"x_max":845,"ha":975,"o":"m 21 0 l 21 125 q 212 280 166 145 q 260 940 260 420 l 260 1004 l 845 1004 l 845 0 l 703 0 l 703 900 l 402 900 l 402 877 q 350 255 402 420 q 235 72 311 131 q 21 0 160 13 "},"$":{"x_min":147,"x_max":716,"ha":878,"o":"m 415 -83 l 415 0 q 147 56 295 0 l 147 171 q 415 100 300 100 l 415 460 q 226 609 277 544 q 176 763 176 673 q 241 929 176 863 q 415 1004 307 995 l 415 1088 l 481 1088 l 481 1004 q 699 959 580 1004 l 699 850 q 481 912 568 905 l 481 554 q 536 521 517 532 q 678 408 640 458 q 716 280 716 357 q 652 98 716 174 q 481 0 589 23 l 481 -83 l 415 -83 m 481 108 q 599 260 599 150 q 576 340 599 309 q 481 421 553 371 l 481 108 m 415 599 l 415 907 q 293 765 293 870 q 318 679 293 714 q 415 599 343 644 "},"w":{"x_min":8,"x_max":1061,"ha":1070,"o":"m 219 0 l 8 737 l 138 737 l 299 164 l 474 737 l 608 737 l 761 167 l 946 737 l 1061 737 l 821 0 l 687 0 l 530 571 l 354 0 l 219 0 "},"∫":{"x_min":150,"x_max":653,"ha":803,"o":"m 247 -143 q 274 -152 260 -152 q 351 5 351 -152 l 349 106 l 343 334 l 343 560 q 391 971 343 846 q 552 1096 440 1096 q 653 1004 653 1096 q 591 933 653 933 q 533 990 533 933 q 554 1037 533 1017 q 528 1046 538 1046 q 450 910 450 1046 l 453 790 l 457 648 l 460 560 l 460 334 q 250 -201 460 -201 q 150 -109 150 -201 q 213 -38 150 -38 q 269 -98 269 -38 q 247 -143 269 -121 "},"\\":{"x_min":151,"x_max":578,"ha":728,"o":"m 578 -201 l 507 -201 l 151 1004 l 221 1004 l 578 -201 "},"⋤":{"x_min":151,"x_max":954,"ha":1104,"o":"m 151 0 l 151 67 l 954 67 l 954 0 l 151 0 m 151 234 l 151 803 l 954 803 l 954 736 l 218 736 l 218 301 l 954 301 l 954 234 l 151 234 m 448 -151 l 553 168 l 624 168 l 518 -151 l 448 -151 "},"о":{"x_min":75,"x_max":778,"ha":853,"o":"m 426 -17 q 169 86 264 -17 q 75 368 75 190 q 169 649 75 546 q 426 753 264 753 q 683 649 588 753 q 778 368 778 546 q 683 86 778 190 q 426 -17 588 -17 m 426 83 q 580 157 525 83 q 636 368 636 232 q 580 578 636 504 q 426 653 525 653 q 271 578 326 653 q 217 368 217 504 q 271 157 217 232 q 426 83 326 83 "},"⋜":{"x_min":151,"x_max":954,"ha":1104,"o":"m 954 643 l 954 570 l 333 321 l 954 72 l 954 0 l 151 321 l 954 643 m 954 786 l 151 465 l 151 537 l 954 858 l 954 786 "},"⊥":{"x_min":151,"x_max":954,"ha":1104,"o":"m 954 0 l 151 0 l 151 67 l 519 67 l 519 803 l 586 803 l 586 67 l 954 67 l 954 0 "},"≯":{"x_min":151,"x_max":954,"ha":1104,"o":"m 637 560 l 954 401 l 509 179 l 432 -50 l 362 -50 l 424 137 l 151 0 l 151 74 l 454 226 l 554 526 l 151 728 l 151 803 l 576 590 l 664 853 l 734 853 l 637 560 m 615 496 l 538 268 l 803 401 l 615 496 "},"Д":{"x_min":50,"x_max":1016,"ha":1059,"o":"m 50 -218 l 50 125 l 129 125 q 285 478 241 304 q 330 911 330 653 l 330 1004 l 878 1004 l 878 125 l 1016 125 l 1016 -218 l 878 -218 l 878 0 l 188 0 l 188 -218 l 50 -218 m 736 125 l 736 900 l 472 900 l 472 883 q 292 125 472 438 l 736 125 "},"⊄":{"x_min":151,"x_max":954,"ha":1104,"o":"m 552 0 l 502 -151 l 432 -151 l 484 6 q 244 143 337 32 q 151 401 151 254 q 268 685 151 568 q 552 803 386 803 l 750 803 l 800 954 l 871 954 l 820 803 l 954 803 l 954 736 l 798 736 l 575 67 l 954 67 l 954 0 l 552 0 m 727 736 l 552 736 q 316 638 414 736 q 218 401 218 540 q 298 183 218 275 q 506 69 379 90 l 727 736 "},"≀":{"x_min":226,"x_max":461,"ha":686,"o":"m 226 862 l 226 904 q 395 835 330 899 q 461 674 461 771 q 424 509 461 608 l 398 439 l 368 360 q 309 110 309 197 q 352 -6 309 42 q 460 -58 396 -54 l 460 -100 q 289 -27 353 -90 q 226 131 226 34 q 281 365 226 210 l 309 442 q 377 695 377 630 q 335 809 377 763 q 226 862 294 854 "},"ъ":{"x_min":13,"x_max":717,"ha":779,"o":"m 214 0 l 214 637 l 13 637 l 13 737 l 348 737 l 348 440 l 412 440 q 717 225 717 440 q 392 0 717 0 l 214 0 m 348 100 l 401 100 q 575 224 575 100 q 535 313 575 287 q 403 340 496 340 l 348 340 l 348 100 "},"Ҭ":{"x_min":12,"x_max":866,"ha":878,"o":"m 368 0 l 368 898 l 12 898 l 12 1004 l 866 1004 l 866 898 l 510 898 l 510 117 l 644 117 l 644 -218 l 510 -218 l 510 0 l 368 0 "},"⋅":{"x_min":226,"x_max":393,"ha":619,"o":"m 226 318 l 226 485 l 393 485 l 393 318 l 226 318 "},"C":{"x_min":71,"x_max":884,"ha":961,"o":"m 884 52 q 559 -25 735 -25 q 198 112 325 -25 q 71 501 71 249 q 200 890 71 752 q 567 1029 330 1029 q 883 985 701 1029 l 883 851 q 564 923 676 923 q 311 812 401 923 q 222 500 222 701 q 317 196 222 307 q 579 86 413 86 q 884 174 721 86 l 884 52 "},"Ӂ":{"x_min":38,"x_max":1098,"ha":1135,"o":"m 635 473 l 635 0 l 501 0 l 501 473 l 442 473 q 344 377 379 441 q 223 100 296 289 q 184 0 194 25 l 38 0 l 52 33 q 126 206 93 125 l 158 282 q 251 455 209 404 q 364 527 293 505 q 303 582 327 549 q 234 707 279 615 l 209 760 q 142 874 166 848 q 78 900 118 900 l 78 1004 l 92 1004 q 209 961 162 1004 q 314 802 256 918 l 335 759 l 362 704 q 428 597 403 622 q 501 571 454 573 l 501 1004 l 635 1004 l 635 571 q 709 602 682 576 q 773 704 736 628 q 800 759 791 740 l 821 802 q 926 961 879 918 q 1043 1004 973 1004 l 1058 1004 l 1058 900 q 993 874 1017 900 q 926 760 969 848 l 901 707 q 832 582 856 615 q 771 527 808 549 q 884 455 842 505 q 977 282 926 404 l 1008 206 q 1083 33 1042 125 l 1098 0 l 952 0 q 911 100 940 26 q 791 377 841 285 q 748 438 767 420 q 685 473 728 455 l 635 473 m 342 1289 l 425 1289 q 568 1188 446 1188 q 711 1289 689 1188 l 794 1289 q 722 1143 783 1198 q 568 1088 660 1088 q 414 1142 475 1088 q 342 1289 352 1197 "},"∩":{"x_min":151,"x_max":953,"ha":1104,"o":"m 151 0 l 151 401 q 268 685 151 568 q 552 803 386 803 q 835 685 718 803 q 953 401 953 568 l 953 0 l 886 0 l 886 401 q 788 638 886 540 q 552 736 690 736 q 315 638 413 736 q 218 401 218 540 l 218 0 l 151 0 "},"!":{"x_min":153,"x_max":287,"ha":439,"o":"m 153 0 l 153 134 l 287 134 l 287 0 l 153 0 m 170 268 l 153 803 l 153 1004 l 287 1004 l 287 803 l 270 268 l 170 268 "},"⋯":{"x_min":151,"x_max":954,"ha":1104,"o":"m 151 335 l 151 469 l 285 469 l 285 335 l 151 335 m 486 335 l 486 469 l 620 469 l 620 335 l 486 335 m 820 335 l 820 469 l 954 469 l 954 335 l 820 335 "},"≐":{"x_min":151,"x_max":954,"ha":1104,"o":"m 151 242 l 151 309 l 954 309 l 954 242 l 151 242 m 151 494 l 151 561 l 954 561 l 954 494 l 151 494 m 485 694 l 485 828 l 619 828 l 619 694 l 485 694 "},"Й":{"x_min":130,"x_max":900,"ha":1029,"o":"m 130 0 l 130 1004 l 272 1004 l 272 203 l 757 1004 l 900 1004 l 900 0 l 758 0 l 758 800 l 272 0 l 130 0 m 282 1289 l 365 1289 q 508 1188 386 1188 q 651 1289 629 1188 l 734 1289 q 662 1143 723 1198 q 508 1088 600 1088 q 354 1142 415 1088 q 282 1289 292 1197 "},"Ҕ":{"x_min":130,"x_max":820,"ha":870,"o":"m 272 542 q 501 619 384 619 q 732 516 645 619 q 820 243 820 413 q 715 -74 820 52 q 452 -201 610 -201 q 389 -190 422 -201 l 389 -82 q 455 -97 424 -97 q 609 -11 550 -97 q 669 212 669 74 q 618 425 669 348 q 477 502 567 502 q 272 413 381 502 l 272 0 l 130 0 l 130 1004 l 632 1004 l 632 898 l 272 898 l 272 542 "},"X":{"x_min":11,"x_max":833,"ha":869,"o":"m 11 0 l 343 503 l 27 1004 l 195 1004 l 436 625 l 690 1004 l 825 1004 l 504 519 l 833 0 l 664 0 l 409 397 l 145 0 l 11 0 "},"⋘":{"x_min":151,"x_max":1851,"ha":2002,"o":"m 954 0 l 151 401 l 954 803 l 954 728 l 302 401 l 954 74 l 954 0 m 1403 0 l 600 401 l 1403 803 l 1403 728 l 751 401 l 1403 74 l 1403 0 m 1851 0 l 1048 401 l 1851 803 l 1851 728 l 1199 401 l 1851 74 l 1851 0 "},"≂":{"x_min":151,"x_max":954,"ha":1104,"o":"m 954 627 l 954 560 l 151 560 l 151 627 l 954 627 m 193 175 l 151 175 q 327 392 161 392 q 554 321 398 392 l 613 294 q 798 230 756 230 q 912 376 895 230 l 954 376 q 774 160 940 160 q 593 216 718 160 l 553 234 l 492 261 q 308 322 358 322 q 225 279 258 322 q 193 175 193 237 "},"Б":{"x_min":130,"x_max":741,"ha":808,"o":"m 130 0 l 130 1004 l 690 1004 l 690 898 l 272 898 l 272 573 l 348 573 q 522 563 468 573 q 625 522 576 553 q 741 305 741 448 q 610 56 741 138 q 312 0 520 0 l 130 0 m 272 104 l 322 104 q 526 146 469 104 q 599 296 599 199 q 538 428 599 387 q 342 469 477 469 l 272 469 l 272 104 "},"ҝ":{"x_min":134,"x_max":860,"ha":926,"o":"m 134 0 l 134 737 l 268 737 l 268 415 l 369 415 l 369 565 l 452 565 l 452 415 l 456 415 q 527 432 502 415 q 577 497 553 449 l 600 542 l 615 573 q 703 706 664 676 q 825 737 742 737 l 825 637 q 765 618 785 637 q 713 531 745 599 l 700 504 l 683 467 q 586 371 653 405 q 670 320 641 352 q 748 197 699 289 l 775 145 q 860 0 821 58 l 712 0 q 669 80 691 41 l 633 145 q 515 315 562 272 l 452 315 l 452 163 l 369 163 l 369 315 l 268 315 l 268 0 l 134 0 "},"ҳ":{"x_min":60,"x_max":833,"ha":876,"o":"m 60 0 l 339 380 l 68 737 l 226 737 l 441 452 l 636 737 l 767 737 l 511 361 l 699 117 l 833 117 l 833 -168 l 699 -168 l 699 0 l 629 0 l 408 291 l 194 0 l 60 0 "},"г":{"x_min":134,"x_max":670,"ha":686,"o":"m 134 0 l 134 737 l 670 737 l 670 620 l 268 620 l 268 0 l 134 0 "},"⋈":{"x_min":151,"x_max":1235,"ha":1386,"o":"m 151 0 l 151 803 l 692 441 l 1235 803 l 1235 0 l 692 361 l 151 0 m 218 125 l 632 401 l 218 678 l 218 125 m 1168 125 l 1168 678 l 753 401 l 1168 125 "},"∥":{"x_min":226,"x_max":577,"ha":803,"o":"m 226 -201 l 226 1071 l 293 1071 l 293 -201 l 226 -201 m 510 -201 l 510 1071 l 577 1071 l 577 -201 l 510 -201 "},"∜":{"x_min":120,"x_max":1138,"ha":1121,"o":"m 138 341 l 120 378 l 299 469 l 567 -67 l 1093 1247 l 1138 1247 l 585 -134 l 526 -134 l 259 400 l 138 341 m 576 644 l 576 810 l 300 810 l 300 885 l 576 1247 l 667 1247 l 667 888 l 742 888 l 742 810 l 667 810 l 667 644 l 576 644 m 387 888 l 580 888 l 580 1138 l 387 888 "},"х":{"x_min":60,"x_max":789,"ha":852,"o":"m 60 0 l 339 380 l 68 737 l 226 737 l 441 452 l 636 737 l 767 737 l 512 362 l 789 0 l 630 0 l 408 291 l 194 0 l 60 0 "},"∯":{"x_min":150,"x_max":1088,"ha":1238,"o":"m 869 267 q 1038 450 1038 337 q 867 629 1038 559 l 870 561 l 870 334 l 869 267 m 867 214 q 805 -105 853 -9 q 660 -201 758 -201 q 560 -109 560 -201 q 622 -38 560 -38 q 679 -97 679 -38 q 658 -142 679 -120 q 684 -151 670 -151 q 761 6 761 -151 l 759 107 l 757 183 q 619 172 685 172 q 480 184 552 172 q 275 -201 455 -201 q 175 -109 175 -201 q 238 -38 175 -38 q 294 -97 294 -38 q 272 -142 294 -120 q 299 -151 285 -151 q 376 5 376 -151 l 374 107 l 370 214 q 150 445 150 299 q 370 681 150 598 q 577 1096 389 1096 q 678 1004 678 1096 q 616 933 678 933 q 558 991 558 933 q 579 1037 558 1018 q 553 1046 563 1046 q 475 896 475 1046 l 478 791 l 480 711 q 615 724 546 724 q 757 711 687 724 q 962 1096 776 1096 q 1063 1004 1063 1096 q 1000 933 1063 933 q 943 990 943 933 q 964 1037 943 1018 q 937 1046 948 1046 q 859 896 859 1046 l 862 791 l 866 681 q 1088 450 1088 598 q 867 214 1088 300 m 755 234 l 754 253 l 753 334 l 753 561 l 754 656 l 755 661 q 616 674 686 674 q 482 661 548 674 l 482 648 l 485 561 l 485 334 l 484 234 q 620 222 553 222 q 755 234 686 222 m 368 266 l 368 334 l 368 561 l 368 628 q 200 445 200 559 q 368 266 200 336 "},"}":{"x_min":92,"x_max":435,"ha":452,"o":"m 435 385 l 401 385 q 298 275 298 385 q 308 180 298 229 l 321 121 q 335 7 335 63 q 270 -138 335 -82 q 92 -201 205 -194 l 92 -101 l 110 -101 q 187 -76 156 -101 q 218 -17 218 -52 q 209 47 218 0 l 197 116 q 189 224 189 160 q 289 435 189 349 q 189 646 189 519 q 197 752 189 709 l 209 822 q 218 888 218 870 q 187 946 218 922 q 110 971 156 971 l 92 971 l 92 1071 q 270 1008 206 1064 q 335 861 335 952 q 321 748 335 806 l 308 689 q 298 592 298 640 q 401 485 298 485 l 435 485 l 435 385 "},"⊹":{"x_min":151,"x_max":954,"ha":1104,"o":"m 519 0 l 519 268 l 586 268 l 586 0 l 519 0 m 151 435 l 419 435 l 419 368 l 151 368 l 151 435 m 586 803 l 586 536 l 519 536 l 519 803 l 586 803 m 954 368 l 687 368 l 687 435 l 954 435 l 954 368 "},"Ч":{"x_min":54,"x_max":744,"ha":874,"o":"m 602 0 l 602 404 q 350 343 492 343 q 126 424 206 343 q 69 519 84 467 q 54 671 54 571 l 54 1004 l 196 1004 l 196 675 q 237 507 196 554 q 386 460 279 460 q 602 520 504 460 l 602 1004 l 744 1004 l 744 0 l 602 0 "},"⊸":{"x_min":151,"x_max":954,"ha":1104,"o":"m 151 435 l 606 435 q 778 577 636 577 q 902 525 851 577 q 954 401 954 474 q 902 277 954 329 q 778 226 851 226 q 667 265 715 226 q 606 368 619 304 l 151 368 l 151 435 m 887 401 q 855 478 887 446 q 778 510 823 510 q 701 478 733 510 q 670 401 670 446 q 701 324 670 356 q 778 293 733 293 q 855 324 823 293 q 887 401 887 356 "},"N":{"x_min":130,"x_max":897,"ha":1026,"o":"m 130 0 l 130 1004 l 269 1004 l 775 229 l 775 1004 l 897 1004 l 897 0 l 757 0 l 252 774 l 252 0 l 130 0 "},"≰":{"x_min":151,"x_max":954,"ha":1104,"o":"m 483 260 l 530 403 l 151 555 l 647 754 l 725 989 l 796 989 l 728 786 l 954 877 l 954 805 l 701 704 l 614 442 l 954 306 l 954 235 l 592 379 l 545 235 l 954 71 l 954 0 l 524 172 l 439 -83 l 369 -83 l 462 197 l 151 321 l 151 393 l 483 260 m 619 671 l 332 555 l 552 467 l 619 671 "},"⋑":{"x_min":151,"x_max":954,"ha":1104,"o":"m 151 803 l 552 803 q 836 685 719 803 q 954 401 954 568 q 836 117 954 234 q 552 0 719 0 l 151 0 l 151 67 l 552 67 q 788 164 690 67 q 887 401 887 262 q 788 637 887 539 q 552 736 690 736 l 151 736 l 151 803 m 151 602 l 552 602 q 694 543 635 602 q 753 401 753 484 q 694 259 753 318 q 552 201 635 201 l 151 201 l 151 268 l 551 268 q 646 306 607 268 q 686 401 686 345 q 646 496 686 457 q 551 535 607 535 l 151 535 l 151 602 "},"2":{"x_min":115,"x_max":717,"ha":878,"o":"m 115 0 l 115 117 q 350 414 173 253 l 427 482 q 575 748 575 616 q 524 880 575 832 q 385 929 474 929 q 140 849 281 929 l 140 966 q 405 1029 273 1029 q 631 953 546 1029 q 717 751 717 877 q 673 591 717 661 q 513 421 630 521 l 461 377 q 276 117 301 241 l 712 117 l 712 0 l 115 0 "},"∾":{"x_min":151,"x_max":954,"ha":1104,"o":"m 708 524 l 689 587 q 766 603 737 603 q 897 542 840 603 q 954 402 954 481 q 895 259 954 318 q 754 201 836 201 q 577 300 643 201 l 550 340 l 484 440 q 353 536 421 536 q 257 496 296 536 q 218 401 218 457 q 258 305 218 343 q 362 267 298 267 q 395 273 375 267 l 416 211 q 356 201 382 201 q 210 259 269 201 q 151 402 151 317 q 210 544 151 486 q 353 603 269 603 q 549 463 457 603 l 614 365 l 632 336 q 753 268 678 268 q 847 307 808 268 q 887 401 887 346 q 848 495 887 455 q 756 536 809 536 q 708 524 736 536 "},"∦":{"x_min":150,"x_max":838,"ha":988,"o":"m 318 206 l 150 38 l 150 133 l 318 299 l 318 1071 l 385 1071 l 385 367 l 603 584 l 603 1071 l 670 1071 l 670 651 l 838 819 l 838 725 l 670 558 l 670 -201 l 603 -201 l 603 490 l 385 273 l 385 -201 l 318 -201 l 318 206 "},"∟":{"x_min":151,"x_max":954,"ha":1104,"o":"m 151 0 l 151 803 l 218 803 l 218 67 l 954 67 l 954 0 l 151 0 "},"М":{"x_min":130,"x_max":1068,"ha":1196,"o":"m 130 0 l 130 1004 l 326 1004 l 606 226 l 891 1004 l 1068 1004 l 1068 0 l 935 0 l 934 817 l 657 67 l 522 67 l 252 819 l 252 0 l 130 0 "},"ь":{"x_min":138,"x_max":641,"ha":703,"o":"m 138 0 l 138 737 l 272 737 l 272 440 l 336 440 q 641 225 641 440 q 316 0 641 0 l 138 0 m 272 100 l 325 100 q 499 224 499 100 q 459 313 499 287 q 327 340 420 340 l 272 340 l 272 100 "},"⋧":{"x_min":151,"x_max":954,"ha":1104,"o":"m 535 154 l 586 308 l 657 308 l 596 126 l 614 118 q 797 54 757 54 q 912 200 895 54 l 954 200 q 774 -16 940 -16 q 593 40 717 -16 l 582 45 l 571 50 l 518 -108 l 448 -108 l 509 78 l 493 85 q 307 146 357 146 q 225 103 258 146 q 193 0 193 61 l 151 0 q 328 216 161 216 q 527 156 396 216 l 535 154 m 151 903 l 954 582 l 151 261 l 151 332 l 773 582 l 151 831 l 151 903 "},"Җ":{"x_min":38,"x_max":1180,"ha":1213,"o":"m 635 473 l 635 0 l 501 0 l 501 473 l 442 473 q 344 377 379 441 q 223 100 296 289 q 184 0 194 25 l 38 0 l 52 33 q 126 206 93 125 l 158 282 q 251 455 209 404 q 364 527 293 505 q 303 582 327 549 q 234 707 279 615 l 209 760 q 142 874 166 848 q 78 900 118 900 l 78 1004 l 92 1004 q 209 961 162 1004 q 314 802 256 918 l 335 759 l 362 704 q 428 597 403 622 q 501 571 454 573 l 501 1004 l 635 1004 l 635 571 q 709 602 682 576 q 773 704 736 628 q 800 759 791 740 l 821 802 q 926 961 879 918 q 1043 1004 973 1004 l 1058 1004 l 1058 900 q 993 874 1017 900 q 926 760 969 848 l 901 707 q 832 582 856 615 q 771 527 808 549 q 884 455 842 505 q 977 282 927 404 l 1008 206 q 1040 129 1035 140 l 1046 117 l 1180 117 l 1180 -201 l 1046 -201 l 1046 0 l 952 0 q 911 100 940 25 q 791 377 840 287 q 693 473 756 441 l 635 473 "},"⊙":{"x_min":134,"x_max":971,"ha":1104,"o":"m 552 -17 q 256 105 378 -17 q 134 401 134 227 q 256 697 134 575 q 552 820 378 820 q 848 697 726 820 q 971 401 971 575 q 848 105 971 227 q 552 -17 726 -17 m 552 50 q 801 153 698 50 q 904 401 904 256 q 801 650 904 547 q 552 753 698 753 q 303 650 406 753 q 201 401 201 547 q 304 153 201 256 q 552 50 407 50 m 477 326 l 477 477 l 628 477 l 628 326 l 477 326 "},"Ў":{"x_min":50,"x_max":903,"ha":891,"o":"m 395 319 l 50 1004 l 209 1004 l 478 470 l 769 1004 l 903 1004 l 490 249 q 335 48 408 97 q 119 0 263 0 l 93 0 l 93 117 l 120 117 q 270 148 220 117 q 373 278 320 180 l 395 319 m 247 1289 l 330 1289 q 473 1188 351 1188 q 616 1289 594 1188 l 699 1289 q 627 1143 688 1198 q 473 1088 565 1088 q 319 1142 380 1088 q 247 1289 257 1197 "},"€":{"x_min":-19,"x_max":800.75,"ha":878,"o":"m 235 365 l 236 362 q 341 158 263 231 q 532 86 419 86 q 800 190 660 86 l 800 67 q 663 -2 729 19 q 513 -25 597 -25 q 399 -12 452 -25 q 301 25 347 0 q 220 86 256 50 q 155 167 183 121 q 106 268 126 214 q 81 362 81 341 l 81 365 l -19 365 l 0 465 l 71 465 l 71 533 l 72 538 l -19 538 l 0 638 l 82 638 l 82 642 q 227 927 112 826 q 518 1029 341 1029 q 799 968 638 1029 l 799 835 q 639 900 705 878 q 507 922 574 922 q 431 909 467 922 q 362 871 394 896 q 305 813 330 847 q 256 724 279 778 q 233 642 233 670 l 233 638 l 648 638 l 627 538 l 223 538 l 223 511 l 224 469 l 224 465 l 613 465 l 593 365 l 235 365 "},"в":{"x_min":134,"x_max":654,"ha":729,"o":"m 134 0 l 134 737 l 390 737 q 563 695 502 737 q 624 576 624 653 q 483 385 624 442 q 654 186 654 330 q 590 49 654 98 q 417 0 527 0 l 134 0 m 268 100 l 323 100 q 475 120 436 100 q 514 198 514 140 q 463 298 514 260 q 331 337 413 337 l 268 337 l 268 100 m 268 425 l 335 425 q 488 549 488 425 q 343 637 488 637 l 268 637 l 268 425 "},"ҽ":{"x_min":17,"x_max":901.671875,"ha":1000,"o":"m 901 347 l 437 347 q 693 85 466 85 q 898 130 776 85 l 898 24 q 668 -17 763 -17 q 411 81 511 -17 q 301 347 312 179 l 276 347 q 17 551 17 347 q 30 659 17 602 l 132 659 q 113 563 113 614 q 148 471 113 496 q 279 447 184 447 l 307 447 q 414 672 331 591 q 622 753 497 753 q 828 657 755 753 q 901 387 901 562 l 901 347 m 443 447 l 767 447 q 614 653 767 653 q 443 447 460 653 "},"≡":{"x_min":151,"x_max":954,"ha":1104,"o":"m 151 117 l 151 184 l 954 184 l 954 117 l 151 117 m 151 368 l 151 435 l 954 435 l 954 368 l 151 368 m 151 619 l 151 686 l 954 686 l 954 619 l 151 619 "},"₦":{"x_min":50,"x_max":1085,"ha":1135,"o":"m 694 436 l 829 436 l 829 569 l 607 569 l 694 436 m 748 352 l 829 228 l 829 352 l 748 352 m 386 653 l 306 774 l 306 653 l 386 653 m 306 436 l 528 436 l 441 569 l 306 569 l 306 436 m 306 352 l 306 0 l 184 0 l 184 352 l 50 352 l 50 436 l 184 436 l 184 569 l 50 569 l 50 653 l 184 653 l 184 1004 l 323 1004 l 552 653 l 829 653 l 829 1004 l 951 1004 l 951 653 l 1085 653 l 1085 569 l 951 569 l 951 436 l 1085 436 l 1085 352 l 951 352 l 951 0 l 811 0 l 582 352 l 306 352 "},"⊻":{"x_min":119,"x_max":922,"ha":1104,"o":"m 119 0 l 119 67 l 922 67 l 922 0 l 119 0 m 822 803 l 520 201 l 219 803 l 293 803 l 520 352 l 747 803 l 822 803 "},"⋎":{"x_min":151,"x_max":954,"ha":1104,"o":"m 552 263 q 685 598 572 445 q 954 803 799 750 l 954 728 q 684 468 783 662 q 586 8 586 274 l 586 0 l 519 0 l 519 8 q 419 468 519 274 q 151 728 320 662 l 151 803 q 418 599 304 752 q 552 263 531 446 "},"С":{"x_min":71,"x_max":884,"ha":961,"o":"m 884 52 q 559 -25 735 -25 q 198 112 325 -25 q 71 501 71 249 q 200 890 71 752 q 567 1029 330 1029 q 883 985 701 1029 l 883 851 q 564 923 676 923 q 311 812 401 923 q 222 500 222 701 q 317 196 222 307 q 579 86 413 86 q 884 174 721 86 l 884 52 "},"њ":{"x_min":134,"x_max":1105,"ha":1167,"o":"m 134 0 l 134 737 l 268 737 l 268 440 l 603 440 l 603 737 l 737 737 l 737 440 l 801 440 q 1105 225 1105 440 q 780 0 1105 0 l 603 0 l 603 340 l 268 340 l 268 0 l 134 0 m 737 100 l 790 100 q 963 224 963 100 q 924 313 963 287 q 792 340 885 340 l 737 340 l 737 100 "},"≽":{"x_min":151,"x_max":954,"ha":1104,"o":"m 690 401 q 355 535 507 421 q 151 803 203 648 l 226 803 q 485 534 291 633 q 945 435 679 435 l 954 435 l 954 368 l 945 368 q 485 269 679 368 q 226 0 291 170 l 151 0 q 355 267 203 154 q 690 401 508 380 m 298 -100 q 516 171 345 75 q 954 268 688 268 l 954 201 l 921 199 q 564 119 711 199 q 373 -100 418 39 l 298 -100 "},"s":{"x_min":106,"x_max":601,"ha":708,"o":"m 106 26 l 106 149 q 333 83 236 83 q 429 114 391 83 q 467 192 467 145 q 360 305 467 261 l 282 339 q 110 546 110 411 q 178 697 110 642 q 364 753 246 753 q 517 736 426 753 l 545 731 l 545 620 q 366 653 433 653 q 273 627 308 653 q 239 559 239 602 q 336 457 239 498 l 401 430 q 555 332 510 383 q 601 204 601 281 q 524 45 601 107 q 328 -17 447 -17 q 106 26 236 -17 "},"⊪":{"x_min":151,"x_max":954,"ha":1104,"o":"m 352 0 l 352 803 l 419 803 l 419 0 l 352 0 m 553 0 l 553 803 l 620 803 l 620 435 l 954 435 l 954 368 l 620 368 l 620 0 l 553 0 m 151 0 l 151 803 l 218 803 l 218 0 l 151 0 "},"≿":{"x_min":151,"x_max":954,"ha":1104,"o":"m 690 685 q 355 819 508 705 q 151 1087 203 932 l 226 1087 q 485 818 291 917 q 945 719 679 719 l 954 719 l 954 652 l 945 652 q 485 553 679 652 q 226 284 291 454 l 151 284 q 355 552 203 438 q 690 685 507 665 m 193 0 l 151 0 q 328 216 161 216 q 554 145 397 216 l 613 118 q 797 54 757 54 q 912 200 895 54 l 954 200 q 774 -16 940 -16 q 593 40 718 -16 l 553 58 l 492 85 q 307 146 357 146 q 225 103 258 146 q 193 0 193 61 "},"?":{"x_min":25,"x_max":561,"ha":586,"o":"m 170 0 l 170 134 l 304 134 l 304 0 l 170 0 m 170 268 l 170 304 q 190 430 170 380 q 269 548 211 481 l 312 597 q 419 798 419 719 q 371 893 419 858 q 244 929 324 929 q 25 877 141 929 l 25 991 q 261 1029 150 1029 q 479 966 398 1029 q 561 799 561 904 q 537 696 561 739 q 448 590 514 653 l 406 551 q 323 451 343 491 q 304 342 304 410 l 304 268 l 170 268 "},"⊇":{"x_min":151,"x_max":954,"ha":1104,"o":"m 151 67 l 954 67 l 954 0 l 151 0 l 151 67 m 151 301 l 669 301 q 823 364 759 301 q 887 518 887 428 q 823 672 887 608 q 669 736 759 736 l 151 736 l 151 803 l 669 803 q 870 719 787 803 q 954 518 954 636 q 870 317 954 400 q 669 234 787 234 l 151 234 l 151 301 "},"c":{"x_min":75,"x_max":645,"ha":711,"o":"m 645 22 q 421 -17 515 -17 q 173 93 271 -17 q 75 372 75 204 q 172 652 75 552 q 444 753 269 753 q 637 729 530 753 l 637 617 q 452 651 523 651 q 287 573 349 651 q 226 368 226 496 q 289 167 226 244 q 456 91 353 91 q 645 137 548 91 l 645 22 "},"⊱":{"x_min":151,"x_max":954,"ha":1104,"o":"m 753 503 q 324 659 498 554 q 151 868 151 764 q 190 965 151 925 q 288 1005 230 1005 q 387 978 330 1005 l 355 917 q 291 938 321 938 q 218 869 218 938 q 473 662 218 771 q 937 536 771 536 l 954 536 l 954 469 l 937 469 q 474 342 771 469 q 218 139 218 234 q 292 67 218 67 q 355 87 322 67 l 387 26 q 288 0 329 0 q 190 39 230 0 q 151 136 151 78 q 323 345 151 240 q 753 503 496 450 "},"ҹ":{"x_min":54,"x_max":594,"ha":728,"o":"m 54 737 l 188 737 l 188 544 q 205 409 188 444 q 282 359 223 373 l 282 502 l 365 502 l 365 363 q 460 414 421 381 l 460 737 l 594 737 l 594 0 l 460 0 l 460 309 q 365 266 416 280 l 365 100 l 282 100 l 282 255 q 137 299 199 255 q 71 390 88 335 q 54 570 54 446 l 54 737 "},"∊":{"x_min":151,"x_max":773,"ha":923,"o":"m 680 22 q 442 -17 543 -17 q 227 63 304 -17 q 151 287 151 144 q 283 616 151 480 q 604 753 416 753 q 773 729 679 753 l 757 651 q 587 680 681 680 q 315 410 390 680 l 667 410 l 657 359 l 304 359 q 297 278 297 311 q 472 65 297 65 q 703 109 575 65 l 680 22 "},"н":{"x_min":134,"x_max":736,"ha":870,"o":"m 134 0 l 134 737 l 268 737 l 268 438 l 602 438 l 602 737 l 736 737 l 736 0 l 602 0 l 602 338 l 268 338 l 268 0 l 134 0 "},"(":{"x_min":83,"x_max":401,"ha":452,"o":"m 401 -109 l 401 -201 q 168 70 254 -101 q 83 435 83 241 q 168 799 83 628 q 401 1071 254 971 l 401 979 q 259 745 301 870 q 217 435 217 620 q 259 124 217 249 q 401 -109 301 0 "},"⊨":{"x_min":151,"x_max":954,"ha":1104,"o":"m 151 0 l 151 803 l 218 803 l 218 569 l 954 569 l 954 502 l 218 502 l 218 301 l 954 301 l 954 234 l 218 234 l 218 0 l 151 0 "},"м":{"x_min":134,"x_max":875,"ha":1009,"o":"m 134 0 l 134 737 l 279 737 l 502 160 l 719 737 l 875 737 l 875 0 l 738 0 l 739 559 l 547 50 l 418 50 l 238 511 l 238 0 l 134 0 "},"Қ":{"x_min":130,"x_max":854,"ha":887,"o":"m 631 0 l 620 21 l 576 109 l 519 226 q 341 465 431 404 l 272 465 l 272 0 l 130 0 l 130 1004 l 272 1004 l 272 571 l 278 571 q 363 598 335 571 q 462 745 392 625 l 505 819 l 540 881 q 621 977 580 949 q 723 1004 662 1004 l 741 1004 l 741 900 q 730 900 733 900 q 620 798 677 900 l 593 750 l 572 713 q 493 586 521 621 q 422 525 465 551 q 537 455 496 501 q 639 284 578 409 l 673 214 l 711 134 l 720 117 l 854 117 l 854 -218 l 720 -218 l 720 0 l 631 0 "},"⋙":{"x_min":151,"x_max":1851,"ha":2002,"o":"m 1048 0 l 1048 74 l 1700 401 l 1048 728 l 1048 803 l 1851 401 l 1048 0 m 600 0 l 600 74 l 1252 401 l 600 728 l 600 803 l 1403 401 l 600 0 m 151 0 l 151 74 l 803 401 l 151 728 l 151 803 l 954 401 l 151 0 "},":":{"x_min":153,"x_max":287,"ha":439,"o":"m 153 0 l 153 134 l 287 134 l 287 0 l 153 0 m 153 603 l 153 737 l 287 737 l 287 603 l 153 603 "},"з":{"x_min":58,"x_max":591,"ha":667,"o":"m 58 15 l 58 128 q 275 87 163 87 q 402 122 353 87 q 451 215 451 158 q 236 350 451 350 l 219 350 l 219 438 l 241 438 q 432 544 432 438 q 261 651 432 651 q 71 614 175 651 l 71 722 q 284 753 167 753 q 493 705 418 753 q 568 573 568 658 q 433 395 568 467 q 591 214 591 347 q 499 48 591 114 q 270 -17 408 -17 q 58 15 181 -17 "},"ѫ":{"x_min":35,"x_max":947,"ha":974,"o":"m 495 402 l 513 402 l 746 637 l 260 637 l 495 402 m 947 0 l 803 0 l 793 18 l 762 78 q 719 157 736 128 q 668 243 670 239 q 603 327 635 307 l 558 327 l 558 0 l 424 0 l 424 327 l 378 327 q 313 243 346 307 q 263 157 311 239 q 219 78 246 128 l 189 18 l 179 0 l 35 0 q 90 97 65 48 q 120 156 116 149 l 156 223 l 183 274 q 299 373 223 347 l 343 383 l 90 637 l 90 737 l 884 737 l 884 637 l 630 383 q 797 274 748 364 l 824 223 l 861 156 q 891 97 865 149 q 947 0 916 48 "},"Ґ":{"x_min":130,"x_max":692,"ha":707,"o":"m 130 0 l 130 1004 l 558 1004 l 558 1205 l 692 1205 l 692 898 l 272 898 l 272 0 l 130 0 "},"і":{"x_min":134,"x_max":268,"ha":402,"o":"m 134 0 l 134 737 l 268 737 l 268 0 l 134 0 m 134 870 l 134 1004 l 268 1004 l 268 870 l 134 870 "},"⊋":{"x_min":151,"x_max":954,"ha":1104,"o":"m 520 67 l 553 167 l 624 167 l 590 67 l 954 67 l 954 0 l 568 0 l 518 -151 l 448 -151 l 498 0 l 151 0 l 151 67 l 520 67 m 151 301 l 669 301 q 823 364 759 301 q 887 518 887 428 q 823 672 887 608 q 669 736 759 736 l 151 736 l 151 803 l 669 803 q 870 719 787 803 q 954 518 954 636 q 870 317 954 400 q 669 234 787 234 l 151 234 l 151 301 "},"V":{"x_min":24,"x_max":902,"ha":908,"o":"m 403 0 l 24 1004 l 166 1004 l 477 180 l 777 1004 l 902 1004 l 537 0 l 403 0 "},"∨":{"x_min":151,"x_max":954,"ha":1104,"o":"m 151 803 l 226 803 l 553 150 l 879 803 l 954 803 l 552 0 l 151 803 "},"ӄ":{"x_min":134,"x_max":661,"ha":745,"o":"m 134 0 l 134 737 l 268 737 l 268 415 l 280 415 q 350 433 329 418 q 397 497 372 449 l 420 542 l 435 573 q 523 706 484 676 q 645 737 561 737 l 645 637 q 585 618 604 637 q 533 531 565 599 l 520 504 l 503 467 q 409 373 472 403 q 590 285 520 361 q 661 101 661 209 q 583 -113 661 -25 q 392 -201 505 -201 q 352 -197 374 -201 l 352 -97 q 395 -101 378 -101 q 489 -41 452 -101 q 527 110 527 18 q 463 260 527 205 q 290 315 400 315 l 268 315 l 268 0 l 134 0 "},"≑":{"x_min":151,"x_max":954,"ha":1104,"o":"m 485 -26 l 485 108 l 619 108 l 619 -26 l 485 -26 m 151 242 l 151 309 l 954 309 l 954 242 l 151 242 m 151 494 l 151 561 l 954 561 l 954 494 l 151 494 m 485 694 l 485 828 l 619 828 l 619 694 l 485 694 "},"У":{"x_min":50,"x_max":903,"ha":891,"o":"m 395 319 l 50 1004 l 209 1004 l 478 470 l 769 1004 l 903 1004 l 490 249 q 335 48 408 97 q 119 0 263 0 l 93 0 l 93 117 l 120 117 q 270 148 220 117 q 373 278 320 180 l 395 319 "},"ҥ":{"x_min":134,"x_max":934,"ha":950,"o":"m 733 0 l 599 0 l 599 338 l 268 338 l 268 0 l 134 0 l 134 737 l 268 737 l 268 438 l 599 438 l 599 737 l 934 737 l 934 637 l 733 637 l 733 0 "},"@":{"x_min":63,"x_max":1142,"ha":1192,"o":"m 741 29 q 501 -25 618 -25 q 187 92 311 -25 q 63 390 63 210 q 228 811 63 620 q 442 970 316 912 q 697 1029 568 1029 q 1014 906 886 1029 q 1142 603 1142 784 q 1039 318 1142 436 q 791 201 937 201 q 678 278 678 201 q 692 350 678 307 l 719 435 l 711 435 q 448 201 588 201 q 353 242 389 201 q 318 352 318 283 q 366 556 318 448 q 487 727 415 664 q 674 799 570 799 q 727 797 695 799 q 780 795 760 795 l 873 795 l 788 363 q 783 321 783 341 q 835 276 783 276 q 996 372 925 276 q 1067 591 1067 468 q 959 850 1067 747 q 686 954 851 954 q 304 784 471 954 q 138 397 138 615 q 242 147 138 244 q 512 50 347 50 q 716 99 618 50 l 741 29 m 727 565 l 754 697 q 645 720 691 720 q 534 681 577 720 q 454 553 487 641 q 422 380 422 465 q 478 284 422 284 q 588 361 519 284 q 727 565 656 438 "},"ү":{"x_min":8,"x_max":665,"ha":674,"o":"m 264 0 l 264 309 l 8 737 l 159 737 l 348 420 l 547 737 l 665 737 l 398 309 l 398 0 l 264 0 "},"≖":{"x_min":151,"x_max":954,"ha":1104,"o":"m 151 243 l 151 310 l 423 310 q 394 402 394 352 q 423 494 394 452 l 151 494 l 151 561 l 954 561 l 954 494 l 682 494 q 712 402 712 451 q 682 310 712 351 l 954 310 l 954 243 l 151 243 m 461 402 q 488 337 461 364 q 553 310 515 310 q 617 337 590 310 q 645 402 645 364 q 617 466 645 439 q 553 494 590 494 q 488 466 515 494 q 461 402 461 439 "},"∄":{"x_min":151,"x_max":772,"ha":922,"o":"m 672 921 l 612 921 l 491 556 l 672 556 l 672 921 m 151 0 l 151 83 l 262 83 l 392 473 l 168 473 l 168 556 l 420 556 l 541 921 l 151 921 l 151 1005 l 569 1005 l 614 1139 l 685 1139 l 640 1005 l 772 1005 l 772 0 l 305 0 l 254 -151 l 184 -151 l 234 0 l 151 0 m 672 473 l 463 473 l 332 83 l 672 83 l 672 473 "},"i":{"x_min":134,"x_max":268,"ha":402,"o":"m 134 0 l 134 737 l 268 737 l 268 0 l 134 0 m 134 870 l 134 1004 l 268 1004 l 268 870 l 134 870 "},"ќ":{"x_min":134,"x_max":680,"ha":746,"o":"m 268 315 l 268 0 l 134 0 l 134 737 l 268 737 l 268 415 l 280 415 q 350 433 329 418 q 397 497 372 449 l 420 542 l 435 573 q 523 706 484 676 q 645 737 561 737 l 645 637 q 585 618 605 637 q 533 531 565 599 l 520 504 l 503 467 q 406 371 473 405 q 490 320 461 352 q 568 197 519 289 l 595 145 q 680 0 640 58 l 532 0 q 489 80 510 41 l 452 145 q 335 315 382 272 l 268 315 m 283 871 l 446 1089 l 601 1089 l 383 871 l 283 871 "},"⋬":{"x_min":151,"x_max":954,"ha":1104,"o":"m 443 67 l 530 330 l 151 482 l 647 681 l 732 937 l 803 937 l 728 713 l 954 803 l 954 161 l 593 305 l 514 67 l 954 67 l 954 0 l 491 0 l 441 -151 l 371 -151 l 421 0 l 151 0 l 151 67 l 443 67 m 614 369 l 887 260 l 887 704 l 701 630 l 614 369 m 551 393 l 619 597 l 331 482 l 551 393 "},"≤":{"x_min":151,"x_max":954,"ha":1104,"o":"m 151 0 l 151 68 l 954 68 l 954 0 l 151 0 m 954 803 l 954 731 l 333 482 l 954 232 l 954 161 l 151 482 l 954 803 "},"ё":{"x_min":75,"x_max":676.671875,"ha":774,"o":"m 673 24 q 443 -17 538 -17 q 177 91 279 -17 q 75 371 75 199 q 165 645 75 538 q 397 753 256 753 q 603 657 530 753 q 676 387 676 562 l 676 347 l 211 347 q 468 85 240 85 q 673 130 551 85 l 673 24 m 217 447 l 542 447 q 388 653 542 653 q 217 447 234 653 m 208 871 l 208 988 l 325 988 l 325 871 l 208 871 m 476 871 l 476 988 l 593 988 l 593 871 l 476 871 "},"∗":{"x_min":179,"x_max":924,"ha":1104,"o":"m 924 559 l 601 401 l 924 243 l 873 157 l 576 358 l 601 0 l 501 0 l 526 358 l 229 157 l 179 243 l 501 401 l 179 559 l 229 646 l 526 444 l 501 803 l 601 803 l 576 444 l 873 646 l 924 559 "},"∁":{"x_min":151,"x_max":846,"ha":996,"o":"m 846 154 q 736 -102 827 -12 q 498 -193 645 -193 q 252 -91 354 -193 q 151 154 151 10 l 151 848 q 252 1094 151 993 q 498 1196 354 1196 q 736 1105 645 1196 q 846 849 827 1015 l 746 849 q 667 1031 732 967 q 498 1096 603 1096 q 323 1023 395 1096 q 251 848 251 951 l 251 154 q 329 -28 264 35 q 498 -93 393 -93 q 667 -28 603 -93 q 746 154 732 36 l 846 154 "},"m":{"x_min":134,"x_max":1172,"ha":1297,"o":"m 134 0 l 134 737 l 268 737 l 268 598 q 518 753 365 753 q 720 598 666 753 q 967 753 815 753 q 1118 695 1064 753 q 1172 535 1172 638 l 1172 0 l 1038 0 l 1038 514 q 938 640 1038 640 q 720 493 834 640 l 720 0 l 586 0 l 586 515 q 484 642 586 642 q 268 494 383 642 l 268 0 l 134 0 "},"∃":{"x_min":150,"x_max":771,"ha":922,"o":"m 771 1004 l 771 0 l 150 0 l 150 83 l 671 83 l 671 473 l 166 473 l 166 556 l 671 556 l 671 920 l 150 920 l 150 1004 l 771 1004 "},"Е":{"x_min":130,"x_max":720,"ha":753,"o":"m 130 0 l 130 1004 l 690 1004 l 690 898 l 272 898 l 272 575 l 623 575 l 623 470 l 272 470 l 272 106 l 720 106 l 720 0 l 130 0 "},"⋓":{"x_min":151,"x_max":954,"ha":1104,"o":"m 151 0 l 151 401 q 268 685 151 568 q 552 803 386 803 q 836 685 718 803 q 954 401 954 568 l 954 0 l 887 0 l 887 401 q 789 637 887 539 q 552 736 691 736 q 315 637 413 736 q 218 401 218 539 l 218 0 l 151 0 m 352 0 l 352 401 q 410 543 352 484 q 552 602 469 602 q 694 543 635 602 q 753 401 753 484 l 753 0 l 686 0 l 686 400 q 646 495 686 456 q 552 535 607 535 q 458 495 497 535 q 419 400 419 456 l 419 0 l 352 0 "},"Э":{"x_min":58,"x_max":765,"ha":837,"o":"m 58 14 l 58 145 q 291 92 190 92 q 517 191 433 92 q 614 473 602 291 l 233 473 l 233 577 l 614 577 q 527 828 614 731 q 303 925 440 925 q 71 863 191 925 l 71 977 q 317 1029 180 1029 q 632 913 525 1029 q 729 742 693 848 q 765 521 765 636 q 612 100 765 261 q 291 -25 493 -25 q 58 14 188 -25 "},"ю":{"x_min":134,"x_max":1055,"ha":1131,"o":"m 545 368 q 592 157 545 231 q 728 83 640 83 q 865 157 817 83 q 913 368 913 231 q 865 578 913 504 q 728 653 817 653 q 592 578 640 653 q 545 368 545 504 m 405 319 l 268 319 l 268 0 l 134 0 l 134 737 l 268 737 l 268 419 l 405 419 q 504 663 417 574 q 728 753 590 753 q 966 648 877 753 q 1055 368 1055 544 q 966 87 1055 191 q 728 -17 877 -17 q 504 71 590 -17 q 405 319 419 160 "},"∉":{"x_min":151,"x_max":954.453125,"ha":1104,"o":"m 432 -151 l 484 0 q 245 138 339 25 q 151 401 151 252 q 268 685 151 568 q 552 803 386 803 l 750 803 l 800 954 l 871 954 l 820 803 l 954 803 l 954 736 l 798 736 l 697 435 l 954 435 l 954 368 l 675 368 l 575 67 l 954 67 l 954 0 l 552 0 l 502 -151 l 432 -151 m 220 435 l 627 435 l 727 736 l 552 736 q 327 647 424 736 q 220 435 230 559 m 220 368 q 308 170 228 254 q 505 67 388 86 l 605 368 l 220 368 "},"≹":{"x_min":151,"x_max":954,"ha":1104,"o":"m 586 318 l 586 114 l 954 -32 l 954 -104 l 586 43 l 586 -168 l 519 -168 l 519 69 l 151 216 l 519 364 l 519 508 l 151 361 l 151 432 l 519 580 l 519 784 l 151 931 l 151 1004 l 519 856 l 519 1071 l 586 1071 l 586 829 l 954 682 l 586 535 l 586 390 l 954 538 l 954 466 l 586 318 m 519 291 l 333 216 l 519 141 l 519 291 m 586 607 l 773 682 l 586 757 l 586 607 "},"K":{"x_min":130,"x_max":882.765625,"ha":907,"o":"m 130 0 l 130 1004 l 264 1004 l 264 510 l 670 1004 l 813 1004 l 420 524 l 882 0 l 702 0 l 264 508 l 264 0 l 130 0 "},"7":{"x_min":151,"x_max":795,"ha":878,"o":"m 209 0 q 264 202 228 117 q 393 437 301 288 l 667 879 l 151 879 l 151 1004 l 795 1004 l 795 879 q 363 0 409 309 l 209 0 "},"п":{"x_min":134,"x_max":736,"ha":870,"o":"m 134 0 l 134 737 l 736 737 l 736 0 l 602 0 l 602 620 l 268 620 l 268 0 l 134 0 "},"⊜":{"x_min":134,"x_max":971,"ha":1104,"o":"m 211 318 l 893 318 q 904 401 904 363 q 893 485 904 438 l 211 485 q 201 401 201 438 q 211 318 201 363 m 234 552 l 869 552 q 552 753 771 753 q 234 552 333 753 m 552 -17 q 256 105 378 -17 q 134 401 134 227 q 256 697 134 575 q 552 820 378 820 q 848 697 726 820 q 971 401 971 575 q 848 105 971 227 q 552 -17 726 -17 m 234 251 q 552 50 333 50 q 869 251 771 50 l 234 251 "},"∬":{"x_min":150,"x_max":1038,"ha":1188,"o":"m 247 -142 q 274 -151 260 -151 q 351 6 351 -151 l 349 107 l 343 334 l 343 561 q 391 971 343 846 q 552 1096 440 1096 q 653 1004 653 1096 q 591 933 653 933 q 533 990 533 933 q 554 1037 533 1018 q 528 1046 538 1046 q 450 910 450 1046 l 453 790 l 457 648 l 460 560 l 460 334 q 250 -201 460 -201 q 150 -109 150 -201 q 213 -38 150 -38 q 269 -97 269 -38 q 247 -142 269 -120 m 633 -142 q 659 -151 646 -151 q 736 6 736 -151 l 734 107 l 728 334 l 728 561 q 776 971 728 846 q 937 1096 825 1096 q 1038 1004 1038 1096 q 975 933 1038 933 q 918 990 918 933 q 939 1037 918 1018 q 912 1046 923 1046 q 834 910 834 1046 l 837 790 l 842 648 l 845 560 l 845 334 q 635 -201 845 -201 q 535 -109 535 -201 q 597 -38 535 -38 q 654 -97 654 -38 q 633 -142 654 -120 "},"∠":{"x_min":151,"x_max":954,"ha":1104,"o":"m 151 0 l 954 803 l 954 709 l 313 67 l 954 67 l 954 0 l 151 0 "},"Y":{"x_min":12,"x_max":848,"ha":865,"o":"m 347 0 l 347 419 l 12 1004 l 174 1004 l 434 551 l 715 1004 l 848 1004 l 489 421 l 489 0 l 347 0 "},"E":{"x_min":130,"x_max":720,"ha":753,"o":"m 130 0 l 130 1004 l 690 1004 l 690 898 l 272 898 l 272 575 l 623 575 l 623 470 l 272 470 l 272 106 l 720 106 l 720 0 l 130 0 "},"⋞":{"x_min":151,"x_max":954,"ha":1104,"o":"m 414 401 q 750 267 597 381 q 954 0 903 153 l 879 0 q 620 268 813 169 q 159 368 426 368 l 151 368 l 151 435 l 159 435 q 619 534 425 435 q 879 803 813 633 l 954 803 q 749 535 902 649 q 414 401 597 421 m 808 903 q 589 631 761 727 q 151 535 417 535 l 151 602 l 183 603 q 541 683 394 603 q 733 903 688 763 l 808 903 "},"⊟":{"x_min":151,"x_max":954,"ha":1104,"o":"m 151 0 l 151 803 l 954 803 l 954 0 l 151 0 m 887 67 l 887 368 l 218 368 l 218 67 l 887 67 m 887 435 l 887 736 l 218 736 l 218 435 l 887 435 "},"Є":{"x_min":71,"x_max":778,"ha":837,"o":"m 778 14 q 541 -25 659 -25 q 195 115 320 -25 q 71 505 71 256 q 198 886 71 744 q 538 1029 325 1029 q 765 990 647 1029 l 765 876 q 536 925 632 925 q 324 831 408 925 q 222 577 239 738 l 601 577 l 601 473 l 222 473 q 315 199 222 310 q 545 88 408 88 q 778 146 660 88 l 778 14 "},"ҕ":{"x_min":134,"x_max":691,"ha":758,"o":"m 268 402 q 439 457 357 457 q 620 368 550 457 q 691 140 691 280 q 610 -105 691 -10 q 401 -201 529 -201 q 360 -198 384 -201 l 360 -99 l 373 -100 q 390 -101 383 -101 q 504 -34 459 -101 q 549 135 549 32 q 510 280 549 225 q 411 336 472 336 q 268 284 346 336 l 268 0 l 134 0 l 134 737 l 590 737 l 590 637 l 268 637 l 268 402 "},"⊧":{"x_min":201,"x_max":603,"ha":803,"o":"m 201 0 l 201 803 l 268 803 l 268 569 l 603 569 l 603 502 l 268 502 l 268 301 l 603 301 l 603 234 l 268 234 l 268 0 l 201 0 "},"|":{"x_min":226,"x_max":294,"ha":519,"o":"m 226 -201 l 226 1071 l 294 1071 l 294 -201 l 226 -201 "},"⊾":{"x_min":151,"x_max":954,"ha":1104,"o":"m 151 0 l 151 803 l 218 803 l 218 560 q 556 408 420 545 q 711 67 693 272 l 954 67 l 954 0 l 151 0 m 644 67 q 509 361 626 244 q 218 493 392 478 l 218 67 l 644 67 "},"џ":{"x_min":134,"x_max":736,"ha":870,"o":"m 134 0 l 134 737 l 268 737 l 268 117 l 602 117 l 602 737 l 736 737 l 736 0 l 502 0 l 502 -168 l 368 -168 l 368 0 l 134 0 "},"⋣":{"x_min":151,"x_max":954,"ha":1104,"o":"m 466 0 l 416 -151 l 346 -151 l 396 0 l 151 0 l 151 67 l 418 67 l 474 234 l 151 234 l 151 301 l 496 301 l 641 736 l 151 736 l 151 803 l 664 803 l 714 954 l 785 954 l 734 803 l 954 803 l 954 234 l 544 234 l 489 67 l 954 67 l 954 0 l 466 0 m 567 301 l 887 301 l 887 736 l 712 736 l 567 301 "},"⊤":{"x_min":151,"x_max":954,"ha":1104,"o":"m 151 803 l 954 803 l 954 736 l 586 736 l 586 0 l 519 0 l 519 736 l 151 736 l 151 803 "},"љ":{"x_min":25,"x_max":1050,"ha":1113,"o":"m 25 0 l 25 117 q 106 150 76 119 q 157 254 135 180 q 205 664 205 412 l 205 737 l 682 737 l 682 440 l 746 440 q 1050 225 1050 440 q 726 0 1050 0 l 548 0 l 548 637 l 334 637 l 334 624 q 259 156 334 316 q 25 0 186 0 m 682 100 l 735 100 q 908 224 908 100 q 869 313 908 287 q 737 340 830 340 l 682 340 l 682 100 "},"җ":{"x_min":33,"x_max":1045,"ha":1088,"o":"m 438 0 l 438 326 l 376 326 q 311 242 344 306 q 261 157 309 238 q 217 77 244 128 l 187 18 l 177 0 l 33 0 q 88 97 63 48 q 118 156 114 149 l 154 223 l 181 274 q 297 373 221 347 q 202 492 244 404 l 189 520 q 173 556 184 530 q 139 617 154 602 q 95 637 124 632 l 95 737 l 102 737 q 196 705 161 737 q 271 582 230 673 l 286 546 q 344 446 320 472 q 404 419 368 419 l 438 419 l 438 737 l 572 737 l 572 419 l 605 419 q 665 445 641 419 q 722 546 689 471 l 738 582 q 813 705 779 673 q 907 737 847 737 l 914 737 l 914 637 q 869 617 884 632 q 836 556 855 602 q 820 520 825 530 l 807 492 q 711 373 765 404 q 827 274 787 347 l 854 223 l 890 156 l 911 117 l 1045 117 l 1045 -168 l 911 -168 l 911 0 l 832 0 l 822 18 l 791 77 q 748 157 765 128 q 698 242 700 238 q 633 326 665 306 l 572 326 l 572 0 l 438 0 "},"һ":{"x_min":134,"x_max":674,"ha":728,"o":"m 268 737 l 268 427 q 446 482 350 482 q 625 404 563 482 q 674 167 674 343 l 674 0 l 540 0 l 540 193 q 514 337 540 303 q 417 382 481 382 q 268 322 335 382 l 268 0 l 134 0 l 134 737 l 268 737 "},"∢":{"x_min":151,"x_max":954,"ha":1104,"o":"m 729 233 l 954 140 l 928 79 l 707 170 q 576 -24 655 59 l 529 23 q 645 196 600 98 l 151 401 l 645 606 q 529 779 602 702 l 576 827 q 707 632 658 740 l 928 724 l 954 662 l 729 569 q 753 401 753 481 q 729 233 753 320 m 667 259 q 687 400 687 331 q 667 543 687 473 l 327 401 l 667 259 "},"∋":{"x_min":151,"x_max":954,"ha":1104,"o":"m 151 67 l 552 67 q 778 154 681 67 q 885 368 875 242 l 151 368 l 151 435 l 885 435 q 778 647 875 559 q 552 736 681 736 l 151 736 l 151 803 l 552 803 q 836 685 719 803 q 954 401 954 568 q 836 117 954 234 q 552 0 719 0 l 151 0 l 151 67 "},"й":{"x_min":134,"x_max":736,"ha":870,"o":"m 134 0 l 134 737 l 259 737 l 259 179 l 602 737 l 736 737 l 736 0 l 611 0 l 611 557 l 268 0 l 134 0 m 235 1072 l 318 1072 q 461 971 339 971 q 604 1072 582 971 l 687 1072 q 615 926 676 981 q 461 871 553 871 q 307 925 368 871 q 235 1072 245 980 "},"∶":{"x_min":226,"x_max":360,"ha":585,"o":"m 226 0 l 226 134 l 360 134 l 360 0 l 226 0 m 226 335 l 226 469 l 360 469 l 360 335 l 226 335 m 226 669 l 226 803 l 360 803 l 360 669 l 226 669 "},"q":{"x_min":75,"x_max":740,"ha":874,"o":"m 606 -268 l 606 138 q 360 -17 524 -17 q 151 80 227 -17 q 75 345 75 177 q 161 641 75 529 q 388 753 247 753 q 606 652 519 753 l 606 737 l 740 737 l 740 -268 l 606 -268 m 606 561 q 409 653 502 653 q 267 576 317 653 q 217 358 217 499 q 388 100 217 100 q 606 221 499 100 l 606 561 "},"b":{"x_min":134,"x_max":799,"ha":874,"o":"m 134 -8 l 134 1071 l 268 1071 l 268 598 q 513 753 349 753 q 722 655 646 753 q 799 390 799 558 q 712 95 799 207 q 485 -17 626 -17 q 268 83 354 -17 l 251 -8 l 134 -8 m 268 175 q 464 83 371 83 q 606 160 556 83 q 657 376 657 237 q 486 636 657 636 q 268 514 374 636 l 268 175 "},"Ӌ":{"x_min":54,"x_max":744,"ha":874,"o":"m 468 104 l 602 104 l 602 437 q 342 343 491 343 q 127 424 207 343 q 69 519 84 467 q 54 671 54 571 l 54 1004 l 196 1004 l 196 675 q 236 509 196 558 q 371 460 276 460 q 602 563 502 460 l 602 1004 l 744 1004 l 744 0 l 602 0 l 602 -218 l 468 -218 l 468 104 "},"≕":{"x_min":151,"x_max":954,"ha":1104,"o":"m 820 590 l 954 590 l 954 456 l 820 456 l 820 590 m 151 557 l 686 557 l 686 490 l 151 490 l 151 557 m 820 356 l 954 356 l 954 222 l 820 222 l 820 356 m 151 322 l 686 322 l 686 255 l 151 255 l 151 322 "},"≮":{"x_min":151,"x_max":954,"ha":1104,"o":"m 468 242 l 151 401 l 595 623 l 672 853 l 743 853 l 680 666 l 954 803 l 954 728 l 650 576 l 549 276 l 954 74 l 954 0 l 529 212 l 441 -50 l 371 -50 l 468 242 m 490 306 l 566 534 l 302 401 l 490 306 "},"Ҟ":{"x_min":13,"x_max":802,"ha":844,"o":"m 151 0 l 151 770 l 13 770 l 13 870 l 151 870 l 151 1004 l 293 1004 l 293 870 l 431 870 l 431 770 l 293 770 l 293 571 l 300 571 q 384 598 355 571 q 484 745 413 625 l 526 819 l 561 881 q 641 977 601 949 q 744 1004 682 1004 l 761 1004 l 761 900 q 750 900 754 900 q 641 798 698 900 l 614 750 l 593 713 q 514 586 542 621 q 444 525 486 551 q 558 455 516 501 q 660 284 599 409 l 694 214 q 732 135 701 201 q 802 0 768 58 l 651 0 l 640 21 l 596 109 l 540 226 q 362 465 452 404 l 293 465 l 293 0 l 151 0 "},"≳":{"x_min":151,"x_max":954,"ha":1104,"o":"m 151 903 l 954 582 l 151 261 l 151 332 l 772 582 l 151 831 l 151 903 m 193 0 l 151 0 q 328 216 161 216 q 554 145 397 216 l 613 118 q 797 54 757 54 q 912 200 895 54 l 954 200 q 774 -16 940 -16 q 593 40 718 -16 l 553 58 l 492 85 q 307 146 357 146 q 225 103 258 146 q 193 0 193 61 "},"Ж":{"x_min":38,"x_max":1098,"ha":1135,"o":"m 635 473 l 635 0 l 501 0 l 501 473 l 442 473 q 344 377 379 441 q 223 100 296 289 q 184 0 194 25 l 38 0 l 52 33 q 126 206 93 125 l 158 282 q 251 455 209 404 q 364 527 293 505 q 303 582 327 549 q 234 707 279 615 l 209 760 q 142 874 166 848 q 78 900 118 900 l 78 1004 l 92 1004 q 209 961 162 1004 q 314 802 256 918 l 335 759 l 362 704 q 428 597 403 622 q 501 571 454 573 l 501 1004 l 635 1004 l 635 571 q 709 602 682 576 q 773 704 736 628 q 800 759 791 740 l 821 802 q 926 961 879 918 q 1043 1004 973 1004 l 1058 1004 l 1058 900 q 993 874 1017 900 q 926 760 969 848 l 901 707 q 832 582 856 615 q 771 527 808 549 q 884 455 842 505 q 977 282 926 404 l 1008 206 q 1083 33 1042 125 l 1098 0 l 952 0 q 911 100 940 26 q 791 377 841 285 q 748 438 767 420 q 685 473 728 455 l 635 473 "},"≺":{"x_min":151,"x_max":954,"ha":1104,"o":"m 414 401 q 749 268 597 381 q 954 0 902 154 l 879 0 q 619 269 813 170 q 159 368 425 368 l 151 368 l 151 435 l 159 435 q 619 534 425 435 q 879 803 813 633 l 954 803 q 749 535 902 648 q 414 401 597 421 "},"Н":{"x_min":130,"x_max":892,"ha":1021,"o":"m 130 0 l 130 1004 l 272 1004 l 272 581 l 750 581 l 750 1004 l 892 1004 l 892 0 l 750 0 l 750 475 l 272 475 l 272 0 l 130 0 "},"ф":{"x_min":83,"x_max":1037,"ha":1121,"o":"m 493 -268 l 493 50 q 347 -17 429 -17 q 158 91 234 -17 q 83 362 83 200 q 158 640 83 528 q 346 753 234 753 q 493 685 443 753 l 493 1004 l 627 1004 l 627 685 q 772 753 676 753 q 961 640 885 753 q 1037 362 1037 528 q 961 91 1037 200 q 772 -17 885 -17 q 627 50 690 -17 l 627 -268 l 493 -268 m 493 611 q 388 644 437 644 q 264 566 311 644 q 217 365 217 489 q 265 167 217 242 q 390 92 313 92 q 493 123 434 92 l 493 611 m 627 611 l 627 123 q 729 92 685 92 q 855 167 807 92 q 903 365 903 242 q 855 566 903 489 q 732 644 808 644 q 627 611 681 644 "},"л":{"x_min":25,"x_max":682,"ha":816,"o":"m 25 0 l 25 117 q 106 150 76 120 q 157 254 135 181 q 205 664 205 412 l 205 737 l 682 737 l 682 0 l 548 0 l 548 637 l 334 637 l 334 624 q 259 156 334 316 q 25 0 186 0 "},"₧":{"x_min":137,"x_max":1725,"ha":1832,"o":"m 137 0 l 137 1004 l 394 1004 q 576 984 512 1004 q 681 916 640 965 q 735 740 735 852 q 626 489 735 580 q 325 399 518 399 l 271 399 l 271 0 l 137 0 m 271 507 l 328 507 q 524 565 455 507 q 593 731 593 623 q 538 859 593 820 q 358 898 484 898 l 271 898 l 271 507 m 1186 0 q 1078 -17 1124 -17 q 920 41 977 -17 q 863 203 863 99 l 863 637 l 796 637 l 796 737 l 863 737 l 863 871 l 997 884 l 997 737 l 1189 737 l 1189 637 l 997 637 l 997 227 q 1121 83 997 83 q 1186 91 1148 83 l 1186 0 m 1231 26 l 1231 149 q 1457 83 1360 83 q 1553 114 1515 83 q 1591 192 1591 145 q 1484 305 1591 260 l 1406 338 q 1235 545 1235 410 q 1303 697 1235 642 q 1489 753 1371 753 q 1641 736 1550 753 l 1669 731 l 1669 620 q 1491 653 1558 653 q 1398 627 1433 653 q 1364 559 1364 601 q 1461 457 1364 498 l 1525 429 q 1679 332 1634 383 q 1725 204 1725 281 q 1648 45 1725 107 q 1453 -17 1572 -17 q 1231 26 1361 -17 "},"L":{"x_min":130,"x_max":724,"ha":741,"o":"m 130 0 l 130 1004 l 272 1004 l 272 106 l 724 106 l 724 0 l 130 0 "},"Щ":{"x_min":130,"x_max":1326,"ha":1368,"o":"m 130 0 l 130 1004 l 272 1004 l 272 125 l 590 125 l 590 1004 l 732 1004 l 732 125 l 1050 125 l 1050 1004 l 1192 1004 l 1192 125 l 1326 125 l 1326 -218 l 1192 -218 l 1192 0 l 130 0 "},"⊶":{"x_min":151,"x_max":1155,"ha":1305,"o":"m 500 368 q 438 265 486 304 q 326 226 390 226 q 202 277 254 226 q 151 401 151 329 q 202 525 151 474 q 326 577 254 577 q 500 435 469 577 l 807 435 q 979 577 836 577 q 1103 525 1052 577 q 1155 401 1155 474 q 1103 277 1155 329 q 979 226 1051 226 q 868 265 916 226 q 807 368 819 305 l 500 368 m 218 401 q 250 324 218 356 q 327 293 282 293 q 404 324 372 293 q 436 401 436 356 q 404 478 436 446 q 327 510 372 510 q 250 478 282 510 q 218 401 218 446 "},"Ҡ":{"x_min":0,"x_max":920,"ha":961,"o":"m 410 465 l 410 0 l 268 0 l 268 898 l 0 898 l 0 1004 l 410 1004 l 410 571 l 416 571 q 501 598 472 571 q 601 745 530 625 l 643 819 l 679 881 q 759 977 719 949 q 862 1004 800 1004 l 879 1004 l 879 898 q 868 898 872 898 q 758 796 816 898 l 732 748 l 711 712 q 631 586 660 622 q 560 525 602 551 q 675 454 633 501 q 777 284 716 408 l 812 214 q 849 135 818 200 q 920 0 886 57 l 769 0 l 758 21 l 714 109 l 657 226 q 478 465 569 404 l 410 465 "},"⊖":{"x_min":134,"x_max":971,"ha":1104,"o":"m 552 -17 q 256 105 379 -17 q 134 401 134 228 q 256 696 134 573 q 552 820 379 820 q 848 696 725 820 q 971 401 971 573 q 848 105 971 228 q 552 -17 725 -17 m 203 435 l 902 435 q 788 661 888 570 q 552 753 688 753 q 317 661 417 753 q 203 435 217 570 m 203 368 q 316 140 216 231 q 552 50 417 50 q 788 140 688 50 q 902 368 888 231 l 203 368 "},"≃":{"x_min":151,"x_max":954,"ha":1104,"o":"m 151 176 l 151 243 l 954 243 l 954 176 l 151 176 m 193 426 l 151 426 q 327 643 161 643 q 554 572 399 643 l 613 545 q 798 481 756 481 q 912 627 895 481 l 954 627 q 774 411 940 411 q 593 467 718 411 l 553 485 l 492 513 q 308 574 358 574 q 225 531 258 574 q 193 426 193 489 "}," ":{"x_min":0,"x_max":0,"ha":439},"⋟":{"x_min":151,"x_max":954,"ha":1104,"o":"m 690 401 q 355 535 507 421 q 151 803 203 649 l 226 803 q 485 534 291 633 q 945 435 679 435 l 954 435 l 954 368 l 945 368 q 485 268 679 368 q 226 0 291 169 l 151 0 q 355 267 202 153 q 690 401 507 381 m 298 903 l 373 903 q 564 683 418 763 q 921 603 710 603 l 954 602 l 954 535 q 516 631 688 535 q 298 903 345 727 "},"∑":{"x_min":151,"x_max":971,"ha":1121,"o":"m 151 0 l 151 96 l 606 472 l 184 940 l 184 1004 l 943 1004 l 943 828 l 868 828 l 866 840 l 863 897 q 854 939 863 930 q 813 948 846 948 l 747 949 l 334 949 l 727 512 l 224 96 l 741 96 l 833 100 q 892 147 889 100 l 895 208 l 896 221 l 971 221 l 971 0 l 151 0 "},"⋉":{"x_min":151,"x_max":954,"ha":1104,"o":"m 505 401 l 218 689 l 218 115 l 505 401 m 151 803 l 198 803 l 552 448 l 907 803 l 954 756 l 599 401 l 954 47 l 907 0 l 552 354 l 198 0 l 151 0 l 151 803 "},"⋰":{"x_min":151,"x_max":954,"ha":1104,"o":"m 151 0 l 151 134 l 285 134 l 285 0 l 151 0 m 486 334 l 486 468 l 620 468 l 620 334 l 486 334 m 820 669 l 820 803 l 954 803 l 954 669 l 820 669 "},"⊵":{"x_min":151,"x_max":954,"ha":1104,"o":"m 151 0 l 151 67 l 954 67 l 954 0 l 151 0 m 151 161 l 151 803 l 954 482 l 151 161 m 218 260 l 774 482 l 218 704 l 218 260 "},"≋":{"x_min":151,"x_max":954,"ha":1104,"o":"m 912 501 l 954 501 q 774 285 940 285 q 593 341 719 285 l 553 359 l 492 386 q 308 448 358 448 q 225 405 258 448 q 193 300 193 363 l 151 300 q 327 517 161 517 q 554 446 398 517 l 613 419 q 797 355 756 355 q 912 501 895 355 m 912 802 l 954 802 q 774 586 940 586 q 593 642 718 586 l 553 660 l 492 688 q 308 749 358 749 q 225 706 258 749 q 193 601 193 664 l 151 601 q 327 818 161 818 q 554 747 398 818 l 613 720 q 797 656 756 656 q 912 802 895 656 m 193 0 l 151 0 q 327 216 161 216 q 554 145 398 216 l 613 118 q 798 54 756 54 q 912 200 895 54 l 954 200 q 774 -16 940 -16 q 593 40 719 -16 l 553 57 l 492 85 q 307 146 358 146 q 225 103 258 146 q 193 0 193 61 "},"+":{"x_min":151,"x_max":955,"ha":1104,"o":"m 519 0 l 519 368 l 151 368 l 151 436 l 519 436 l 519 804 l 587 804 l 587 436 l 955 436 l 955 368 l 587 368 l 587 0 l 519 0 "},"ӂ":{"x_min":33,"x_max":977,"ha":1011,"o":"m 572 326 l 572 0 l 438 0 l 438 326 l 376 326 q 311 242 344 306 q 261 157 309 238 q 217 77 244 128 l 187 18 l 177 0 l 33 0 q 88 97 63 48 q 118 156 114 149 l 154 223 l 181 274 q 297 373 221 347 q 202 492 244 404 l 189 520 q 173 556 184 530 q 139 617 154 602 q 95 637 124 632 l 95 737 l 102 737 q 196 705 161 737 q 271 582 230 673 l 286 546 q 344 446 320 472 q 404 419 368 419 l 438 419 l 438 737 l 572 737 l 572 419 l 605 419 q 665 445 641 419 q 722 546 689 471 l 739 582 q 814 705 780 673 q 908 737 848 737 l 915 737 l 915 637 q 870 617 885 632 q 836 556 855 602 q 821 520 825 530 l 807 492 q 711 373 766 404 q 828 274 788 347 l 854 223 l 891 156 q 921 97 895 149 q 977 0 946 48 l 833 0 l 823 18 l 792 77 q 749 157 766 128 q 699 242 701 238 q 633 326 665 306 l 572 326 m 279 1072 l 362 1072 q 505 971 383 971 q 648 1072 626 971 l 731 1072 q 659 926 720 981 q 505 871 597 871 q 351 925 412 871 q 279 1072 289 980 "},"∪":{"x_min":151,"x_max":954,"ha":1104,"o":"m 954 803 l 954 401 q 836 117 954 235 q 552 0 719 0 q 268 117 385 0 q 151 401 151 234 l 151 803 l 218 803 l 218 401 q 315 165 218 263 q 552 67 413 67 q 789 165 691 67 q 887 401 887 263 l 887 803 l 954 803 "},"'":{"x_min":75,"x_max":243,"ha":318,"o":"m 108 703 l 75 1071 l 243 1071 l 209 703 l 108 703 "},"⊈":{"x_min":151,"x_max":954,"ha":1104,"o":"m 444 0 l 394 -151 l 324 -151 l 374 0 l 151 0 l 151 67 l 396 67 l 452 234 l 435 234 q 234 317 317 234 q 151 518 151 400 q 234 719 151 636 q 435 803 317 803 l 642 803 l 692 954 l 763 954 l 712 803 l 954 803 l 954 736 l 690 736 l 545 301 l 954 301 l 954 234 l 522 234 l 467 67 l 954 67 l 954 0 l 444 0 m 619 736 l 435 736 q 281 672 344 736 q 218 518 218 608 q 281 364 218 428 q 435 301 344 301 l 474 301 l 619 736 "},"≬":{"x_min":151,"x_max":620,"ha":770,"o":"m 385 -100 q 218 -201 305 -167 l 218 -159 q 342 -58 280 -127 q 151 435 151 158 q 342 928 151 712 q 218 1029 280 997 l 218 1071 q 385 970 305 1037 q 553 1071 464 1037 l 553 1029 q 428 928 490 997 q 620 435 620 713 q 428 -58 620 157 q 553 -159 490 -127 l 553 -201 q 385 -100 464 -167 m 385 -13 q 520 434 520 152 q 385 883 520 717 q 251 434 251 717 q 385 -13 251 152 "},"Р":{"x_min":130,"x_max":744,"ha":768,"o":"m 130 0 l 130 1004 l 403 1004 q 585 984 521 1004 q 690 916 649 965 q 744 740 744 852 q 635 489 744 580 q 334 399 526 399 l 271 399 l 271 0 l 130 0 m 271 507 l 328 507 q 524 565 455 507 q 594 731 594 623 q 539 859 594 820 q 358 898 484 898 l 271 898 l 271 507 "},"Ҽ":{"x_min":33,"x_max":1100.359375,"ha":1192,"o":"m 1099 494 l 448 494 q 544 206 448 320 q 786 92 640 92 q 1092 167 937 92 l 1092 39 q 790 -25 948 -25 q 436 114 566 -25 q 306 494 306 253 l 297 494 q 33 708 33 494 q 47 808 33 753 l 158 808 q 137 708 137 761 q 173 622 137 647 q 300 598 210 598 l 312 598 q 451 914 338 799 q 734 1029 563 1029 q 1100 548 1100 1029 l 1099 494 m 458 598 l 948 598 l 948 610 q 728 925 948 925 q 550 836 623 925 q 458 598 477 748 "},"щ":{"x_min":134,"x_max":1171,"ha":1230,"o":"m 134 0 l 134 737 l 268 737 l 268 117 l 519 117 l 519 737 l 653 737 l 653 117 l 903 117 l 903 737 l 1037 737 l 1037 117 l 1171 117 l 1171 -168 l 1037 -168 l 1037 0 l 134 0 "},"∲":{"x_min":150,"x_max":785,"ha":853,"o":"m 272 -142 q 299 -151 286 -151 q 376 6 376 -151 l 374 106 l 372 160 l 372 177 q 211 273 272 198 q 150 447 150 347 q 211 622 150 546 q 372 718 273 697 q 577 1096 393 1096 q 678 1004 678 1096 q 615 933 678 933 q 557 991 557 933 q 578 1037 557 1018 q 552 1046 562 1046 q 474 912 474 1046 l 477 790 l 478 749 l 479 718 q 694 515 649 682 l 785 515 l 667 312 q 479 177 605 204 l 478 160 q 275 -201 451 -201 q 175 -109 175 -201 q 237 -38 175 -38 q 294 -97 294 -38 q 272 -142 294 -120 m 370 229 l 369 253 l 368 334 l 368 560 l 369 655 l 370 666 q 200 447 200 614 q 370 229 200 281 m 550 515 l 642 515 q 481 666 605 628 l 482 648 l 485 560 l 485 334 l 483 229 q 637 365 595 263 l 550 515 "},"∎":{"x_min":151,"x_max":954,"ha":1104,"o":"m 151 0 l 151 803 l 954 803 l 954 0 l 151 0 "},"⊑":{"x_min":151,"x_max":954,"ha":1104,"o":"m 151 0 l 151 67 l 954 67 l 954 0 l 151 0 m 151 234 l 151 803 l 954 803 l 954 736 l 218 736 l 218 301 l 954 301 l 954 234 l 151 234 "},"≩":{"x_min":151,"x_max":954,"ha":1104,"o":"m 570 318 l 620 469 l 691 469 l 640 318 l 954 318 l 954 251 l 618 251 l 557 67 l 954 67 l 954 0 l 534 0 l 484 -151 l 414 -151 l 464 0 l 151 0 l 151 67 l 486 67 l 547 251 l 151 251 l 151 318 l 570 318 m 151 1055 l 954 733 l 151 412 l 151 483 l 773 733 l 151 982 l 151 1055 "},"⊮":{"x_min":151,"x_max":954,"ha":1104,"o":"m 613 435 l 753 853 l 824 853 l 684 435 l 954 435 l 954 368 l 662 368 l 522 -50 l 452 -50 l 591 368 l 419 368 l 419 0 l 352 0 l 352 803 l 419 803 l 419 435 l 613 435 m 151 0 l 151 803 l 218 803 l 218 0 l 151 0 "},"Ҹ":{"x_min":54,"x_max":744,"ha":874,"o":"m 602 0 l 602 437 q 434 354 536 380 l 434 158 l 351 158 l 351 343 l 341 343 q 127 424 208 343 q 69 519 84 467 q 54 671 54 571 l 54 1004 l 196 1004 l 196 675 q 228 517 196 562 q 351 461 261 472 l 351 685 l 434 685 l 434 468 q 602 564 536 494 l 602 1004 l 744 1004 l 744 0 l 602 0 "},"⊠":{"x_min":151,"x_max":954,"ha":1104,"o":"m 151 0 l 151 803 l 954 803 l 954 0 l 151 0 m 218 113 l 505 401 l 218 689 l 218 113 m 266 736 l 552 448 l 838 736 l 266 736 m 599 401 l 887 114 l 887 688 l 599 401 m 840 67 l 552 354 l 264 67 l 840 67 "},"₡":{"x_min":0,"x_max":972,"ha":981,"o":"m 0 -134 l 160 185 q 84 502 84 318 q 216 892 84 748 q 357 992 280 962 q 575 1029 434 1021 l 582 1029 l 636 1138 l 730 1138 l 673 1024 q 811 1003 740 1018 l 878 1138 l 972 1138 l 896 985 l 896 851 l 880 856 q 838 870 854 865 l 460 107 q 590 86 521 86 q 897 174 734 86 l 897 52 q 578 -25 748 -25 q 402 -4 483 -25 l 336 -134 l 243 -134 l 323 25 q 216 109 261 57 l 93 -134 l 0 -134 m 621 921 l 289 257 q 383 147 325 191 l 756 895 q 621 921 685 915 m 526 919 q 311 793 387 902 q 235 501 235 684 q 249 365 235 433 l 526 919 "},"Т":{"x_min":12,"x_max":866,"ha":878,"o":"m 368 0 l 368 898 l 12 898 l 12 1004 l 866 1004 l 866 898 l 510 898 l 510 0 l 368 0 "},"∰":{"x_min":150,"x_max":1472,"ha":1623,"o":"m 868 222 q 1139 256 989 222 l 1138 334 l 1138 560 l 1138 637 q 866 673 989 673 l 867 648 l 870 560 l 870 334 l 868 222 m 368 291 l 368 603 q 200 446 200 539 q 368 291 200 355 m 755 222 l 754 252 l 753 334 l 753 560 l 754 656 l 755 673 q 482 637 629 673 l 485 560 l 485 334 l 484 257 q 755 222 635 222 m 1254 291 q 1422 448 1422 357 q 1253 603 1422 539 l 1255 560 l 1255 334 l 1254 291 m 369 241 q 150 444 150 324 q 369 652 150 577 l 369 655 q 577 1096 369 1096 q 678 1004 678 1096 q 616 933 678 933 q 558 991 558 933 q 579 1037 558 1018 q 553 1046 563 1046 q 475 896 475 1046 l 478 790 l 481 686 q 757 723 628 723 q 962 1096 778 1096 q 1063 1004 1063 1096 q 1000 933 1063 933 q 943 990 943 933 q 964 1037 943 1018 q 937 1046 948 1046 q 859 896 859 1046 l 862 790 l 865 723 q 1140 687 994 723 q 1347 1096 1160 1096 q 1448 1004 1448 1096 q 1385 933 1448 933 q 1327 990 1327 933 q 1348 1037 1327 1018 q 1322 1046 1332 1046 q 1244 896 1244 1046 l 1247 790 l 1252 653 q 1472 450 1472 573 q 1253 242 1472 320 q 1193 -99 1241 1 q 1045 -201 1146 -201 q 945 -109 945 -201 q 1007 -38 945 -38 q 1064 -97 1064 -38 q 1042 -142 1064 -120 q 1069 -151 1055 -151 q 1146 5 1146 -151 l 1144 106 l 1140 207 q 865 172 986 172 q 660 -201 838 -201 q 560 -109 560 -201 q 622 -38 560 -38 q 679 -97 679 -38 q 658 -142 679 -120 q 684 -151 671 -151 q 761 5 761 -151 l 759 106 l 757 172 q 482 207 639 172 q 420 -106 468 -12 q 275 -201 372 -201 q 175 -109 175 -201 q 238 -38 175 -38 q 294 -97 294 -38 q 272 -142 294 -120 q 299 -151 285 -151 q 376 5 376 -151 l 374 106 l 369 241 "},"W":{"x_min":1,"x_max":1186,"ha":1188,"o":"m 259 0 l 1 1004 l 139 1004 l 343 214 l 532 1004 l 669 1004 l 848 221 l 1069 1004 l 1186 1004 l 905 0 l 763 0 l 585 773 l 400 0 l 259 0 "},"а":{"x_min":70,"x_max":734,"ha":767,"o":"m 513 93 q 282 -17 393 -17 q 130 40 190 -17 q 70 185 70 97 q 171 371 70 306 q 462 436 272 436 l 494 436 l 494 524 q 360 653 494 653 q 134 587 256 653 l 134 698 q 388 753 269 753 q 569 697 511 753 q 628 524 628 641 l 628 190 q 698 76 628 76 q 724 78 707 76 l 734 4 q 633 -17 688 -17 q 513 93 539 -17 m 494 166 l 494 357 l 451 359 q 272 317 340 359 q 204 207 204 275 q 237 125 204 158 q 320 92 271 92 q 494 166 403 92 "},"⊫":{"x_min":151,"x_max":954,"ha":1104,"o":"m 352 0 l 352 803 l 419 803 l 419 569 l 954 569 l 954 502 l 419 502 l 419 301 l 954 301 l 954 234 l 419 234 l 419 0 l 352 0 m 151 0 l 151 803 l 218 803 l 218 0 l 151 0 "},"v":{"x_min":12,"x_max":711,"ha":719,"o":"m 286 0 l 12 737 l 145 737 l 360 163 l 586 737 l 711 737 l 419 0 l 286 0 "},">":{"x_min":151,"x_max":954,"ha":1104,"o":"m 151 0 l 151 74 l 803 401 l 151 728 l 151 803 l 954 401 l 151 0 "},"Ї":{"x_min":8,"x_max":393,"ha":400,"o":"m 129 0 l 129 1004 l 271 1004 l 271 0 l 129 0 m 8 1088 l 8 1205 l 125 1205 l 125 1088 l 8 1088 m 276 1088 l 276 1205 l 393 1205 l 393 1088 l 276 1088 "},"≣":{"x_min":151,"x_max":954,"ha":1104,"o":"m 151 0 l 151 67 l 954 67 l 954 0 l 151 0 m 151 251 l 151 318 l 954 318 l 954 251 l 151 251 m 151 502 l 151 569 l 954 569 l 954 502 l 151 502 m 151 753 l 151 820 l 954 820 l 954 753 l 151 753 "},"⊀":{"x_min":151,"x_max":954,"ha":1104,"o":"m 637 259 q 159 368 447 368 l 151 368 l 151 435 l 159 435 q 637 543 447 435 l 637 870 l 704 870 l 704 587 q 879 803 835 688 l 954 803 q 708 506 892 619 l 704 504 l 704 298 l 708 295 q 954 0 892 182 l 879 0 q 704 214 835 113 l 704 -67 l 637 -67 l 637 259 m 637 334 l 637 468 l 632 466 q 414 401 524 413 q 632 336 524 388 l 637 334 "},"Ҥ":{"x_min":130,"x_max":1159,"ha":1176,"o":"m 892 0 l 750 0 l 750 475 l 272 475 l 272 0 l 130 0 l 130 1004 l 272 1004 l 272 581 l 750 581 l 750 1004 l 1159 1004 l 1159 898 l 892 898 l 892 0 "},"⋛":{"x_min":151,"x_max":954,"ha":1104,"o":"m 954 350 l 954 278 l 333 28 l 954 -220 l 954 -293 l 151 28 l 954 350 m 151 1192 l 954 871 l 151 550 l 151 621 l 773 871 l 151 1120 l 151 1192 m 954 416 l 151 416 l 151 483 l 954 483 l 954 416 "},"Х":{"x_min":11,"x_max":833,"ha":869,"o":"m 11 0 l 343 503 l 27 1004 l 195 1004 l 436 625 l 690 1004 l 825 1004 l 504 519 l 833 0 l 664 0 l 409 397 l 145 0 l 11 0 "},"≗":{"x_min":151,"x_max":954,"ha":1104,"o":"m 151 0 l 151 67 l 954 67 l 954 0 l 151 0 m 151 251 l 151 318 l 954 318 l 954 251 l 151 251 m 377 661 q 428 785 377 734 q 552 837 480 837 q 676 785 625 837 q 728 661 728 734 q 676 537 728 588 q 552 486 625 486 q 428 537 480 486 q 377 661 377 588 m 444 661 q 475 585 444 617 q 552 553 507 553 q 628 584 596 553 q 661 661 661 616 q 628 738 661 706 q 552 770 596 770 q 475 738 507 770 q 444 661 444 706 "},"r":{"x_min":134,"x_max":541,"ha":568,"o":"m 134 0 l 134 737 l 268 737 l 268 598 q 498 753 347 753 q 541 749 518 753 l 541 624 q 480 636 506 636 q 268 485 353 636 l 268 0 l 134 0 "},"ж":{"x_min":33,"x_max":977,"ha":1011,"o":"m 572 326 l 572 0 l 438 0 l 438 326 l 376 326 q 311 242 344 306 q 261 157 309 238 q 217 77 244 128 l 187 18 l 177 0 l 33 0 q 88 97 63 48 q 118 156 114 149 l 154 223 l 181 274 q 297 373 221 347 q 202 492 244 404 l 189 520 q 173 556 184 530 q 139 617 154 602 q 95 637 124 632 l 95 737 l 102 737 q 196 705 161 737 q 271 582 230 673 l 286 546 q 344 446 320 472 q 404 419 368 419 l 438 419 l 438 737 l 572 737 l 572 419 l 605 419 q 665 445 641 419 q 722 546 689 471 l 739 582 q 814 705 780 673 q 908 737 848 737 l 915 737 l 915 637 q 870 617 885 632 q 836 556 855 602 q 821 520 825 530 l 807 492 q 711 373 766 404 q 828 274 788 347 l 854 223 l 891 156 q 921 97 895 149 q 977 0 946 48 l 833 0 l 823 18 l 792 77 q 749 157 766 128 q 699 242 701 238 q 633 326 665 306 l 572 326 "},"₤":{"x_min":168,"x_max":741,"ha":878,"o":"m 731 1009 l 731 896 q 568 929 646 929 q 473 892 503 929 q 444 772 444 855 l 444 667 l 590 667 l 590 584 l 444 584 l 444 484 l 590 484 l 590 400 l 444 400 l 444 389 q 418 231 444 290 q 326 117 393 172 l 741 117 l 741 0 l 168 0 l 168 117 q 310 331 310 162 l 310 400 l 176 400 l 176 484 l 310 484 l 310 584 l 176 584 l 176 667 l 310 667 l 310 731 q 378 952 310 876 q 576 1029 447 1029 q 731 1009 647 1029 "},"≒":{"x_min":151,"x_max":954,"ha":1104,"o":"m 820 -26 l 820 108 l 954 108 l 954 -26 l 820 -26 m 151 242 l 151 309 l 954 309 l 954 242 l 151 242 m 151 494 l 151 561 l 954 561 l 954 494 l 151 494 m 151 694 l 151 828 l 285 828 l 285 694 l 151 694 "},"x":{"x_min":60,"x_max":789,"ha":852,"o":"m 60 0 l 339 380 l 68 737 l 226 737 l 441 452 l 636 737 l 767 737 l 512 362 l 789 0 l 630 0 l 408 291 l 194 0 l 60 0 "},"⋊":{"x_min":151,"x_max":954,"ha":1104,"o":"m 599 401 l 887 115 l 887 689 l 599 401 m 954 803 l 954 0 l 907 0 l 552 354 l 198 0 l 151 47 l 505 401 l 151 756 l 198 803 l 552 448 l 906 803 l 954 803 "},"с":{"x_min":75,"x_max":645,"ha":711,"o":"m 645 22 q 421 -17 515 -17 q 173 93 271 -17 q 75 372 75 204 q 172 652 75 552 q 444 753 269 753 q 637 729 530 753 l 637 617 q 452 651 523 651 q 287 573 349 651 q 226 368 226 496 q 289 167 226 244 q 456 91 353 91 q 645 137 548 91 l 645 22 "},"⊊":{"x_min":151,"x_max":954,"ha":1104,"o":"m 568 0 l 518 -151 l 448 -151 l 498 0 l 151 0 l 151 67 l 520 67 l 553 167 l 624 167 l 590 67 l 954 67 l 954 0 l 568 0 m 954 301 l 954 234 l 435 234 q 234 317 317 234 q 151 518 151 400 q 234 719 151 636 q 435 803 317 803 l 954 803 l 954 736 l 435 736 q 281 672 344 736 q 218 518 218 608 q 281 364 218 428 q 435 301 344 301 l 954 301 "},"≦":{"x_min":151,"x_max":954,"ha":1104,"o":"m 151 251 l 151 318 l 954 318 l 954 251 l 151 251 m 954 1055 l 954 982 l 333 733 l 954 484 l 954 412 l 151 733 l 954 1055 m 151 0 l 151 67 l 954 67 l 954 0 l 151 0 "},"≟":{"x_min":151,"x_max":954,"ha":1104,"o":"m 151 0 l 151 67 l 954 67 l 954 0 l 151 0 m 151 251 l 151 318 l 954 318 l 954 251 l 151 251 m 520 435 l 520 502 l 587 502 l 587 435 l 520 435 m 520 569 l 520 587 q 569 709 520 652 l 591 733 q 644 833 644 793 q 557 899 644 899 q 447 874 505 899 l 447 930 q 565 949 510 949 q 715 834 715 949 q 658 730 715 783 l 637 710 q 587 606 587 662 l 587 569 l 520 569 "},"h":{"x_min":134,"x_max":736,"ha":862,"o":"m 134 0 l 134 1071 l 268 1071 l 268 598 q 526 753 373 753 q 679 692 622 753 q 736 529 736 631 l 736 0 l 602 0 l 602 485 q 578 603 602 568 q 498 638 554 638 q 268 477 376 638 l 268 0 l 134 0 "},"Ҳ":{"x_min":11,"x_max":887,"ha":920,"o":"m 11 0 l 343 503 l 27 1004 l 195 1004 l 436 624 l 690 1004 l 825 1004 l 503 518 l 753 125 l 887 125 l 887 -218 l 753 -218 l 753 0 l 664 0 l 409 397 l 145 0 l 11 0 "},".":{"x_min":136,"x_max":304,"ha":439,"o":"m 136 0 l 136 168 l 304 168 l 304 0 l 136 0 "},"⋆":{"x_min":170,"x_max":933,"ha":1104,"o":"m 170 526 l 487 489 l 551 803 l 615 489 l 933 526 l 654 367 l 787 77 l 551 293 l 315 77 l 448 367 l 170 526 "},"∓":{"x_min":151,"x_max":954,"ha":1104,"o":"m 954 804 l 954 737 l 151 737 l 151 804 l 954 804 m 586 603 l 586 335 l 954 335 l 954 268 l 586 268 l 586 0 l 519 0 l 519 268 l 151 268 l 151 335 l 519 335 l 519 603 l 586 603 "},"f":{"x_min":54.5625,"x_max":552,"ha":511,"o":"m 159 0 l 159 637 l 54 637 l 54 737 l 159 737 l 159 825 q 399 1088 159 1088 q 552 1066 466 1088 l 552 960 q 407 988 461 988 q 317 956 341 988 q 293 839 293 924 l 293 737 l 477 737 l 477 637 l 293 637 l 293 0 l 159 0 "},"≾":{"x_min":151,"x_max":954,"ha":1104,"o":"m 414 685 q 749 552 597 665 q 954 284 902 438 l 879 284 q 619 553 813 454 q 159 652 425 652 l 151 652 l 151 719 l 159 719 q 619 818 425 719 q 879 1087 813 917 l 954 1087 q 749 819 902 932 q 414 685 597 705 m 193 0 l 151 0 q 328 216 161 216 q 554 145 397 216 l 613 118 q 797 54 757 54 q 912 200 895 54 l 954 200 q 774 -16 940 -16 q 593 40 718 -16 l 553 58 l 492 85 q 307 146 357 146 q 225 103 258 146 q 193 0 193 61 "},"≛":{"x_min":151,"x_max":954,"ha":1104,"o":"m 151 0 l 151 67 l 954 67 l 954 0 l 151 0 m 151 251 l 151 318 l 954 318 l 954 251 l 151 251 m 281 803 l 488 803 l 552 1000 l 616 803 l 823 803 l 655 681 l 720 486 l 552 607 l 385 486 l 449 681 l 281 803 "},"A":{"x_min":12,"x_max":943,"ha":958,"o":"m 12 0 l 410 1004 l 551 1004 l 943 0 l 790 0 l 681 278 l 254 278 l 144 0 l 12 0 m 296 384 l 639 384 l 468 817 l 296 384 "},"O":{"x_min":71,"x_max":1010,"ha":1079,"o":"m 540 -25 q 198 118 326 -25 q 71 502 71 261 q 198 885 71 742 q 540 1029 326 1029 q 882 885 754 1029 q 1010 502 1010 742 q 882 118 1010 261 q 540 -25 754 -25 m 540 81 q 774 192 690 81 q 859 503 859 304 q 774 811 859 700 q 540 923 690 923 q 306 811 390 923 q 222 503 222 700 q 306 192 222 304 q 540 81 390 81 "},"∅":{"x_min":151,"x_max":1206,"ha":1356,"o":"m 176 47 l 282 153 q 151 502 151 305 q 305 875 151 721 q 678 1030 459 1030 q 1026 898 872 1030 l 1133 1004 l 1180 957 l 1074 850 q 1206 502 1206 698 q 1051 129 1206 283 q 678 -25 896 -25 q 330 105 481 -25 l 223 0 l 176 47 m 329 200 l 979 850 q 678 963 845 963 q 352 828 487 963 q 218 502 218 693 q 329 200 218 331 m 376 154 q 678 42 507 42 q 1004 176 869 42 q 1139 502 1139 311 q 1027 803 1139 671 l 376 154 "},"3":{"x_min":141,"x_max":726,"ha":878,"o":"m 141 8 l 141 133 q 366 75 284 75 q 523 130 463 75 q 584 276 584 186 q 287 489 584 489 l 234 489 l 234 578 l 280 579 q 559 775 559 579 q 374 929 559 929 q 155 872 275 929 l 155 989 q 383 1029 273 1029 q 613 969 533 1029 q 693 796 693 909 q 483 544 693 619 q 726 278 726 488 q 632 55 726 136 q 375 -25 538 -25 q 141 8 282 -25 "},"ҟ":{"x_min":0,"x_max":679,"ha":746,"o":"m 134 0 l 134 820 l 0 820 l 0 903 l 134 903 l 134 1071 l 268 1071 l 268 903 l 444 903 l 444 820 l 268 820 l 268 415 l 280 415 q 350 433 328 418 q 397 497 372 449 l 420 542 l 435 573 q 522 706 484 676 q 644 737 560 737 l 644 637 q 584 618 604 637 q 532 531 564 599 l 519 504 l 502 467 q 406 371 473 405 q 490 320 460 352 q 567 197 519 289 l 594 145 q 679 0 639 58 l 531 0 q 488 80 510 41 l 451 145 q 334 315 381 272 l 268 315 l 268 0 l 134 0 "},"9":{"x_min":106,"x_max":788,"ha":878,"o":"m 158 6 l 158 120 q 374 75 285 75 q 569 181 499 75 q 640 476 640 287 q 408 351 538 351 q 194 444 282 351 q 106 672 106 537 q 199 927 106 826 q 436 1029 293 1029 q 693 897 599 1029 q 788 538 788 766 q 742 265 788 393 q 620 66 697 137 q 362 -25 522 -25 q 158 6 283 -25 m 240 694 q 292 513 240 580 q 432 447 344 447 q 578 504 518 447 q 638 643 638 562 q 580 850 638 772 q 428 929 522 929 q 290 866 340 929 q 240 694 240 804 "},"⋐":{"x_min":151,"x_max":954,"ha":1104,"o":"m 954 0 l 552 0 q 268 117 385 0 q 151 401 151 234 q 268 685 151 568 q 552 803 386 803 l 954 803 l 954 736 l 552 736 q 316 637 414 736 q 218 401 218 539 q 316 164 218 262 q 552 67 414 67 l 954 67 l 954 0 m 954 201 l 552 201 q 410 259 469 201 q 352 401 352 318 q 410 543 352 484 q 552 602 469 602 l 954 602 l 954 535 l 552 535 q 457 495 496 535 q 419 401 419 456 q 457 306 419 345 q 552 268 496 268 l 954 268 l 954 201 "},"∖":{"x_min":151,"x_max":578,"ha":728,"o":"m 578 -201 l 507 -201 l 151 1004 l 221 1004 l 578 -201 "},"≸":{"x_min":151,"x_max":954,"ha":1104,"o":"m 519 535 l 151 682 l 519 829 l 519 1071 l 586 1071 l 586 856 l 954 1004 l 954 931 l 586 784 l 586 580 l 954 432 l 954 361 l 586 508 l 586 364 l 954 216 l 586 69 l 586 -168 l 519 -168 l 519 43 l 151 -104 l 151 -32 l 519 114 l 519 318 l 151 466 l 151 538 l 519 390 l 519 535 m 519 607 l 519 757 l 333 682 l 519 607 m 586 291 l 586 141 l 773 216 l 586 291 "},"l":{"x_min":134,"x_max":268,"ha":402,"o":"m 134 0 l 134 1071 l 268 1071 l 268 0 l 134 0 "},"4":{"x_min":71,"x_max":782,"ha":878,"o":"m 523 0 l 523 284 l 71 284 l 71 385 l 523 1004 l 648 1004 l 648 393 l 782 393 l 782 284 l 648 284 l 648 0 l 523 0 m 201 393 l 532 393 l 532 839 l 201 393 "},"⋫":{"x_min":151,"x_max":954,"ha":1104,"o":"m 548 604 l 659 937 l 730 937 l 609 574 l 954 401 l 470 159 l 372 -134 l 302 -134 l 386 117 l 151 0 l 151 803 l 548 604 m 527 540 l 218 695 l 218 108 l 416 206 l 527 540 m 587 510 l 500 249 l 805 401 l 587 510 "},"Ъ":{"x_min":13,"x_max":891,"ha":941,"o":"m 281 0 l 281 898 l 13 898 l 13 1004 l 423 1004 l 423 573 l 499 573 q 672 563 619 573 q 776 522 726 553 q 891 305 891 449 q 760 56 891 138 q 463 0 671 0 l 281 0 m 423 104 l 473 104 q 677 146 619 104 q 749 296 749 199 q 688 428 749 387 q 492 469 627 469 l 423 469 l 423 104 "}}}
